{"glyphs":{"0":{"ha":943,"x_min":0,"x_max":0,"o":"m 472 -22 b 893 479 760 -22 893 193 b 472 982 893 765 760 982 b 50 479 185 982 50 765 b 472 -22 50 193 185 -22 z m 472 172 b 296 479 335 172 296 306 b 472 788 296 653 335 788 b 647 479 610 788 647 653 b 472 172 647 306 610 172 z "},"1":{"ha":547,"x_min":0,"x_max":0,"o":"m 222 0 l 458 0 l 458 960 l 264 960 b 19 789 264 842 154 789 l 19 604 b 222 644 104 604 185 615 z "},"2":{"ha":835,"x_min":0,"x_max":0,"o":"m 775 0 l 775 190 l 368 190 l 368 193 b 488 290 400 225 442 257 b 775 690 619 386 775 503 b 429 982 775 874 636 982 b 50 610 169 982 50 835 l 278 610 b 422 792 278 742 332 792 b 533 674 497 792 533 747 b 353 444 533 586 457 522 b 36 0 144 289 36 203 z "},"3":{"ha":861,"x_min":0,"x_max":0,"o":"m 436 -22 b 813 275 665 -22 813 81 b 646 506 813 386 764 468 l 646 508 b 785 718 724 549 785 614 b 431 982 785 888 625 982 b 60 665 200 982 60 849 l 288 665 b 425 792 288 757 350 792 b 543 692 503 792 543 756 b 394 574 543 610 479 574 l 351 574 l 351 411 l 400 411 b 571 285 510 411 571 376 b 428 168 571 211 531 168 b 260 339 306 168 260 228 l 32 339 b 436 -22 32 108 179 -22 z "},"4":{"ha":893,"x_min":0,"x_max":0,"o":"m 714 0 l 714 203 l 856 203 l 856 393 l 714 393 l 714 960 l 478 960 l 43 435 l 43 203 l 478 203 l 478 0 z m 478 703 l 478 393 l 217 393 z "},"5":{"ha":858,"x_min":0,"x_max":0,"o":"m 438 -22 b 811 325 650 -22 811 94 b 493 651 811 531 683 651 b 288 583 406 651 340 625 l 288 586 l 324 769 l 769 769 l 769 960 l 163 960 l 51 419 l 274 419 b 419 489 313 468 368 489 b 569 328 521 489 569 429 b 424 168 569 222 513 168 b 265 297 324 168 272 228 l 38 297 b 438 -22 44 108 178 -22 z "},"6":{"ha":893,"x_min":0,"x_max":0,"o":"m 471 -22 b 847 329 701 -22 847 117 b 517 654 847 513 715 654 b 293 571 411 654 343 618 l 288 575 l 288 590 b 458 806 288 715 339 806 b 581 717 546 806 574 750 l 819 717 b 463 982 789 871 649 982 b 51 467 217 982 51 814 b 471 -22 51 217 154 -22 z m 457 154 b 293 317 353 154 293 224 b 457 478 293 408 353 478 b 619 317 560 478 619 408 b 457 154 619 224 560 154 z "},"7":{"ha":751,"x_min":0,"x_max":0,"o":"m 419 0 b 721 783 419 296 503 607 l 721 960 l 17 960 l 17 769 l 471 769 l 471 767 b 169 0 300 621 169 307 z "},"8":{"ha":883,"x_min":0,"x_max":0,"o":"m 442 -22 b 839 275 661 -22 839 78 b 658 517 839 404 749 476 l 658 519 b 797 722 725 556 797 614 b 442 982 797 888 639 982 b 86 722 244 982 86 888 b 225 519 86 614 157 556 l 225 517 b 44 275 133 476 44 404 b 442 -22 44 78 222 -22 z m 442 582 b 300 701 344 582 300 636 b 442 819 300 764 344 819 b 583 701 539 819 583 764 b 442 582 583 636 539 582 z m 442 154 b 286 297 340 154 286 219 b 442 438 286 372 340 438 b 597 297 543 438 597 372 b 442 154 597 219 543 154 z "},"9":{"ha":893,"x_min":0,"x_max":0,"o":"m 431 -22 b 842 493 676 -22 842 146 b 422 982 842 743 739 982 b 46 631 192 982 46 843 b 376 306 46 447 178 306 b 600 389 482 306 550 342 l 606 385 l 606 369 b 435 154 606 244 554 154 b 313 243 347 154 319 210 l 74 243 b 431 -22 104 89 244 -22 z m 436 482 b 274 643 333 482 274 551 b 436 806 274 736 333 806 b 600 643 540 806 600 736 b 436 482 600 551 540 482 z "},"\r":{"ha":264,"x_min":0,"x_max":0,"o":""}," ":{"ha":264,"x_min":0,"x_max":0,"o":""},"A":{"ha":994,"x_min":0,"x_max":0,"o":"m 261 0 l 325 207 l 665 207 l 729 0 l 1003 0 l 622 993 l 371 993 l -7 0 z m 494 764 l 497 764 l 610 397 l 382 397 z "},"Á":{"ha":994,"x_min":0,"x_max":0,"o":"m 579 1078 l 736 1289 l 486 1289 l 413 1078 z m 261 0 l 325 207 l 665 207 l 729 0 l 1003 0 l 622 993 l 371 993 l -7 0 z m 494 764 l 497 764 l 610 397 l 382 397 z "},"Ă":{"ha":994,"x_min":0,"x_max":0,"o":"m 496 1067 b 718 1278 625 1067 713 1153 l 590 1278 b 496 1203 586 1232 556 1203 b 401 1278 436 1203 406 1232 l 274 1278 b 496 1067 278 1149 369 1067 z m 261 0 l 325 207 l 665 207 l 729 0 l 1003 0 l 622 993 l 371 993 l -7 0 z m 494 764 l 497 764 l 610 397 l 382 397 z "},"Â":{"ha":994,"x_min":0,"x_max":0,"o":"m 432 1078 l 494 1190 l 497 1190 l 560 1078 l 753 1078 l 604 1289 l 388 1289 l 239 1078 z m 261 0 l 325 207 l 665 207 l 729 0 l 1003 0 l 622 993 l 371 993 l -7 0 z m 494 764 l 497 764 l 610 397 l 382 397 z "},"Ä":{"ha":994,"x_min":0,"x_max":0,"o":"m 463 1078 l 463 1275 l 240 1275 l 240 1078 z m 751 1078 l 751 1275 l 529 1275 l 529 1078 z m 261 0 l 325 207 l 665 207 l 729 0 l 1003 0 l 622 993 l 371 993 l -7 0 z m 494 764 l 497 764 l 610 397 l 382 397 z "},"À":{"ha":994,"x_min":0,"x_max":0,"o":"m 576 1081 l 503 1292 l 281 1292 l 410 1081 z m 261 0 l 325 207 l 665 207 l 729 0 l 1003 0 l 622 993 l 371 993 l -7 0 z m 494 764 l 497 764 l 610 397 l 382 397 z "},"Ā":{"ha":994,"x_min":0,"x_max":0,"o":"m 694 1078 l 694 1217 l 297 1217 l 297 1078 z m 261 0 l 325 207 l 665 207 l 729 0 l 1003 0 l 622 993 l 371 993 l -7 0 z m 494 764 l 497 764 l 610 397 l 382 397 z "},"Ą":{"ha":994,"x_min":0,"x_max":0,"o":"m 853 -83 b 918 0 853 -54 882 -31 l 1003 0 l 622 993 l 371 993 l -7 0 l 261 0 l 325 207 l 665 207 l 729 0 l 776 0 b 682 -128 732 -21 682 -64 b 840 -244 682 -203 736 -244 b 953 -229 879 -244 921 -237 l 953 -104 b 896 -114 933 -110 914 -114 b 853 -83 868 -114 853 -104 z m 494 764 l 497 764 l 610 397 l 382 397 z "},"Å":{"ha":994,"x_min":0,"x_max":0,"o":"m 496 1031 b 649 1181 579 1031 649 1088 b 496 1331 649 1272 579 1331 b 343 1181 414 1331 343 1272 b 496 1031 343 1088 414 1031 z m 496 1117 b 438 1181 463 1117 438 1139 b 496 1244 438 1222 463 1244 b 556 1181 533 1244 556 1222 b 496 1117 556 1139 533 1117 z m 261 0 l 325 207 l 665 207 l 729 0 l 1003 0 l 622 993 l 371 993 l -7 0 z m 494 764 l 497 764 l 610 397 l 382 397 z "},"Ã":{"ha":994,"x_min":0,"x_max":0,"o":"m 368 1057 b 415 1111 368 1083 376 1111 b 604 1057 469 1111 529 1057 b 728 1261 683 1057 728 1117 l 608 1261 b 560 1206 608 1233 599 1206 b 371 1261 504 1206 446 1261 b 247 1057 292 1261 247 1200 z m 261 0 l 325 207 l 665 207 l 729 0 l 1003 0 l 622 993 l 371 993 l -7 0 z m 494 764 l 497 764 l 610 397 l 382 397 z "},"Æ":{"ha":1401,"x_min":0,"x_max":0,"o":"m 843 408 l 1276 408 l 1276 613 l 843 613 l 843 789 l 1346 789 l 1346 993 l 367 993 l -8 -3 l 242 -3 l 306 204 l 593 204 l 593 0 l 1354 0 l 1354 204 l 843 204 z m 363 394 l 490 789 l 592 789 l 592 394 z "},"B":{"ha":958,"x_min":0,"x_max":0,"o":"m 579 0 b 919 293 785 0 919 82 b 726 529 919 442 831 511 l 726 532 b 881 743 808 560 881 621 b 565 993 881 913 772 993 l 83 993 l 83 0 z m 333 592 l 333 789 l 500 789 b 625 690 569 789 625 772 b 500 592 625 608 569 592 z m 333 204 l 333 439 l 507 439 b 664 322 611 439 664 415 b 507 204 664 229 611 204 z "},"C":{"ha":993,"x_min":0,"x_max":0,"o":"m 517 -22 b 963 372 790 -22 940 144 l 707 372 b 513 182 690 261 646 182 b 297 497 347 182 297 310 b 513 811 297 683 347 811 b 707 624 644 811 689 732 l 963 624 b 524 1015 939 854 794 1015 b 42 493 210 1015 42 797 b 517 -22 42 197 201 -22 z "},"Ć":{"ha":993,"x_min":0,"x_max":0,"o":"m 614 1078 l 771 1289 l 521 1289 l 447 1078 z m 517 -22 b 963 372 790 -22 940 144 l 707 372 b 513 182 690 261 646 182 b 297 497 347 182 297 310 b 513 811 297 683 347 811 b 707 624 644 811 689 732 l 963 624 b 524 1015 939 854 794 1015 b 42 493 210 1015 42 797 b 517 -22 42 197 201 -22 z "},"Č":{"ha":993,"x_min":0,"x_max":0,"o":"m 639 1078 l 788 1289 l 594 1289 l 532 1176 l 529 1176 l 467 1289 l 274 1289 l 422 1078 z m 517 -22 b 963 372 790 -22 940 144 l 707 372 b 513 182 690 261 646 182 b 297 497 347 182 297 310 b 513 811 297 683 347 811 b 707 624 644 811 689 732 l 963 624 b 524 1015 939 854 794 1015 b 42 493 210 1015 42 797 b 517 -22 42 197 201 -22 z "},"Ç":{"ha":993,"x_min":0,"x_max":0,"o":"m 513 182 b 297 497 347 182 297 310 b 513 811 297 683 347 811 b 707 624 644 811 689 732 l 963 624 b 524 1015 939 854 794 1015 b 42 493 210 1015 42 797 b 471 -21 42 213 186 0 l 408 -86 l 442 -133 b 493 -124 457 -128 474 -124 b 540 -161 522 -124 540 -135 b 476 -201 540 -190 510 -201 b 389 -181 443 -201 415 -193 l 347 -229 b 503 -275 386 -256 438 -275 b 685 -162 601 -275 685 -235 b 536 -69 685 -90 611 -61 l 536 -67 l 575 -19 b 963 372 811 3 942 161 l 707 372 b 513 182 690 261 646 182 z "},"Ĉ":{"ha":993,"x_min":0,"x_max":0,"o":"m 467 1078 l 529 1190 l 532 1190 l 594 1078 l 788 1078 l 639 1289 l 422 1289 l 274 1078 z m 517 -22 b 963 372 790 -22 940 144 l 707 372 b 513 182 690 261 646 182 b 297 497 347 182 297 310 b 513 811 297 683 347 811 b 707 624 644 811 689 732 l 963 624 b 524 1015 939 854 794 1015 b 42 493 210 1015 42 797 b 517 -22 42 197 201 -22 z "},"Ċ":{"ha":993,"x_min":0,"x_max":0,"o":"m 642 1078 l 642 1275 l 419 1275 l 419 1078 z m 517 -22 b 963 372 790 -22 940 144 l 707 372 b 513 182 690 261 646 182 b 297 497 347 182 297 310 b 513 811 297 683 347 811 b 707 624 644 811 689 732 l 963 624 b 524 1015 939 854 794 1015 b 42 493 210 1015 42 797 b 517 -22 42 197 201 -22 z "},"D":{"ha":1011,"x_min":0,"x_max":0,"o":"m 538 0 b 967 496 814 0 967 176 b 524 993 967 815 800 993 l 83 993 l 83 0 z m 333 204 l 333 789 l 493 789 b 711 496 649 789 711 676 b 493 204 711 315 649 204 z "},"Ð":{"ha":1026,"x_min":0,"x_max":0,"o":"m 99 993 l 99 576 l 18 576 l 18 451 l 99 451 l 99 0 l 553 0 b 982 496 829 0 982 176 b 539 993 982 815 815 993 z m 349 204 l 349 451 l 543 451 l 543 576 l 349 576 l 349 789 l 508 789 b 726 496 664 789 726 676 b 508 204 726 315 664 204 z "},"Ď":{"ha":1011,"x_min":0,"x_max":0,"o":"m 564 1078 l 713 1289 l 519 1289 l 457 1176 l 454 1176 l 392 1289 l 199 1289 l 347 1078 z m 538 0 b 967 496 814 0 967 176 b 524 993 967 815 800 993 l 83 993 l 83 0 z m 333 204 l 333 789 l 493 789 b 711 496 649 789 711 676 b 493 204 711 315 649 204 z "},"Đ":{"ha":1026,"x_min":0,"x_max":0,"o":"m 99 993 l 99 576 l 18 576 l 18 451 l 99 451 l 99 0 l 553 0 b 982 496 829 0 982 176 b 539 993 982 815 815 993 z m 349 204 l 349 451 l 543 451 l 543 576 l 349 576 l 349 789 l 508 789 b 726 496 664 789 726 676 b 508 204 726 315 664 204 z "},"E":{"ha":892,"x_min":0,"x_max":0,"o":"m 844 0 l 844 204 l 333 204 l 333 408 l 767 408 l 767 613 l 333 613 l 333 789 l 836 789 l 836 993 l 83 993 l 83 0 z "},"É":{"ha":892,"x_min":0,"x_max":0,"o":"m 547 1078 l 704 1289 l 454 1289 l 381 1078 z m 844 0 l 844 204 l 333 204 l 333 408 l 767 408 l 767 613 l 333 613 l 333 789 l 836 789 l 836 993 l 83 993 l 83 0 z "},"Ě":{"ha":892,"x_min":0,"x_max":0,"o":"m 572 1078 l 721 1289 l 528 1289 l 465 1176 l 463 1176 l 400 1289 l 207 1289 l 356 1078 z m 844 0 l 844 204 l 333 204 l 333 408 l 767 408 l 767 613 l 333 613 l 333 789 l 836 789 l 836 993 l 83 993 l 83 0 z "},"Ê":{"ha":892,"x_min":0,"x_max":0,"o":"m 400 1078 l 463 1190 l 465 1190 l 528 1078 l 721 1078 l 572 1289 l 356 1289 l 207 1078 z m 844 0 l 844 204 l 333 204 l 333 408 l 767 408 l 767 613 l 333 613 l 333 789 l 836 789 l 836 993 l 83 993 l 83 0 z "},"Ë":{"ha":892,"x_min":0,"x_max":0,"o":"m 431 1078 l 431 1275 l 208 1275 l 208 1078 z m 719 1078 l 719 1275 l 497 1275 l 497 1078 z m 844 0 l 844 204 l 333 204 l 333 408 l 767 408 l 767 613 l 333 613 l 333 789 l 836 789 l 836 993 l 83 993 l 83 0 z "},"Ė":{"ha":892,"x_min":0,"x_max":0,"o":"m 575 1078 l 575 1275 l 353 1275 l 353 1078 z m 844 0 l 844 204 l 333 204 l 333 408 l 767 408 l 767 613 l 333 613 l 333 789 l 836 789 l 836 993 l 83 993 l 83 0 z "},"È":{"ha":892,"x_min":0,"x_max":0,"o":"m 544 1081 l 471 1292 l 249 1292 l 378 1081 z m 844 0 l 844 204 l 333 204 l 333 408 l 767 408 l 767 613 l 333 613 l 333 789 l 836 789 l 836 993 l 83 993 l 83 0 z "},"Ē":{"ha":892,"x_min":0,"x_max":0,"o":"m 663 1078 l 663 1217 l 265 1217 l 265 1078 z m 844 0 l 844 204 l 333 204 l 333 408 l 767 408 l 767 613 l 333 613 l 333 789 l 836 789 l 836 993 l 83 993 l 83 0 z "},"Ę":{"ha":892,"x_min":0,"x_max":0,"o":"m 844 0 l 844 204 l 333 204 l 333 408 l 767 408 l 767 613 l 333 613 l 333 789 l 836 789 l 836 993 l 83 993 l 83 0 l 668 0 b 574 -128 624 -21 574 -64 b 732 -244 574 -203 628 -244 b 844 -229 771 -244 813 -237 l 844 -104 b 788 -114 825 -110 806 -114 b 744 -83 760 -114 744 -104 b 810 0 744 -54 774 -31 z "},"F":{"ha":851,"x_min":0,"x_max":0,"o":"m 333 0 l 333 367 l 732 367 l 732 571 l 333 571 l 333 789 l 822 789 l 822 993 l 83 993 l 83 0 z "},"G":{"ha":1043,"x_min":0,"x_max":0,"o":"m 492 -22 b 778 126 638 -22 731 36 l 781 126 l 806 0 l 985 0 l 985 528 l 538 528 l 538 347 l 726 347 b 528 182 724 251 643 182 b 297 497 354 182 297 310 b 518 811 297 683 354 811 b 714 664 656 811 696 732 l 969 664 b 522 1015 946 854 794 1015 b 42 497 210 1015 42 796 b 492 -22 42 197 210 -22 z "},"Ğ":{"ha":1043,"x_min":0,"x_max":0,"o":"m 521 1067 b 743 1278 650 1067 738 1153 l 615 1278 b 521 1203 611 1232 581 1203 b 426 1278 461 1203 431 1232 l 299 1278 b 521 1067 303 1149 394 1067 z m 492 -22 b 778 126 638 -22 731 36 l 781 126 l 806 0 l 985 0 l 985 528 l 538 528 l 538 347 l 726 347 b 528 182 724 251 643 182 b 297 497 354 182 297 310 b 518 811 297 683 354 811 b 714 664 656 811 696 732 l 969 664 b 522 1015 946 854 794 1015 b 42 497 210 1015 42 796 b 492 -22 42 197 210 -22 z "},"Ĝ":{"ha":1043,"x_min":0,"x_max":0,"o":"m 457 1078 l 519 1190 l 522 1190 l 585 1078 l 778 1078 l 629 1289 l 413 1289 l 264 1078 z m 492 -22 b 778 126 638 -22 731 36 l 781 126 l 806 0 l 985 0 l 985 528 l 538 528 l 538 347 l 726 347 b 528 182 724 251 643 182 b 297 497 354 182 297 310 b 518 811 297 683 354 811 b 714 664 656 811 696 732 l 969 664 b 522 1015 946 854 794 1015 b 42 497 210 1015 42 796 b 492 -22 42 197 210 -22 z "},"Ģ":{"ha":1043,"x_min":0,"x_max":0,"o":"m 538 347 l 726 347 b 528 182 724 251 643 182 b 297 497 354 182 297 310 b 518 811 297 683 354 811 b 714 664 656 811 696 732 l 969 664 b 522 1015 946 854 794 1015 b 42 497 210 1015 42 796 b 492 -22 42 197 210 -22 b 778 126 638 -22 731 36 l 781 126 l 806 0 l 985 0 l 985 528 l 538 528 z m 514 -210 b 414 -300 514 -269 472 -293 l 414 -365 b 625 -210 550 -351 625 -293 l 625 -68 l 414 -68 l 414 -210 z "},"Ġ":{"ha":1043,"x_min":0,"x_max":0,"o":"m 632 1078 l 632 1275 l 410 1275 l 410 1078 z m 492 -22 b 778 126 638 -22 731 36 l 781 126 l 806 0 l 985 0 l 985 528 l 538 528 l 538 347 l 726 347 b 528 182 724 251 643 182 b 297 497 354 182 297 310 b 518 811 297 683 354 811 b 714 664 656 811 696 732 l 969 664 b 522 1015 946 854 794 1015 b 42 497 210 1015 42 796 b 492 -22 42 197 210 -22 z "},"H":{"ha":1007,"x_min":0,"x_max":0,"o":"m 333 0 l 333 400 l 674 400 l 674 0 l 924 0 l 924 993 l 674 993 l 674 604 l 333 604 l 333 993 l 83 993 l 83 0 z "},"Ħ":{"ha":1033,"x_min":0,"x_max":0,"o":"m 938 856 l 938 993 l 688 993 l 688 856 l 347 856 l 347 993 l 97 993 l 97 856 l 21 856 l 21 731 l 97 731 l 97 0 l 347 0 l 347 400 l 688 400 l 688 0 l 938 0 l 938 731 l 1011 731 l 1011 856 z m 347 604 l 347 731 l 688 731 l 688 604 z "},"Ĥ":{"ha":1007,"x_min":0,"x_max":0,"o":"m 440 1078 l 503 1190 l 506 1190 l 568 1078 l 761 1078 l 613 1289 l 396 1289 l 247 1078 z m 333 0 l 333 400 l 674 400 l 674 0 l 924 0 l 924 993 l 674 993 l 674 604 l 333 604 l 333 993 l 83 993 l 83 0 z "},"I":{"ha":417,"x_min":0,"x_max":0,"o":"m 333 0 l 333 993 l 83 993 l 83 0 z "},"Í":{"ha":417,"x_min":0,"x_max":0,"o":"m 292 1078 l 449 1289 l 199 1289 l 125 1078 z m 333 0 l 333 993 l 83 993 l 83 0 z "},"Î":{"ha":417,"x_min":0,"x_max":0,"o":"m 144 1078 l 207 1190 l 210 1190 l 272 1078 l 465 1078 l 317 1289 l 100 1289 l -49 1078 z m 333 0 l 333 993 l 83 993 l 83 0 z "},"Ï":{"ha":417,"x_min":0,"x_max":0,"o":"m 175 1078 l 175 1275 l -47 1275 l -47 1078 z m 464 1078 l 464 1275 l 242 1275 l 242 1078 z m 333 0 l 333 993 l 83 993 l 83 0 z "},"İ":{"ha":417,"x_min":0,"x_max":0,"o":"m 333 1078 l 333 1275 l 85 1275 l 85 1078 z m 333 0 l 333 993 l 83 993 l 83 0 z "},"Ì":{"ha":417,"x_min":0,"x_max":0,"o":"m 289 1081 l 215 1292 l -7 1292 l 122 1081 z m 333 0 l 333 993 l 83 993 l 83 0 z "},"Ī":{"ha":417,"x_min":0,"x_max":0,"o":"m 407 1078 l 407 1217 l 10 1217 l 10 1078 z m 333 0 l 333 993 l 83 993 l 83 0 z "},"Į":{"ha":417,"x_min":0,"x_max":0,"o":"m 333 0 l 333 993 l 83 993 l 83 0 l 156 0 b 61 -128 111 -21 61 -64 b 219 -244 61 -203 115 -244 b 332 -229 258 -244 300 -237 l 332 -104 b 275 -114 313 -110 293 -114 b 232 -83 247 -114 232 -104 b 297 0 232 -54 261 -31 z "},"Ĩ":{"ha":417,"x_min":0,"x_max":0,"o":"m 81 1057 b 128 1111 81 1083 89 1111 b 317 1057 182 1111 242 1057 b 440 1261 396 1057 440 1117 l 321 1261 b 272 1206 321 1233 311 1206 b 83 1261 217 1206 158 1261 b -40 1057 4 1261 -40 1200 z m 333 0 l 333 993 l 83 993 l 83 0 z "},"J":{"ha":779,"x_min":0,"x_max":0,"o":"m 363 -22 b 703 331 635 -22 703 139 l 703 993 l 453 993 l 453 331 b 349 182 453 236 431 182 b 244 331 267 182 244 236 l 244 414 l 22 414 l 22 331 b 363 -22 22 139 90 -22 z "},"Ĵ":{"ha":779,"x_min":0,"x_max":0,"o":"m 514 1078 l 576 1190 l 579 1190 l 642 1078 l 835 1078 l 686 1289 l 469 1289 l 321 1078 z m 363 -22 b 703 331 635 -22 703 139 l 703 993 l 453 993 l 453 331 b 349 182 453 236 431 182 b 244 331 267 182 244 236 l 244 414 l 22 414 l 22 331 b 363 -22 22 139 90 -22 z "},"K":{"ha":958,"x_min":0,"x_max":0,"o":"m 985 0 l 583 558 l 957 993 l 689 993 l 333 569 l 333 993 l 83 993 l 83 0 l 333 0 l 333 268 l 436 388 l 693 0 z "},"Ķ":{"ha":958,"x_min":0,"x_max":0,"o":"m 957 993 l 689 993 l 333 569 l 333 993 l 83 993 l 83 0 l 333 0 l 333 268 l 436 388 l 693 0 l 985 0 l 583 558 z m 501 -210 b 401 -300 501 -269 460 -293 l 401 -365 b 613 -210 538 -351 613 -293 l 613 -68 l 401 -68 l 401 -210 z "},"L":{"ha":796,"x_min":0,"x_max":0,"o":"m 775 0 l 775 204 l 333 204 l 333 993 l 83 993 l 83 0 z "},"Ĺ":{"ha":796,"x_min":0,"x_max":0,"o":"m 296 1078 l 453 1289 l 203 1289 l 129 1078 z m 775 0 l 775 204 l 333 204 l 333 993 l 83 993 l 83 0 z "},"Ľ":{"ha":796,"x_min":0,"x_max":0,"o":"m 775 0 l 775 204 l 333 204 l 333 993 l 83 993 l 83 0 z m 621 707 l 739 993 l 503 993 l 468 707 z "},"Ļ":{"ha":796,"x_min":0,"x_max":0,"o":"m 333 993 l 83 993 l 83 0 l 775 0 l 775 204 l 333 204 z m 424 -210 b 324 -300 424 -269 382 -293 l 324 -365 b 535 -210 460 -351 535 -293 l 535 -68 l 324 -68 l 324 -210 z "},"Ł":{"ha":860,"x_min":0,"x_max":0,"o":"m 397 506 l 618 668 l 618 831 l 397 668 l 397 993 l 147 993 l 147 483 l 35 400 l 35 238 l 147 321 l 147 0 l 839 0 l 839 204 l 397 204 z "},"M":{"ha":1189,"x_min":0,"x_max":0,"o":"m 319 0 l 319 618 l 322 618 l 507 0 l 682 0 l 867 618 l 869 618 l 869 0 l 1106 0 l 1106 993 l 800 993 l 596 360 l 593 360 l 389 993 l 83 993 l 83 0 z "},"N":{"ha":1017,"x_min":0,"x_max":0,"o":"m 333 0 l 333 590 l 336 590 l 683 0 l 933 0 l 933 993 l 683 993 l 683 403 l 681 403 l 333 993 l 83 993 l 83 0 z "},"Ń":{"ha":1017,"x_min":0,"x_max":0,"o":"m 592 1078 l 749 1289 l 499 1289 l 425 1078 z m 333 0 l 333 590 l 336 590 l 683 0 l 933 0 l 933 993 l 683 993 l 683 403 l 681 403 l 333 993 l 83 993 l 83 0 z "},"Ň":{"ha":1017,"x_min":0,"x_max":0,"o":"m 617 1078 l 765 1289 l 572 1289 l 510 1176 l 507 1176 l 444 1289 l 251 1289 l 400 1078 z m 333 0 l 333 590 l 336 590 l 683 0 l 933 0 l 933 993 l 683 993 l 683 403 l 681 403 l 333 993 l 83 993 l 83 0 z "},"Ņ":{"ha":1017,"x_min":0,"x_max":0,"o":"m 683 403 l 681 403 l 333 993 l 83 993 l 83 0 l 333 0 l 333 590 l 336 590 l 683 0 l 933 0 l 933 993 l 683 993 z m 503 -210 b 403 -300 503 -269 461 -293 l 403 -365 b 614 -210 539 -351 614 -293 l 614 -68 l 403 -68 l 403 -210 z "},"Ñ":{"ha":1017,"x_min":0,"x_max":0,"o":"m 381 1057 b 428 1111 381 1083 389 1111 b 617 1057 482 1111 542 1057 b 740 1261 696 1057 740 1117 l 621 1261 b 572 1206 621 1233 611 1206 b 383 1261 517 1206 458 1261 b 260 1057 304 1261 260 1200 z m 333 0 l 333 590 l 336 590 l 683 0 l 933 0 l 933 993 l 683 993 l 683 403 l 681 403 l 333 993 l 83 993 l 83 0 z "},"Ŋ":{"ha":1017,"x_min":0,"x_max":0,"o":"m 657 -246 b 933 64 857 -246 933 -122 l 933 993 l 683 993 l 683 403 l 681 403 l 333 993 l 83 993 l 83 0 l 333 0 l 333 590 l 336 590 l 683 0 b 521 -69 660 -50 632 -69 l 521 -232 b 657 -246 565 -242 610 -246 z "},"O":{"ha":1067,"x_min":0,"x_max":0,"o":"m 533 -22 b 1025 497 846 -22 1025 197 b 533 1015 1025 796 846 1015 b 42 497 218 1015 42 796 b 533 -22 42 197 218 -22 z m 533 182 b 297 497 351 182 297 324 b 533 811 297 669 351 811 b 769 497 714 811 769 669 b 533 182 769 324 714 182 z "},"Ó":{"ha":1067,"x_min":0,"x_max":0,"o":"m 617 1078 l 774 1289 l 524 1289 l 450 1078 z m 533 -22 b 1025 497 846 -22 1025 197 b 533 1015 1025 796 846 1015 b 42 497 218 1015 42 796 b 533 -22 42 197 218 -22 z m 533 182 b 297 497 351 182 297 324 b 533 811 297 669 351 811 b 769 497 714 811 769 669 b 533 182 769 324 714 182 z "},"Ô":{"ha":1067,"x_min":0,"x_max":0,"o":"m 469 1078 l 532 1190 l 535 1190 l 597 1078 l 790 1078 l 642 1289 l 425 1289 l 276 1078 z m 533 -22 b 1025 497 846 -22 1025 197 b 533 1015 1025 796 846 1015 b 42 497 218 1015 42 796 b 533 -22 42 197 218 -22 z m 533 182 b 297 497 351 182 297 324 b 533 811 297 669 351 811 b 769 497 714 811 769 669 b 533 182 769 324 714 182 z "},"Ö":{"ha":1067,"x_min":0,"x_max":0,"o":"m 500 1078 l 500 1275 l 278 1275 l 278 1078 z m 789 1078 l 789 1275 l 567 1275 l 567 1078 z m 533 -22 b 1025 497 846 -22 1025 197 b 533 1015 1025 796 846 1015 b 42 497 218 1015 42 796 b 533 -22 42 197 218 -22 z m 533 182 b 297 497 351 182 297 324 b 533 811 297 669 351 811 b 769 497 714 811 769 669 b 533 182 769 324 714 182 z "},"Ò":{"ha":1067,"x_min":0,"x_max":0,"o":"m 614 1081 l 540 1292 l 318 1292 l 447 1081 z m 533 -22 b 1025 497 846 -22 1025 197 b 533 1015 1025 796 846 1015 b 42 497 218 1015 42 796 b 533 -22 42 197 218 -22 z m 533 182 b 297 497 351 182 297 324 b 533 811 297 669 351 811 b 769 497 714 811 769 669 b 533 182 769 324 714 182 z "},"Ő":{"ha":1067,"x_min":0,"x_max":0,"o":"m 485 1078 l 625 1289 l 410 1289 l 325 1078 z m 729 1078 l 897 1289 l 682 1289 l 569 1078 z m 533 -22 b 1025 497 846 -22 1025 197 b 533 1015 1025 796 846 1015 b 42 497 218 1015 42 796 b 533 -22 42 197 218 -22 z m 533 182 b 297 497 351 182 297 324 b 533 811 297 669 351 811 b 769 497 714 811 769 669 b 533 182 769 324 714 182 z "},"Ō":{"ha":1067,"x_min":0,"x_max":0,"o":"m 732 1078 l 732 1217 l 335 1217 l 335 1078 z m 533 -22 b 1025 497 846 -22 1025 197 b 533 1015 1025 796 846 1015 b 42 497 218 1015 42 796 b 533 -22 42 197 218 -22 z m 533 182 b 297 497 351 182 297 324 b 533 811 297 669 351 811 b 769 497 714 811 769 669 b 533 182 769 324 714 182 z "},"Ø":{"ha":1071,"x_min":0,"x_max":0,"o":"m 971 993 l 872 894 b 536 1015 790 971 676 1015 b 44 497 221 1015 44 796 b 142 163 44 367 78 250 l 42 61 l 100 1 l 197 99 b 536 -22 279 22 394 -22 b 1028 497 849 -22 1028 197 b 928 832 1028 628 993 743 l 1031 935 z m 300 497 b 536 811 300 669 354 811 b 711 733 618 811 675 782 l 319 340 b 300 497 306 386 300 440 z m 772 497 b 536 182 772 324 717 182 b 358 261 453 182 396 213 l 751 654 b 772 497 767 608 772 554 z "},"Õ":{"ha":1067,"x_min":0,"x_max":0,"o":"m 406 1057 b 453 1111 406 1083 414 1111 b 642 1057 507 1111 567 1057 b 765 1261 721 1057 765 1117 l 646 1261 b 597 1206 646 1233 636 1206 b 408 1261 542 1206 483 1261 b 285 1057 329 1261 285 1200 z m 533 -22 b 1025 497 846 -22 1025 197 b 533 1015 1025 796 846 1015 b 42 497 218 1015 42 796 b 533 -22 42 197 218 -22 z m 533 182 b 297 497 351 182 297 324 b 533 811 297 669 351 811 b 769 497 714 811 769 669 b 533 182 769 324 714 182 z "},"Œ":{"ha":1586,"x_min":0,"x_max":0,"o":"m 1028 408 l 1461 408 l 1461 613 l 1028 613 l 1028 789 l 1531 789 l 1531 993 l 778 993 l 778 882 b 493 1015 715 960 624 1015 b 43 497 219 1015 43 796 b 493 -22 43 197 219 -22 b 778 111 624 -22 715 33 l 778 0 l 1539 0 l 1539 204 l 1028 204 z m 535 182 b 299 497 353 182 299 324 b 535 811 299 669 353 811 b 776 497 688 811 776 669 b 535 182 776 324 688 182 z "},"P":{"ha":924,"x_min":0,"x_max":0,"o":"m 333 0 l 333 360 l 565 360 b 901 676 772 360 901 468 b 565 993 901 885 772 993 l 83 993 l 83 0 z m 333 564 l 333 789 l 507 789 b 646 676 593 789 646 760 b 507 564 646 593 593 564 z "},"Þ":{"ha":924,"x_min":0,"x_max":0,"o":"m 333 0 l 333 221 l 565 221 b 901 538 772 221 901 329 b 565 854 901 746 772 854 l 333 854 l 333 993 l 83 993 l 83 0 z m 333 425 l 333 650 l 513 650 b 651 538 599 650 651 621 b 513 425 651 454 599 425 z "},"Q":{"ha":1067,"x_min":0,"x_max":0,"o":"m 1025 497 b 533 1015 1025 796 846 1015 b 42 497 218 1015 42 796 b 533 -22 42 197 218 -22 b 756 22 617 -22 692 -7 l 881 -104 l 1001 21 l 897 126 b 1025 497 981 218 1025 347 z m 533 182 b 297 497 351 182 297 324 b 533 811 297 669 351 811 b 769 497 714 811 769 669 b 731 294 769 421 758 350 l 594 432 l 474 307 l 592 188 b 533 182 574 183 554 182 z "},"R":{"ha":956,"x_min":0,"x_max":0,"o":"m 333 0 l 333 346 l 489 346 b 660 0 701 346 611 42 l 919 0 l 919 14 b 704 458 863 31 953 415 l 704 461 b 906 710 828 489 906 571 b 551 993 906 890 772 993 l 83 993 l 83 0 z m 333 550 l 333 789 l 503 789 b 656 669 603 789 656 753 b 503 550 656 586 603 550 z "},"Ŕ":{"ha":956,"x_min":0,"x_max":0,"o":"m 543 1078 l 700 1289 l 450 1289 l 376 1078 z m 333 0 l 333 346 l 489 346 b 660 0 701 346 611 42 l 919 0 l 919 14 b 704 458 863 31 953 415 l 704 461 b 906 710 828 489 906 571 b 551 993 906 890 772 993 l 83 993 l 83 0 z m 333 550 l 333 789 l 503 789 b 656 669 603 789 656 753 b 503 550 656 586 603 550 z "},"Ř":{"ha":956,"x_min":0,"x_max":0,"o":"m 568 1078 l 717 1289 l 524 1289 l 461 1176 l 458 1176 l 396 1289 l 203 1289 l 351 1078 z m 333 0 l 333 346 l 489 346 b 660 0 701 346 611 42 l 919 0 l 919 14 b 704 458 863 31 953 415 l 704 461 b 906 710 828 489 906 571 b 551 993 906 890 772 993 l 83 993 l 83 0 z m 333 550 l 333 789 l 503 789 b 656 669 603 789 656 753 b 503 550 656 586 603 550 z "},"Ŗ":{"ha":956,"x_min":0,"x_max":0,"o":"m 704 461 b 906 710 828 489 906 571 b 551 993 906 890 772 993 l 83 993 l 83 0 l 333 0 l 333 346 l 489 346 b 660 0 701 346 611 42 l 919 0 l 919 14 b 704 458 863 31 953 415 z m 333 550 l 333 789 l 503 789 b 656 669 603 789 656 753 b 503 550 656 586 603 550 z m 496 -210 b 396 -300 496 -269 454 -293 l 396 -365 b 607 -210 532 -351 607 -293 l 607 -68 l 396 -68 l 396 -210 z "},"S":{"ha":913,"x_min":0,"x_max":0,"o":"m 483 -22 b 876 292 732 -22 876 101 b 496 606 876 497 683 550 b 314 732 369 643 314 665 b 442 814 314 789 367 814 b 610 692 538 814 599 768 l 863 692 b 442 1015 856 893 674 1015 b 58 714 228 1015 58 931 b 385 417 58 536 213 469 b 621 268 522 375 621 353 b 481 179 621 217 574 179 b 281 338 368 179 281 222 l 28 338 b 483 -22 28 110 224 -22 z "},"Ś":{"ha":913,"x_min":0,"x_max":0,"o":"m 538 1078 l 694 1289 l 444 1289 l 371 1078 z m 483 -22 b 876 292 732 -22 876 101 b 496 606 876 497 683 550 b 314 732 369 643 314 665 b 442 814 314 789 367 814 b 610 692 538 814 599 768 l 863 692 b 442 1015 856 893 674 1015 b 58 714 228 1015 58 931 b 385 417 58 536 213 469 b 621 268 522 375 621 353 b 481 179 621 217 574 179 b 281 338 368 179 281 222 l 28 338 b 483 -22 28 110 224 -22 z "},"Š":{"ha":913,"x_min":0,"x_max":0,"o":"m 563 1078 l 711 1289 l 518 1289 l 456 1176 l 453 1176 l 390 1289 l 197 1289 l 346 1078 z m 483 -22 b 876 292 732 -22 876 101 b 496 606 876 497 683 550 b 314 732 369 643 314 665 b 442 814 314 789 367 814 b 610 692 538 814 599 768 l 863 692 b 442 1015 856 893 674 1015 b 58 714 228 1015 58 931 b 385 417 58 536 213 469 b 621 268 522 375 621 353 b 481 179 621 217 574 179 b 281 338 368 179 281 222 l 28 338 b 483 -22 28 110 224 -22 z "},"Ş":{"ha":913,"x_min":0,"x_max":0,"o":"m 525 -21 b 876 292 747 -8 876 113 b 496 606 876 497 683 550 b 314 732 369 643 314 665 b 442 814 314 789 367 814 b 610 692 538 814 599 768 l 863 692 b 442 1015 856 893 674 1015 b 58 714 228 1015 58 931 b 385 417 58 536 213 469 b 621 268 522 375 621 353 b 481 179 621 217 574 179 b 281 338 368 179 281 222 l 28 338 b 422 -19 28 128 194 -1 l 360 -86 l 393 -133 b 444 -124 408 -128 425 -124 b 492 -161 474 -124 492 -135 b 428 -201 492 -190 461 -201 b 340 -181 394 -201 367 -193 l 299 -229 b 454 -275 338 -256 389 -275 b 636 -162 553 -275 636 -235 b 488 -69 636 -90 563 -61 l 488 -67 z "},"Ŝ":{"ha":913,"x_min":0,"x_max":0,"o":"m 390 1078 l 453 1190 l 456 1190 l 518 1078 l 711 1078 l 563 1289 l 346 1289 l 197 1078 z m 483 -22 b 876 292 732 -22 876 101 b 496 606 876 497 683 550 b 314 732 369 643 314 665 b 442 814 314 789 367 814 b 610 692 538 814 599 768 l 863 692 b 442 1015 856 893 674 1015 b 58 714 228 1015 58 931 b 385 417 58 536 213 469 b 621 268 522 375 621 353 b 481 179 621 217 574 179 b 281 338 368 179 281 222 l 28 338 b 483 -22 28 110 224 -22 z "},"Ș":{"ha":913,"x_min":0,"x_max":0,"o":"m 496 606 b 314 732 369 643 314 665 b 442 814 314 789 367 814 b 610 692 538 814 599 768 l 863 692 b 442 1015 856 893 674 1015 b 58 714 228 1015 58 931 b 385 417 58 536 213 469 b 621 268 522 375 621 353 b 481 179 621 217 574 179 b 281 338 368 179 281 222 l 28 338 b 483 -22 28 110 224 -22 b 876 292 732 -22 876 101 b 496 606 876 497 683 550 z m 476 -210 b 376 -300 476 -269 435 -293 l 376 -365 b 588 -210 513 -351 588 -293 l 588 -68 l 376 -68 l 376 -210 z "},"T":{"ha":868,"x_min":0,"x_max":0,"o":"m 560 0 l 560 789 l 847 789 l 847 993 l 21 993 l 21 789 l 310 789 l 310 0 z "},"Ŧ":{"ha":868,"x_min":0,"x_max":0,"o":"m 847 993 l 21 993 l 21 789 l 310 789 l 310 576 l 132 576 l 132 451 l 310 451 l 310 0 l 560 0 l 560 451 l 754 451 l 754 576 l 560 576 l 560 789 l 847 789 z "},"Ť":{"ha":868,"x_min":0,"x_max":0,"o":"m 543 1078 l 692 1289 l 499 1289 l 436 1176 l 433 1176 l 371 1289 l 178 1289 l 326 1078 z m 560 0 l 560 789 l 847 789 l 847 993 l 21 993 l 21 789 l 310 789 l 310 0 z "},"Ţ":{"ha":868,"x_min":0,"x_max":0,"o":"m 560 0 l 560 789 l 847 789 l 847 993 l 21 993 l 21 789 l 310 789 l 310 0 l 394 0 l 313 -86 l 346 -133 b 397 -124 361 -128 378 -124 b 444 -161 426 -124 444 -135 b 381 -201 444 -190 414 -201 b 293 -181 347 -201 319 -193 l 251 -229 b 407 -275 290 -256 342 -275 b 589 -162 506 -275 589 -235 b 440 -69 589 -90 515 -61 l 440 -67 l 494 0 z "},"Ț":{"ha":868,"x_min":0,"x_max":0,"o":"m 21 789 l 310 789 l 310 0 l 560 0 l 560 789 l 847 789 l 847 993 l 21 993 z m 429 -210 b 329 -300 429 -269 388 -293 l 329 -365 b 540 -210 465 -351 540 -293 l 540 -68 l 329 -68 l 329 -210 z "},"U":{"ha":981,"x_min":0,"x_max":0,"o":"m 490 -22 b 906 358 790 -22 906 111 l 906 993 l 656 993 l 656 358 b 490 182 656 229 600 182 b 325 358 381 182 325 229 l 325 993 l 75 993 l 75 358 b 490 -22 75 111 190 -22 z "},"Ú":{"ha":981,"x_min":0,"x_max":0,"o":"m 574 1078 l 731 1289 l 481 1289 l 407 1078 z m 490 -22 b 906 358 790 -22 906 111 l 906 993 l 656 993 l 656 358 b 490 182 656 229 600 182 b 325 358 381 182 325 229 l 325 993 l 75 993 l 75 358 b 490 -22 75 111 190 -22 z "},"Ŭ":{"ha":981,"x_min":0,"x_max":0,"o":"m 490 1067 b 713 1278 619 1067 707 1153 l 585 1278 b 490 1203 581 1232 550 1203 b 396 1278 431 1203 400 1232 l 268 1278 b 490 1067 272 1149 364 1067 z m 490 -22 b 906 358 790 -22 906 111 l 906 993 l 656 993 l 656 358 b 490 182 656 229 600 182 b 325 358 381 182 325 229 l 325 993 l 75 993 l 75 358 b 490 -22 75 111 190 -22 z "},"Û":{"ha":981,"x_min":0,"x_max":0,"o":"m 426 1078 l 489 1190 l 492 1190 l 554 1078 l 747 1078 l 599 1289 l 382 1289 l 233 1078 z m 490 -22 b 906 358 790 -22 906 111 l 906 993 l 656 993 l 656 358 b 490 182 656 229 600 182 b 325 358 381 182 325 229 l 325 993 l 75 993 l 75 358 b 490 -22 75 111 190 -22 z "},"Ü":{"ha":981,"x_min":0,"x_max":0,"o":"m 457 1078 l 457 1275 l 235 1275 l 235 1078 z m 746 1078 l 746 1275 l 524 1275 l 524 1078 z m 490 -22 b 906 358 790 -22 906 111 l 906 993 l 656 993 l 656 358 b 490 182 656 229 600 182 b 325 358 381 182 325 229 l 325 993 l 75 993 l 75 358 b 490 -22 75 111 190 -22 z "},"Ù":{"ha":981,"x_min":0,"x_max":0,"o":"m 571 1081 l 497 1292 l 275 1292 l 404 1081 z m 490 -22 b 906 358 790 -22 906 111 l 906 993 l 656 993 l 656 358 b 490 182 656 229 600 182 b 325 358 381 182 325 229 l 325 993 l 75 993 l 75 358 b 490 -22 75 111 190 -22 z "},"Ű":{"ha":981,"x_min":0,"x_max":0,"o":"m 442 1078 l 582 1289 l 367 1289 l 282 1078 z m 686 1078 l 854 1289 l 639 1289 l 526 1078 z m 490 -22 b 906 358 790 -22 906 111 l 906 993 l 656 993 l 656 358 b 490 182 656 229 600 182 b 325 358 381 182 325 229 l 325 993 l 75 993 l 75 358 b 490 -22 75 111 190 -22 z "},"Ū":{"ha":981,"x_min":0,"x_max":0,"o":"m 689 1078 l 689 1217 l 292 1217 l 292 1078 z m 490 -22 b 906 358 790 -22 906 111 l 906 993 l 656 993 l 656 358 b 490 182 656 229 600 182 b 325 358 381 182 325 229 l 325 993 l 75 993 l 75 358 b 490 -22 75 111 190 -22 z "},"Ų":{"ha":981,"x_min":0,"x_max":0,"o":"m 656 358 b 490 182 656 229 600 182 b 325 358 381 182 325 229 l 325 993 l 75 993 l 75 358 b 461 -22 75 119 183 -14 b 403 -128 429 -46 403 -81 b 561 -244 403 -203 457 -244 b 674 -229 600 -244 642 -237 l 674 -104 b 617 -114 654 -110 635 -114 b 574 -83 589 -114 574 -104 b 625 -11 574 -58 596 -36 b 906 358 825 25 906 153 l 906 993 l 656 993 z "},"Ů":{"ha":981,"x_min":0,"x_max":0,"o":"m 490 1031 b 643 1181 574 1031 643 1088 b 490 1331 643 1272 574 1331 b 338 1181 408 1331 338 1272 b 490 1031 338 1088 408 1031 z m 490 1117 b 432 1181 457 1117 432 1139 b 490 1244 432 1222 457 1244 b 550 1181 528 1244 550 1222 b 490 1117 550 1139 528 1117 z m 490 -22 b 906 358 790 -22 906 111 l 906 993 l 656 993 l 656 358 b 490 182 656 229 600 182 b 325 358 381 182 325 229 l 325 993 l 75 993 l 75 358 b 490 -22 75 111 190 -22 z "},"Ũ":{"ha":981,"x_min":0,"x_max":0,"o":"m 363 1057 b 410 1111 363 1083 371 1111 b 599 1057 464 1111 524 1057 b 722 1261 678 1057 722 1117 l 603 1261 b 554 1206 603 1233 593 1206 b 365 1261 499 1206 440 1261 b 242 1057 286 1261 242 1200 z m 490 -22 b 906 358 790 -22 906 111 l 906 993 l 656 993 l 656 358 b 490 182 656 229 600 182 b 325 358 381 182 325 229 l 325 993 l 75 993 l 75 358 b 490 -22 75 111 190 -22 z "},"V":{"ha":929,"x_min":0,"x_max":0,"o":"m 599 0 l 921 993 l 657 993 l 468 297 l 465 297 l 278 993 l 4 993 l 335 0 z "},"W":{"ha":1328,"x_min":0,"x_max":0,"o":"m 514 0 l 663 619 l 665 619 l 814 0 l 1064 0 l 1317 993 l 1067 993 l 939 319 l 936 319 l 782 993 l 546 993 l 392 319 l 389 319 l 261 993 l 11 993 l 264 0 z "},"Ẃ":{"ha":1328,"x_min":0,"x_max":0,"o":"m 747 1078 l 904 1289 l 654 1289 l 581 1078 z m 514 0 l 663 619 l 665 619 l 814 0 l 1064 0 l 1317 993 l 1067 993 l 939 319 l 936 319 l 782 993 l 546 993 l 392 319 l 389 319 l 261 993 l 11 993 l 264 0 z "},"Ŵ":{"ha":1328,"x_min":0,"x_max":0,"o":"m 600 1078 l 663 1190 l 665 1190 l 728 1078 l 921 1078 l 772 1289 l 556 1289 l 407 1078 z m 514 0 l 663 619 l 665 619 l 814 0 l 1064 0 l 1317 993 l 1067 993 l 939 319 l 936 319 l 782 993 l 546 993 l 392 319 l 389 319 l 261 993 l 11 993 l 264 0 z "},"Ẅ":{"ha":1328,"x_min":0,"x_max":0,"o":"m 631 1078 l 631 1275 l 408 1275 l 408 1078 z m 919 1078 l 919 1275 l 697 1275 l 697 1078 z m 514 0 l 663 619 l 665 619 l 814 0 l 1064 0 l 1317 993 l 1067 993 l 939 319 l 936 319 l 782 993 l 546 993 l 392 319 l 389 319 l 261 993 l 11 993 l 264 0 z "},"Ẁ":{"ha":1328,"x_min":0,"x_max":0,"o":"m 744 1081 l 671 1292 l 449 1292 l 578 1081 z m 514 0 l 663 619 l 665 619 l 814 0 l 1064 0 l 1317 993 l 1067 993 l 939 319 l 936 319 l 782 993 l 546 993 l 392 319 l 389 319 l 261 993 l 11 993 l 264 0 z "},"X":{"ha":926,"x_min":0,"x_max":0,"o":"m 265 0 l 461 322 l 464 322 l 661 0 l 939 0 l 610 510 l 911 993 l 647 993 l 464 690 l 461 690 l 279 993 l 15 993 l 317 507 l -12 0 z "},"Y":{"ha":926,"x_min":0,"x_max":0,"o":"m 589 0 l 589 367 l 924 993 l 660 993 l 465 571 l 463 571 l 269 993 l 0 993 l 339 367 l 339 0 z "},"Ý":{"ha":926,"x_min":0,"x_max":0,"o":"m 549 1078 l 706 1289 l 456 1289 l 382 1078 z m 589 0 l 589 367 l 924 993 l 660 993 l 465 571 l 463 571 l 269 993 l 0 993 l 339 367 l 339 0 z "},"Ŷ":{"ha":926,"x_min":0,"x_max":0,"o":"m 401 1078 l 464 1190 l 467 1190 l 529 1078 l 722 1078 l 574 1289 l 357 1289 l 208 1078 z m 589 0 l 589 367 l 924 993 l 660 993 l 465 571 l 463 571 l 269 993 l 0 993 l 339 367 l 339 0 z "},"Ÿ":{"ha":926,"x_min":0,"x_max":0,"o":"m 432 1078 l 432 1275 l 210 1275 l 210 1078 z m 721 1078 l 721 1275 l 499 1275 l 499 1078 z m 589 0 l 589 367 l 924 993 l 660 993 l 465 571 l 463 571 l 269 993 l 0 993 l 339 367 l 339 0 z "},"Ỳ":{"ha":926,"x_min":0,"x_max":0,"o":"m 546 1081 l 472 1292 l 250 1292 l 379 1081 z m 589 0 l 589 367 l 924 993 l 660 993 l 465 571 l 463 571 l 269 993 l 0 993 l 339 367 l 339 0 z "},"Z":{"ha":851,"x_min":0,"x_max":0,"o":"m 810 0 l 810 204 l 342 204 l 342 207 l 796 789 l 796 993 l 64 993 l 64 789 l 490 789 l 490 786 l 36 204 l 36 0 z "},"Ź":{"ha":851,"x_min":0,"x_max":0,"o":"m 521 1078 l 678 1289 l 428 1289 l 354 1078 z m 810 0 l 810 204 l 342 204 l 342 207 l 796 789 l 796 993 l 64 993 l 64 789 l 490 789 l 490 786 l 36 204 l 36 0 z "},"Ž":{"ha":851,"x_min":0,"x_max":0,"o":"m 546 1078 l 694 1289 l 501 1289 l 439 1176 l 436 1176 l 374 1289 l 181 1289 l 329 1078 z m 810 0 l 810 204 l 342 204 l 342 207 l 796 789 l 796 993 l 64 993 l 64 789 l 490 789 l 490 786 l 36 204 l 36 0 z "},"Ż":{"ha":851,"x_min":0,"x_max":0,"o":"m 549 1078 l 549 1275 l 326 1275 l 326 1078 z m 810 0 l 810 204 l 342 204 l 342 207 l 796 789 l 796 993 l 64 993 l 64 789 l 490 789 l 490 786 l 36 204 l 36 0 z "},"a":{"ha":783,"x_min":0,"x_max":0,"o":"m 258 -22 b 493 86 361 -22 443 24 l 496 86 b 629 -7 507 26 540 -7 b 751 6 661 -7 707 -3 l 751 111 b 733 110 743 110 739 110 b 707 164 711 110 707 126 l 707 439 b 407 735 707 657 600 735 b 60 482 167 735 67 618 l 271 482 b 397 585 278 551 315 585 b 492 521 461 585 492 560 b 304 422 492 450 382 439 b 32 186 153 390 32 333 b 258 -22 32 60 119 -22 z m 351 131 b 260 210 294 131 260 156 b 371 314 260 260 289 294 b 492 347 429 328 463 336 l 492 288 b 351 131 492 206 440 131 z "},"á":{"ha":783,"x_min":0,"x_max":0,"o":"m 479 796 l 636 1007 l 386 1007 l 313 796 z m 258 -22 b 493 86 361 -22 443 24 l 496 86 b 629 -7 507 26 540 -7 b 751 6 661 -7 707 -3 l 751 111 b 733 110 743 110 739 110 b 707 164 711 110 707 126 l 707 439 b 407 735 707 657 600 735 b 60 482 167 735 67 618 l 271 482 b 397 585 278 551 315 585 b 492 521 461 585 492 560 b 304 422 492 450 382 439 b 32 186 153 390 32 333 b 258 -22 32 60 119 -22 z m 351 131 b 260 210 294 131 260 156 b 371 314 260 260 289 294 b 492 347 429 328 463 336 l 492 288 b 351 131 492 206 440 131 z "},"ă":{"ha":783,"x_min":0,"x_max":0,"o":"m 396 785 b 618 996 525 785 613 871 l 490 996 b 396 921 486 950 456 921 b 301 996 336 921 306 950 l 174 996 b 396 785 178 867 269 785 z m 258 -22 b 493 86 361 -22 443 24 l 496 86 b 629 -7 507 26 540 -7 b 751 6 661 -7 707 -3 l 751 111 b 733 110 743 110 739 110 b 707 164 711 110 707 126 l 707 439 b 407 735 707 657 600 735 b 60 482 167 735 67 618 l 271 482 b 397 585 278 551 315 585 b 492 521 461 585 492 560 b 304 422 492 450 382 439 b 32 186 153 390 32 333 b 258 -22 32 60 119 -22 z m 351 131 b 260 210 294 131 260 156 b 371 314 260 260 289 294 b 492 347 429 328 463 336 l 492 288 b 351 131 492 206 440 131 z "},"â":{"ha":783,"x_min":0,"x_max":0,"o":"m 332 796 l 394 908 l 397 908 l 460 796 l 653 796 l 504 1007 l 288 1007 l 139 796 z m 258 -22 b 493 86 361 -22 443 24 l 496 86 b 629 -7 507 26 540 -7 b 751 6 661 -7 707 -3 l 751 111 b 733 110 743 110 739 110 b 707 164 711 110 707 126 l 707 439 b 407 735 707 657 600 735 b 60 482 167 735 67 618 l 271 482 b 397 585 278 551 315 585 b 492 521 461 585 492 560 b 304 422 492 450 382 439 b 32 186 153 390 32 333 b 258 -22 32 60 119 -22 z m 351 131 b 260 210 294 131 260 156 b 371 314 260 260 289 294 b 492 347 429 328 463 336 l 492 288 b 351 131 492 206 440 131 z "},"ä":{"ha":783,"x_min":0,"x_max":0,"o":"m 363 796 l 363 993 l 140 993 l 140 796 z m 651 796 l 651 993 l 429 993 l 429 796 z m 258 -22 b 493 86 361 -22 443 24 l 496 86 b 629 -7 507 26 540 -7 b 751 6 661 -7 707 -3 l 751 111 b 733 110 743 110 739 110 b 707 164 711 110 707 126 l 707 439 b 407 735 707 657 600 735 b 60 482 167 735 67 618 l 271 482 b 397 585 278 551 315 585 b 492 521 461 585 492 560 b 304 422 492 450 382 439 b 32 186 153 390 32 333 b 258 -22 32 60 119 -22 z m 351 131 b 260 210 294 131 260 156 b 371 314 260 260 289 294 b 492 347 429 328 463 336 l 492 288 b 351 131 492 206 440 131 z "},"à":{"ha":783,"x_min":0,"x_max":0,"o":"m 476 799 l 403 1010 l 181 1010 l 310 799 z m 258 -22 b 493 86 361 -22 443 24 l 496 86 b 629 -7 507 26 540 -7 b 751 6 661 -7 707 -3 l 751 111 b 733 110 743 110 739 110 b 707 164 711 110 707 126 l 707 439 b 407 735 707 657 600 735 b 60 482 167 735 67 618 l 271 482 b 397 585 278 551 315 585 b 492 521 461 585 492 560 b 304 422 492 450 382 439 b 32 186 153 390 32 333 b 258 -22 32 60 119 -22 z m 351 131 b 260 210 294 131 260 156 b 371 314 260 260 289 294 b 492 347 429 328 463 336 l 492 288 b 351 131 492 206 440 131 z "},"ā":{"ha":783,"x_min":0,"x_max":0,"o":"m 594 796 l 594 935 l 197 935 l 197 796 z m 258 -22 b 493 86 361 -22 443 24 l 496 86 b 629 -7 507 26 540 -7 b 751 6 661 -7 707 -3 l 751 111 b 733 110 743 110 739 110 b 707 164 711 110 707 126 l 707 439 b 407 735 707 657 600 735 b 60 482 167 735 67 618 l 271 482 b 397 585 278 551 315 585 b 492 521 461 585 492 560 b 304 422 492 450 382 439 b 32 186 153 390 32 333 b 258 -22 32 60 119 -22 z m 351 131 b 260 210 294 131 260 156 b 371 314 260 260 289 294 b 492 347 429 328 463 336 l 492 288 b 351 131 492 206 440 131 z "},"ą":{"ha":783,"x_min":0,"x_max":0,"o":"m 729 -108 b 686 -78 701 -108 686 -99 b 751 6 686 -49 715 -25 l 751 6 l 753 7 l 751 7 l 751 111 b 733 110 743 110 739 110 b 707 164 711 110 707 126 l 707 439 b 407 735 707 657 600 735 b 60 482 167 735 67 618 l 271 482 b 397 585 278 551 315 585 b 492 521 461 585 492 560 b 304 422 492 450 382 439 b 32 186 153 390 32 333 b 258 -22 32 60 119 -22 b 493 86 361 -22 443 24 l 496 86 b 592 -4 506 36 531 4 b 515 -122 553 -28 515 -67 b 674 -239 515 -197 569 -239 b 786 -224 713 -239 754 -232 l 786 -99 b 729 -108 767 -104 747 -108 z m 492 288 b 351 131 492 206 440 131 b 260 210 294 131 260 156 b 371 314 260 260 289 294 b 492 347 429 328 463 336 z "},"å":{"ha":783,"x_min":0,"x_max":0,"o":"m 396 749 b 549 899 479 749 549 806 b 396 1049 549 990 479 1049 b 243 899 314 1049 243 990 b 396 749 243 806 314 749 z m 396 835 b 338 899 363 835 338 857 b 396 963 338 940 363 963 b 456 899 433 963 456 940 b 396 835 456 857 433 835 z m 258 -22 b 493 86 361 -22 443 24 l 496 86 b 629 -7 507 26 540 -7 b 751 6 661 -7 707 -3 l 751 111 b 733 110 743 110 739 110 b 707 164 711 110 707 126 l 707 439 b 407 735 707 657 600 735 b 60 482 167 735 67 618 l 271 482 b 397 585 278 551 315 585 b 492 521 461 585 492 560 b 304 422 492 450 382 439 b 32 186 153 390 32 333 b 258 -22 32 60 119 -22 z m 351 131 b 260 210 294 131 260 156 b 371 314 260 260 289 294 b 492 347 429 328 463 336 l 492 288 b 351 131 492 206 440 131 z "},"ã":{"ha":783,"x_min":0,"x_max":0,"o":"m 268 775 b 315 829 268 801 276 829 b 504 775 369 829 429 775 b 628 979 583 775 628 835 l 508 979 b 460 924 508 951 499 924 b 271 979 404 924 346 979 b 147 775 192 979 147 918 z m 258 -22 b 493 86 361 -22 443 24 l 496 86 b 629 -7 507 26 540 -7 b 751 6 661 -7 707 -3 l 751 111 b 733 110 743 110 739 110 b 707 164 711 110 707 126 l 707 439 b 407 735 707 657 600 735 b 60 482 167 735 67 618 l 271 482 b 397 585 278 551 315 585 b 492 521 461 585 492 560 b 304 422 492 450 382 439 b 32 186 153 390 32 333 b 258 -22 32 60 119 -22 z m 351 131 b 260 210 294 131 260 156 b 371 314 260 260 289 294 b 492 347 429 328 463 336 l 492 288 b 351 131 492 206 440 131 z "},"æ":{"ha":1249,"x_min":0,"x_max":0,"o":"m 1217 329 b 853 735 1217 592 1094 735 b 629 668 763 735 688 710 b 396 735 574 715 490 735 b 60 482 169 735 67 619 l 271 482 b 397 585 278 551 315 585 b 492 521 461 585 492 560 b 304 422 492 450 382 439 b 32 186 153 390 32 333 b 293 -22 32 64 115 -22 b 569 96 403 -22 492 8 b 853 -24 633 21 729 -24 b 1211 215 1053 -24 1171 71 l 985 215 b 858 143 971 179 938 143 b 706 296 775 143 706 197 l 1217 296 z m 707 433 b 853 574 713 525 768 574 b 993 433 939 574 993 525 z m 485 278 b 349 131 485 200 439 131 b 260 214 294 131 260 156 b 371 314 260 258 289 296 b 483 346 421 325 456 335 b 485 318 483 336 485 326 z "},"b":{"ha":835,"x_min":0,"x_max":0,"o":"m 492 733 b 286 640 389 733 314 678 l 283 640 l 283 993 l 61 993 l 61 0 l 283 0 l 283 71 l 286 71 b 492 -22 314 33 389 -22 b 801 356 681 -22 801 122 b 492 733 801 589 681 733 z m 431 144 b 288 356 340 144 288 217 b 431 567 288 494 340 567 b 574 356 521 567 574 494 b 431 144 574 217 521 144 z "},"c":{"ha":763,"x_min":0,"x_max":0,"o":"m 397 -24 b 740 268 601 -24 729 99 l 517 268 b 396 143 510 203 483 143 b 258 356 303 143 258 222 b 396 568 258 489 304 568 b 517 446 485 568 510 504 l 740 446 b 392 735 722 613 597 735 b 31 356 172 735 31 576 b 397 -24 31 133 172 -24 z "},"ć":{"ha":763,"x_min":0,"x_max":0,"o":"m 475 796 l 632 1007 l 382 1007 l 308 796 z m 397 -24 b 740 268 601 -24 729 99 l 517 268 b 396 143 510 203 483 143 b 258 356 303 143 258 222 b 396 568 258 489 304 568 b 517 446 485 568 510 504 l 740 446 b 392 735 722 613 597 735 b 31 356 172 735 31 576 b 397 -24 31 133 172 -24 z "},"č":{"ha":763,"x_min":0,"x_max":0,"o":"m 500 796 l 649 1007 l 456 1007 l 393 894 l 390 894 l 328 1007 l 135 1007 l 283 796 z m 397 -24 b 740 268 601 -24 729 99 l 517 268 b 396 143 510 203 483 143 b 258 356 303 143 258 222 b 396 568 258 489 304 568 b 517 446 485 568 510 504 l 740 446 b 392 735 722 613 597 735 b 31 356 172 735 31 576 b 397 -24 31 133 172 -24 z "},"ç":{"ha":763,"x_min":0,"x_max":0,"o":"m 396 143 b 258 356 303 143 258 222 b 396 568 258 489 304 568 b 517 446 485 568 510 504 l 740 446 b 392 735 722 613 597 735 b 31 356 172 735 31 576 b 339 -19 31 153 149 4 l 276 -86 l 310 -133 b 361 -124 325 -128 342 -124 b 408 -161 390 -124 408 -135 b 344 -201 408 -190 378 -201 b 257 -181 311 -201 283 -193 l 215 -229 b 371 -275 254 -256 306 -275 b 553 -162 469 -275 553 -235 b 404 -69 553 -90 479 -61 l 404 -67 l 440 -22 b 740 268 619 -6 731 111 l 517 268 b 396 143 510 203 483 143 z "},"ĉ":{"ha":763,"x_min":0,"x_max":0,"o":"m 328 796 l 390 908 l 393 908 l 456 796 l 649 796 l 500 1007 l 283 1007 l 135 796 z m 397 -24 b 740 268 601 -24 729 99 l 517 268 b 396 143 510 203 483 143 b 258 356 303 143 258 222 b 396 568 258 489 304 568 b 517 446 485 568 510 504 l 740 446 b 392 735 722 613 597 735 b 31 356 172 735 31 576 b 397 -24 31 133 172 -24 z "},"ċ":{"ha":763,"x_min":0,"x_max":0,"o":"m 503 796 l 503 993 l 281 993 l 281 796 z m 397 -24 b 740 268 601 -24 729 99 l 517 268 b 396 143 510 203 483 143 b 258 356 303 143 258 222 b 396 568 258 489 304 568 b 517 446 485 568 510 504 l 740 446 b 392 735 722 613 597 735 b 31 356 172 735 31 576 b 397 -24 31 133 172 -24 z "},"d":{"ha":833,"x_min":0,"x_max":0,"o":"m 550 640 l 547 640 b 342 733 519 678 444 733 b 32 356 153 733 32 589 b 342 -22 32 122 153 -22 b 547 71 444 -22 519 33 l 550 71 l 550 0 l 772 0 l 772 993 l 550 993 z m 403 144 b 260 356 313 144 260 217 b 403 567 260 494 313 567 b 546 356 493 567 546 494 b 403 144 546 217 493 144 z "},"ð":{"ha":824,"x_min":0,"x_max":0,"o":"m 719 901 l 697 982 l 551 943 b 478 993 525 965 500 982 l 200 993 b 358 892 263 960 314 925 l 229 857 l 251 776 l 432 825 b 522 674 476 776 506 728 b 349 733 485 708 431 733 b 31 357 178 733 31 594 b 401 -22 31 129 164 -22 b 786 439 683 -22 786 203 b 622 875 786 632 708 779 z m 401 156 b 253 357 311 156 253 224 b 401 557 253 490 311 557 b 550 357 492 557 550 490 b 401 156 550 224 492 156 z "},"ď":{"ha":951,"x_min":0,"x_max":0,"o":"m 547 640 b 342 733 519 678 444 733 b 32 356 153 733 32 589 b 342 -22 32 122 153 -22 b 547 71 444 -22 519 33 l 550 71 l 550 0 l 772 0 l 772 993 l 550 993 l 550 640 z m 814 707 l 967 707 l 1085 993 l 849 993 z m 403 144 b 260 356 313 144 260 217 b 403 567 260 494 313 567 b 546 356 493 567 546 494 b 403 144 546 217 493 144 z "},"đ":{"ha":833,"x_min":0,"x_max":0,"o":"m 772 924 l 772 993 l 550 993 l 550 924 l 364 924 l 364 799 l 550 799 l 550 640 l 547 640 b 342 733 519 678 444 733 b 32 356 153 733 32 589 b 342 -22 32 122 153 -22 b 547 71 444 -22 519 33 l 550 71 l 550 0 l 772 0 l 772 799 l 847 799 l 847 924 z m 403 144 b 260 356 313 144 260 217 b 403 567 260 494 313 567 b 546 356 493 567 546 494 b 403 144 546 217 493 144 z "},"e":{"ha":796,"x_min":0,"x_max":0,"o":"m 764 329 b 400 735 764 592 642 735 b 31 356 161 735 31 564 b 400 -24 31 133 169 -24 b 758 215 600 -24 718 71 l 532 215 b 406 143 518 179 485 143 b 253 296 322 143 253 197 l 764 296 z m 254 433 b 400 574 260 525 315 574 b 540 433 486 574 540 525 z "},"é":{"ha":796,"x_min":0,"x_max":0,"o":"m 388 1007 l 314 796 l 481 796 l 638 1007 z m 764 329 b 400 735 764 592 642 735 b 31 356 161 735 31 564 b 400 -24 31 133 169 -24 b 758 215 600 -24 718 71 l 532 215 b 406 143 518 179 485 143 b 253 296 322 143 253 197 l 764 296 z m 254 433 b 400 574 260 525 315 574 b 540 433 486 574 540 525 z "},"ě":{"ha":796,"x_min":0,"x_max":0,"o":"m 654 1007 l 461 1007 l 399 894 l 396 894 l 333 1007 l 140 1007 l 289 796 l 506 796 z m 764 329 b 400 735 764 592 642 735 b 31 356 161 735 31 564 b 400 -24 31 133 169 -24 b 758 215 600 -24 718 71 l 532 215 b 406 143 518 179 485 143 b 253 296 322 143 253 197 l 764 296 z m 254 433 b 400 574 260 525 315 574 b 540 433 486 574 540 525 z "},"ê":{"ha":796,"x_min":0,"x_max":0,"o":"m 399 908 l 461 796 l 654 796 l 506 1007 l 289 1007 l 140 796 l 333 796 l 396 908 z m 764 329 b 400 735 764 592 642 735 b 31 356 161 735 31 564 b 400 -24 31 133 169 -24 b 758 215 600 -24 718 71 l 532 215 b 406 143 518 179 485 143 b 253 296 322 143 253 197 l 764 296 z m 254 433 b 400 574 260 525 315 574 b 540 433 486 574 540 525 z "},"ë":{"ha":796,"x_min":0,"x_max":0,"o":"m 142 993 l 142 796 l 364 796 l 364 993 z m 431 993 l 431 796 l 653 796 l 653 993 z m 764 329 b 400 735 764 592 642 735 b 31 356 161 735 31 564 b 400 -24 31 133 169 -24 b 758 215 600 -24 718 71 l 532 215 b 406 143 518 179 485 143 b 253 296 322 143 253 197 l 764 296 z m 254 433 b 400 574 260 525 315 574 b 540 433 486 574 540 525 z "},"ė":{"ha":796,"x_min":0,"x_max":0,"o":"m 286 993 l 286 796 l 508 796 l 508 993 z m 764 329 b 400 735 764 592 642 735 b 31 356 161 735 31 564 b 400 -24 31 133 169 -24 b 758 215 600 -24 718 71 l 532 215 b 406 143 518 179 485 143 b 253 296 322 143 253 197 l 764 296 z m 254 433 b 400 574 260 525 315 574 b 540 433 486 574 540 525 z "},"è":{"ha":796,"x_min":0,"x_max":0,"o":"m 404 1010 l 182 1010 l 311 799 l 478 799 z m 764 329 b 400 735 764 592 642 735 b 31 356 161 735 31 564 b 400 -24 31 133 169 -24 b 758 215 600 -24 718 71 l 532 215 b 406 143 518 179 485 143 b 253 296 322 143 253 197 l 764 296 z m 254 433 b 400 574 260 525 315 574 b 540 433 486 574 540 525 z "},"ē":{"ha":796,"x_min":0,"x_max":0,"o":"m 199 935 l 199 796 l 596 796 l 596 935 z m 764 329 b 400 735 764 592 642 735 b 31 356 161 735 31 564 b 400 -24 31 133 169 -24 b 758 215 600 -24 718 71 l 532 215 b 406 143 518 179 485 143 b 253 296 322 143 253 197 l 764 296 z m 254 433 b 400 574 260 525 315 574 b 540 433 486 574 540 525 z "},"ę":{"ha":796,"x_min":0,"x_max":0,"o":"m 764 329 b 400 735 764 592 642 735 b 31 356 161 735 31 564 b 368 -22 31 144 157 -8 b 310 -128 336 -46 310 -82 b 468 -244 310 -203 364 -244 b 581 -229 507 -244 549 -237 l 581 -104 b 524 -114 561 -110 542 -114 b 481 -83 496 -114 481 -104 b 539 -6 481 -57 507 -33 b 758 215 656 29 729 108 l 532 215 b 406 143 518 179 485 143 b 253 296 322 143 253 197 l 764 296 z m 254 433 b 400 574 260 525 315 574 b 540 433 486 574 540 525 z "},"f":{"ha":483,"x_min":0,"x_max":0,"o":"m 414 839 b 469 835 432 839 443 838 l 469 992 b 343 1006 422 1001 385 1006 b 124 761 190 1006 124 935 l 124 711 l 28 711 l 28 544 l 124 544 l 124 0 l 346 0 l 346 544 l 469 544 l 469 711 l 346 711 l 346 756 b 414 839 346 832 375 839 z "},"g":{"ha":811,"x_min":0,"x_max":0,"o":"m 529 640 l 526 640 b 332 733 499 678 436 733 b 33 383 150 733 33 589 b 332 33 33 178 150 33 b 526 126 436 33 499 89 l 529 126 l 529 85 b 396 -94 529 -42 496 -94 b 272 -24 318 -94 286 -62 l 47 -24 b 396 -254 72 -137 175 -254 b 751 85 614 -254 751 -169 l 751 711 l 529 711 z m 393 200 b 261 383 303 200 261 268 b 393 567 261 499 303 567 b 525 383 483 567 525 499 b 393 200 525 268 483 200 z "},"ğ":{"ha":811,"x_min":0,"x_max":0,"o":"m 379 785 b 601 996 508 785 596 871 l 474 996 b 379 921 469 950 439 921 b 285 996 319 921 289 950 l 157 996 b 379 785 161 867 253 785 z m 529 640 l 526 640 b 332 733 499 678 436 733 b 33 383 150 733 33 589 b 332 33 33 178 150 33 b 526 126 436 33 499 89 l 529 126 l 529 85 b 396 -94 529 -42 496 -94 b 272 -24 318 -94 286 -62 l 47 -24 b 396 -254 72 -137 175 -254 b 751 85 614 -254 751 -169 l 751 711 l 529 711 z m 393 200 b 261 383 303 200 261 268 b 393 567 261 499 303 567 b 525 383 483 567 525 499 b 393 200 525 268 483 200 z "},"ĝ":{"ha":811,"x_min":0,"x_max":0,"o":"m 381 908 l 443 796 l 636 796 l 488 1007 l 271 1007 l 122 796 l 315 796 l 378 908 z m 529 640 l 526 640 b 332 733 499 678 436 733 b 33 383 150 733 33 589 b 332 33 33 178 150 33 b 526 126 436 33 499 89 l 529 126 l 529 85 b 396 -94 529 -42 496 -94 b 272 -24 318 -94 286 -62 l 47 -24 b 396 -254 72 -137 175 -254 b 751 85 614 -254 751 -169 l 751 711 l 529 711 z m 393 200 b 261 383 303 200 261 268 b 393 567 261 499 303 567 b 525 383 483 567 525 499 b 393 200 525 268 483 200 z "},"ģ":{"ha":811,"x_min":0,"x_max":0,"o":"m 385 939 b 485 1031 385 999 426 1024 l 485 1096 b 274 939 349 1083 274 1024 l 274 796 l 485 796 l 485 939 z m 529 640 l 526 640 b 332 733 499 678 436 733 b 33 383 150 733 33 589 b 332 33 33 178 150 33 b 526 126 436 33 499 89 l 529 126 l 529 85 b 396 -94 529 -42 496 -94 b 272 -24 318 -94 286 -62 l 47 -24 b 396 -254 72 -137 175 -254 b 751 85 614 -254 751 -169 l 751 711 l 529 711 z m 393 200 b 261 383 303 200 261 268 b 393 567 261 499 303 567 b 525 383 483 567 525 499 b 393 200 525 268 483 200 z "},"ġ":{"ha":811,"x_min":0,"x_max":0,"o":"m 268 993 l 268 796 l 490 796 l 490 993 z m 529 640 l 526 640 b 332 733 499 678 436 733 b 33 383 150 733 33 589 b 332 33 33 178 150 33 b 526 126 436 33 499 89 l 529 126 l 529 85 b 396 -94 529 -42 496 -94 b 272 -24 318 -94 286 -62 l 47 -24 b 396 -254 72 -137 175 -254 b 751 85 614 -254 751 -169 l 751 711 l 529 711 z m 393 200 b 261 383 303 200 261 268 b 393 567 261 499 303 567 b 525 383 483 567 525 499 b 393 200 525 268 483 200 z "},"h":{"ha":807,"x_min":0,"x_max":0,"o":"m 519 733 b 286 608 393 733 324 674 l 283 608 l 283 993 l 61 993 l 61 0 l 283 0 l 283 411 b 417 553 283 510 332 553 b 528 410 490 553 528 517 l 528 0 l 750 0 l 750 481 b 519 733 750 643 657 733 z "},"ħ":{"ha":807,"x_min":0,"x_max":0,"o":"m 519 733 b 286 608 393 733 324 674 l 283 608 l 283 799 l 499 799 l 499 924 l 283 924 l 283 993 l 61 993 l 61 924 l -24 924 l -24 799 l 61 799 l 61 0 l 283 0 l 283 411 b 417 553 283 510 332 553 b 528 410 490 553 528 517 l 528 0 l 750 0 l 750 481 b 519 733 750 643 657 733 z "},"ĥ":{"ha":807,"x_min":0,"x_max":0,"o":"m 174 1142 l 236 1029 l 429 1029 l 281 1240 l 64 1240 l -85 1029 l 108 1029 l 171 1142 z m 519 733 b 286 608 393 733 324 674 l 283 608 l 283 993 l 61 993 l 61 0 l 283 0 l 283 411 b 417 553 283 510 332 553 b 528 410 490 553 528 517 l 528 0 l 750 0 l 750 481 b 519 733 750 643 657 733 z "},"i":{"ha":344,"x_min":0,"x_max":0,"o":"m 283 796 l 283 993 l 61 993 l 61 796 z m 283 0 l 283 711 l 61 711 l 61 0 z "},"ı":{"ha":344,"x_min":0,"x_max":0,"o":"m 283 0 l 283 711 l 61 711 l 61 0 z "},"í":{"ha":344,"x_min":0,"x_max":0,"o":"m 256 796 l 413 1007 l 163 1007 l 89 796 z m 283 0 l 283 711 l 61 711 l 61 0 z "},"î":{"ha":344,"x_min":0,"x_max":0,"o":"m 108 796 l 171 908 l 174 908 l 236 796 l 429 796 l 281 1007 l 64 1007 l -85 796 z m 283 0 l 283 711 l 61 711 l 61 0 z "},"ï":{"ha":344,"x_min":0,"x_max":0,"o":"m 139 796 l 139 993 l -83 993 l -83 796 z m 428 796 l 428 993 l 206 993 l 206 796 z m 283 0 l 283 711 l 61 711 l 61 0 z "},"ì":{"ha":344,"x_min":0,"x_max":0,"o":"m 253 799 l 179 1010 l -43 1010 l 86 799 z m 283 0 l 283 711 l 61 711 l 61 0 z "},"ī":{"ha":344,"x_min":0,"x_max":0,"o":"m 371 796 l 371 935 l -26 935 l -26 796 z m 283 0 l 283 711 l 61 711 l 61 0 z "},"į":{"ha":344,"x_min":0,"x_max":0,"o":"m 61 796 l 283 796 l 283 993 l 61 993 z m 107 0 b 13 -128 63 -21 13 -64 b 171 -244 13 -203 67 -244 b 283 -229 210 -244 251 -237 l 283 -104 b 226 -114 264 -110 244 -114 b 183 -83 199 -114 183 -104 b 249 0 183 -54 213 -31 l 283 0 l 283 711 l 61 711 l 61 0 z "},"ĩ":{"ha":344,"x_min":0,"x_max":0,"o":"m 44 775 b 92 829 44 801 53 829 b 281 775 146 829 206 775 b 404 979 360 775 404 835 l 285 979 b 236 924 285 951 275 924 b 47 979 181 924 122 979 b -76 775 -32 979 -76 918 z m 283 0 l 283 711 l 61 711 l 61 0 z "},"j":{"ha":344,"x_min":0,"x_max":0,"o":"m 283 796 l 283 993 l 61 993 l 61 796 z m 61 -254 b 283 21 224 -254 283 -153 l 283 711 l 61 711 l 61 10 b -11 -75 61 -67 32 -75 b -62 -71 -29 -75 -40 -74 l -62 -240 b 61 -254 -18 -250 19 -254 z "},"ȷ":{"ha":344,"x_min":0,"x_max":0,"o":"m 61 -254 b 283 21 224 -254 283 -153 l 283 711 l 61 711 l 61 10 b -11 -75 61 -67 32 -75 b -62 -71 -29 -75 -40 -74 l -62 -240 b 61 -254 -18 -250 19 -254 z "},"ĵ":{"ha":344,"x_min":0,"x_max":0,"o":"m 108 796 l 171 908 l 174 908 l 236 796 l 429 796 l 281 1007 l 64 1007 l -85 796 z m 61 -254 b 283 21 224 -254 283 -153 l 283 711 l 61 711 l 61 10 b -11 -75 61 -67 32 -75 b -62 -71 -29 -75 -40 -74 l -62 -240 b 61 -254 -18 -250 19 -254 z "},"k":{"ha":758,"x_min":0,"x_max":0,"o":"m 786 0 l 506 444 l 757 711 l 521 711 l 283 447 l 283 993 l 61 993 l 61 0 l 283 0 l 283 211 l 361 293 l 529 0 z "},"ķ":{"ha":758,"x_min":0,"x_max":0,"o":"m 757 711 l 521 711 l 283 447 l 283 993 l 61 993 l 61 0 l 283 0 l 283 211 l 361 293 l 529 0 l 786 0 l 506 444 z m 418 -210 b 318 -300 418 -269 376 -293 l 318 -365 b 529 -210 454 -351 529 -293 l 529 -68 l 318 -68 l 318 -210 z "},"ĸ":{"ha":763,"x_min":0,"x_max":0,"o":"m 786 0 l 507 440 l 769 711 l 533 711 l 283 444 l 283 711 l 61 711 l 61 0 l 283 0 l 283 210 l 363 292 l 529 0 z "},"l":{"ha":344,"x_min":0,"x_max":0,"o":"m 283 0 l 283 993 l 61 993 l 61 0 z "},"ĺ":{"ha":344,"x_min":0,"x_max":0,"o":"m 256 1029 l 413 1240 l 163 1240 l 89 1029 z m 283 0 l 283 993 l 61 993 l 61 0 z "},"ľ":{"ha":463,"x_min":0,"x_max":0,"o":"m 478 721 l 596 1007 l 360 1007 l 325 721 z m 283 0 l 283 993 l 61 993 l 61 0 z "},"ļ":{"ha":344,"x_min":0,"x_max":0,"o":"m 61 0 l 283 0 l 283 993 l 61 993 z m 167 -210 b 67 -300 167 -269 125 -293 l 67 -365 b 278 -210 203 -351 278 -293 l 278 -68 l 67 -68 l 67 -210 z "},"ł":{"ha":440,"x_min":0,"x_max":0,"o":"m 333 693 l 333 993 l 111 993 l 111 531 l 29 469 l 29 307 l 111 368 l 111 0 l 333 0 l 333 531 l 415 592 l 415 754 z "},"m":{"ha":1221,"x_min":0,"x_max":0,"o":"m 936 733 b 697 608 821 733 758 679 l 694 608 b 508 733 667 682 601 733 b 286 608 401 733 324 674 l 283 608 l 283 711 l 61 711 l 61 0 l 283 0 l 283 411 b 399 553 283 510 329 553 b 500 410 478 553 500 517 l 500 0 l 722 0 l 722 411 b 838 553 722 510 767 553 b 939 410 917 553 939 517 l 939 0 l 1164 0 l 1164 481 b 936 733 1164 643 1079 733 z "},"n":{"ha":807,"x_min":0,"x_max":0,"o":"m 519 733 b 286 608 393 733 324 674 l 283 608 l 283 711 l 61 711 l 61 0 l 283 0 l 283 411 b 417 553 283 510 332 553 b 528 410 490 553 528 517 l 528 0 l 750 0 l 750 481 b 519 733 750 643 657 733 z "},"ń":{"ha":807,"x_min":0,"x_max":0,"o":"m 438 1007 l 364 796 l 531 796 l 688 1007 z m 519 733 b 286 608 393 733 324 674 l 283 608 l 283 711 l 61 711 l 61 0 l 283 0 l 283 411 b 417 553 283 510 332 553 b 528 410 490 553 528 517 l 528 0 l 750 0 l 750 481 b 519 733 750 643 657 733 z "},"ň":{"ha":807,"x_min":0,"x_max":0,"o":"m 704 1007 l 511 1007 l 449 894 l 446 894 l 383 1007 l 190 1007 l 339 796 l 556 796 z m 519 733 b 286 608 393 733 324 674 l 283 608 l 283 711 l 61 711 l 61 0 l 283 0 l 283 411 b 417 553 283 510 332 553 b 528 410 490 553 528 517 l 528 0 l 750 0 l 750 481 b 519 733 750 643 657 733 z "},"ņ":{"ha":807,"x_min":0,"x_max":0,"o":"m 519 733 b 286 608 393 733 324 674 l 283 608 l 283 711 l 61 711 l 61 0 l 283 0 l 283 411 b 417 553 283 510 332 553 b 528 410 490 553 528 517 l 528 0 l 750 0 l 750 481 b 519 733 750 643 657 733 z m 400 -210 b 300 -300 400 -269 358 -293 l 300 -365 b 511 -210 436 -351 511 -293 l 511 -68 l 300 -68 l 300 -210 z "},"ñ":{"ha":807,"x_min":0,"x_max":0,"o":"m 367 829 b 556 775 421 829 481 775 b 679 979 635 775 679 835 l 560 979 b 511 924 560 951 550 924 b 322 979 456 924 397 979 b 199 775 243 979 199 918 l 319 775 b 367 829 319 801 328 829 z m 519 733 b 286 608 393 733 324 674 l 283 608 l 283 711 l 61 711 l 61 0 l 283 0 l 283 411 b 417 553 283 510 332 553 b 528 410 490 553 528 517 l 528 0 l 750 0 l 750 481 b 519 733 750 643 657 733 z "},"ŋ":{"ha":807,"x_min":0,"x_max":0,"o":"m 519 733 b 286 608 393 733 324 674 l 283 608 l 283 711 l 61 711 l 61 0 l 283 0 l 283 411 b 417 553 283 510 332 553 b 528 410 490 553 528 517 l 528 0 b 404 -81 528 -81 499 -81 l 404 -247 b 542 -262 444 -256 479 -262 b 750 -17 704 -262 750 -176 l 750 481 b 519 733 750 643 657 733 z "},"o":{"ha":821,"x_min":0,"x_max":0,"o":"m 408 -24 b 790 358 647 -24 790 133 b 413 735 790 582 647 735 b 31 354 174 735 31 578 b 408 -24 31 129 174 -24 z m 411 143 b 256 356 311 143 256 218 b 411 568 256 493 311 568 b 565 356 510 568 565 493 b 411 143 565 218 510 143 z "},"ó":{"ha":821,"x_min":0,"x_max":0,"o":"m 494 796 l 651 1007 l 401 1007 l 328 796 z m 408 -24 b 790 358 647 -24 790 133 b 413 735 790 582 647 735 b 31 354 174 735 31 578 b 408 -24 31 129 174 -24 z m 411 143 b 256 356 311 143 256 218 b 411 568 256 493 311 568 b 565 356 510 568 565 493 b 411 143 565 218 510 143 z "},"ô":{"ha":821,"x_min":0,"x_max":0,"o":"m 347 796 l 410 908 l 413 908 l 475 796 l 668 796 l 519 1007 l 303 1007 l 154 796 z m 408 -24 b 790 358 647 -24 790 133 b 413 735 790 582 647 735 b 31 354 174 735 31 578 b 408 -24 31 129 174 -24 z m 411 143 b 256 356 311 143 256 218 b 411 568 256 493 311 568 b 565 356 510 568 565 493 b 411 143 565 218 510 143 z "},"ö":{"ha":821,"x_min":0,"x_max":0,"o":"m 378 796 l 378 993 l 156 993 l 156 796 z m 667 796 l 667 993 l 444 993 l 444 796 z m 408 -24 b 790 358 647 -24 790 133 b 413 735 790 582 647 735 b 31 354 174 735 31 578 b 408 -24 31 129 174 -24 z m 411 143 b 256 356 311 143 256 218 b 411 568 256 493 311 568 b 565 356 510 568 565 493 b 411 143 565 218 510 143 z "},"ò":{"ha":821,"x_min":0,"x_max":0,"o":"m 492 799 l 418 1010 l 196 1010 l 325 799 z m 408 -24 b 790 358 647 -24 790 133 b 413 735 790 582 647 735 b 31 354 174 735 31 578 b 408 -24 31 129 174 -24 z m 411 143 b 256 356 311 143 256 218 b 411 568 256 493 311 568 b 565 356 510 568 565 493 b 411 143 565 218 510 143 z "},"ő":{"ha":821,"x_min":0,"x_max":0,"o":"m 363 796 l 503 1007 l 288 1007 l 203 796 z m 607 796 l 775 1007 l 560 1007 l 447 796 z m 408 -24 b 790 358 647 -24 790 133 b 413 735 790 582 647 735 b 31 354 174 735 31 578 b 408 -24 31 129 174 -24 z m 411 143 b 256 356 311 143 256 218 b 411 568 256 493 311 568 b 565 356 510 568 565 493 b 411 143 565 218 510 143 z "},"ō":{"ha":821,"x_min":0,"x_max":0,"o":"m 610 796 l 610 935 l 213 935 l 213 796 z m 408 -24 b 790 358 647 -24 790 133 b 413 735 790 582 647 735 b 31 354 174 735 31 578 b 408 -24 31 129 174 -24 z m 411 143 b 256 356 311 143 256 218 b 411 568 256 493 311 568 b 565 356 510 568 565 493 b 411 143 565 218 510 143 z "},"ø":{"ha":821,"x_min":0,"x_max":0,"o":"m 783 669 l 724 728 l 656 660 b 413 735 593 708 511 735 b 31 354 174 735 31 578 b 107 110 31 257 57 174 l 39 42 l 97 -18 l 165 50 b 408 -24 228 3 310 -24 b 790 358 647 -24 790 133 b 715 601 790 454 764 538 z m 256 356 b 411 568 256 493 311 568 b 518 522 457 568 493 553 l 265 268 b 256 356 258 293 256 322 z m 411 143 b 303 189 365 143 329 158 l 557 442 b 565 356 563 417 565 388 b 411 143 565 218 510 143 z "},"õ":{"ha":821,"x_min":0,"x_max":0,"o":"m 283 775 b 331 829 283 801 292 829 b 519 775 385 829 444 775 b 643 979 599 775 643 835 l 524 979 b 475 924 524 951 514 924 b 286 979 419 924 361 979 b 163 775 207 979 163 918 z m 408 -24 b 790 358 647 -24 790 133 b 413 735 790 582 647 735 b 31 354 174 735 31 578 b 408 -24 31 129 174 -24 z m 411 143 b 256 356 311 143 256 218 b 411 568 256 493 311 568 b 565 356 510 568 565 493 b 411 143 565 218 510 143 z "},"œ":{"ha":1332,"x_min":0,"x_max":0,"o":"m 1300 329 b 936 735 1300 592 1178 735 b 679 640 826 735 740 699 b 413 735 614 700 524 735 b 31 354 174 735 31 578 b 408 -24 31 129 174 -24 b 676 71 521 -24 611 11 b 936 -24 739 11 828 -24 b 1294 215 1136 -24 1254 71 l 1068 215 b 942 143 1054 179 1021 143 b 789 296 858 143 789 197 l 1300 296 z m 790 433 b 936 574 796 525 851 574 b 1076 433 1022 574 1076 525 z m 411 143 b 256 356 311 143 256 218 b 411 568 256 493 311 568 b 565 356 510 568 565 493 b 411 143 565 218 510 143 z "},"p":{"ha":835,"x_min":0,"x_max":0,"o":"m 492 733 b 286 640 389 733 314 678 l 283 640 l 283 711 l 61 711 l 61 -246 l 283 -246 l 283 71 l 286 71 b 492 -22 314 33 389 -22 b 801 356 681 -22 801 122 b 492 733 801 589 681 733 z m 431 144 b 288 356 340 144 288 217 b 431 567 288 494 340 567 b 574 356 521 567 574 494 b 431 144 574 217 521 144 z "},"þ":{"ha":835,"x_min":0,"x_max":0,"o":"m 492 733 b 286 640 389 733 314 678 l 283 640 l 283 993 l 61 993 l 61 -246 l 283 -246 l 283 71 l 286 71 b 492 -22 314 33 389 -22 b 801 356 681 -22 801 122 b 492 733 801 589 681 733 z m 431 144 b 288 356 340 144 288 217 b 431 567 288 494 340 567 b 574 356 521 567 574 494 b 431 144 574 217 521 144 z "},"q":{"ha":832,"x_min":0,"x_max":0,"o":"m 550 640 l 547 640 b 342 733 519 678 444 733 b 32 356 153 733 32 589 b 342 -22 32 122 153 -22 b 547 71 444 -22 519 33 l 550 71 l 550 -246 l 772 -246 l 772 711 l 550 711 z m 403 144 b 260 356 313 144 260 217 b 403 567 260 494 313 567 b 546 356 493 567 546 494 b 403 144 546 217 493 144 z "},"r":{"ha":535,"x_min":0,"x_max":0,"o":"m 460 717 b 286 594 382 717 321 669 l 283 594 l 283 711 l 61 711 l 61 0 l 283 0 l 283 331 b 475 521 283 458 375 521 b 521 517 490 521 503 519 l 521 711 b 460 717 496 717 479 717 z "},"ŕ":{"ha":535,"x_min":0,"x_max":0,"o":"m 282 1007 l 208 796 l 375 796 l 532 1007 z m 283 594 l 283 711 l 61 711 l 61 0 l 283 0 l 283 331 b 475 521 283 458 375 521 b 521 517 490 521 503 519 l 521 711 b 460 717 496 717 479 717 b 286 594 382 717 321 669 z "},"ř":{"ha":535,"x_min":0,"x_max":0,"o":"m 549 1007 l 356 1007 l 293 894 l 290 894 l 228 1007 l 35 1007 l 183 796 l 400 796 z m 283 594 l 283 711 l 61 711 l 61 0 l 283 0 l 283 331 b 475 521 283 458 375 521 b 521 517 490 521 503 519 l 521 711 b 460 717 496 717 479 717 b 286 594 382 717 321 669 z "},"ŗ":{"ha":535,"x_min":0,"x_max":0,"o":"m 460 717 b 286 594 382 717 321 669 l 283 594 l 283 711 l 61 711 l 61 0 l 283 0 l 283 331 b 475 521 283 458 375 521 b 521 517 490 521 503 519 l 521 711 b 460 717 496 717 479 717 z m 167 -210 b 67 -300 167 -269 125 -293 l 67 -365 b 278 -210 203 -351 278 -293 l 278 -68 l 67 -68 l 67 -210 z "},"s":{"ha":722,"x_min":0,"x_max":0,"o":"m 376 -22 b 694 208 582 -22 694 60 b 415 449 694 374 556 415 b 267 524 308 474 267 476 b 354 581 267 558 293 581 b 465 493 428 581 458 550 l 674 493 b 350 733 667 618 578 733 b 39 510 150 733 39 643 b 293 286 39 365 168 315 b 467 192 396 263 467 256 b 372 131 467 151 438 131 b 233 236 288 131 240 165 l 25 236 b 376 -22 31 97 128 -22 z "},"ś":{"ha":722,"x_min":0,"x_max":0,"o":"m 443 796 l 600 1007 l 350 1007 l 276 796 z m 376 -22 b 694 208 582 -22 694 60 b 415 449 694 374 556 415 b 267 524 308 474 267 476 b 354 581 267 558 293 581 b 465 493 428 581 458 550 l 674 493 b 350 733 667 618 578 733 b 39 510 150 733 39 643 b 293 286 39 365 168 315 b 467 192 396 263 467 256 b 372 131 467 151 438 131 b 233 236 288 131 240 165 l 25 236 b 376 -22 31 97 128 -22 z "},"š":{"ha":722,"x_min":0,"x_max":0,"o":"m 468 796 l 617 1007 l 424 1007 l 361 894 l 358 894 l 296 1007 l 103 1007 l 251 796 z m 376 -22 b 694 208 582 -22 694 60 b 415 449 694 374 556 415 b 267 524 308 474 267 476 b 354 581 267 558 293 581 b 465 493 428 581 458 550 l 674 493 b 350 733 667 618 578 733 b 39 510 150 733 39 643 b 293 286 39 365 168 315 b 467 192 396 263 467 256 b 372 131 467 151 438 131 b 233 236 288 131 240 165 l 25 236 b 376 -22 31 97 128 -22 z "},"ş":{"ha":722,"x_min":0,"x_max":0,"o":"m 426 -21 b 694 208 600 -8 694 72 b 415 449 694 374 556 415 b 267 524 308 474 267 476 b 354 581 267 558 293 581 b 465 493 428 581 458 550 l 674 493 b 350 733 667 618 578 733 b 39 510 150 733 39 643 b 293 286 39 365 168 315 b 467 192 396 263 467 256 b 372 131 467 151 438 131 b 233 236 288 131 240 165 l 25 236 b 324 -21 31 107 114 -4 l 261 -86 l 294 -133 b 346 -124 310 -128 326 -124 b 393 -161 375 -124 393 -135 b 329 -201 393 -190 363 -201 b 242 -181 296 -201 268 -193 l 200 -229 b 356 -275 239 -256 290 -275 b 538 -162 454 -275 538 -235 b 389 -69 538 -90 464 -61 l 389 -67 z "},"ŝ":{"ha":722,"x_min":0,"x_max":0,"o":"m 296 796 l 358 908 l 361 908 l 424 796 l 617 796 l 468 1007 l 251 1007 l 103 796 z m 376 -22 b 694 208 582 -22 694 60 b 415 449 694 374 556 415 b 267 524 308 474 267 476 b 354 581 267 558 293 581 b 465 493 428 581 458 550 l 674 493 b 350 733 667 618 578 733 b 39 510 150 733 39 643 b 293 286 39 365 168 315 b 467 192 396 263 467 256 b 372 131 467 151 438 131 b 233 236 288 131 240 165 l 25 236 b 376 -22 31 97 128 -22 z "},"ș":{"ha":722,"x_min":0,"x_max":0,"o":"m 415 449 b 267 524 308 474 267 476 b 354 581 267 558 293 581 b 465 493 428 581 458 550 l 674 493 b 350 733 667 618 578 733 b 39 510 150 733 39 643 b 293 286 39 365 168 315 b 467 192 396 263 467 256 b 372 131 467 151 438 131 b 233 236 288 131 240 165 l 25 236 b 376 -22 31 97 128 -22 b 694 208 582 -22 694 60 b 415 449 694 374 556 415 z m 378 -210 b 278 -300 378 -269 336 -293 l 278 -365 b 489 -210 414 -351 489 -293 l 489 -68 l 278 -68 l 278 -210 z "},"ß":{"ha":814,"x_min":0,"x_max":0,"o":"m 481 -22 b 785 271 649 -22 785 81 b 604 547 785 401 722 510 l 604 550 b 729 750 672 579 729 644 b 403 1015 729 888 633 1015 b 61 663 178 1015 61 894 l 61 0 l 283 0 l 283 674 b 396 849 283 810 329 849 b 501 738 467 849 501 806 b 382 615 501 661 457 615 l 353 615 l 353 476 l 388 476 b 557 306 513 476 557 406 b 422 160 557 233 533 160 b 353 167 400 160 378 163 l 353 0 b 481 -22 396 -15 436 -22 z "},"t":{"ha":507,"x_min":0,"x_max":0,"o":"m 413 153 b 340 236 369 153 340 160 l 340 544 l 464 544 l 464 711 l 340 711 l 340 910 l 118 910 l 118 711 l 19 711 l 19 544 l 118 544 l 118 231 b 340 -14 118 57 185 -14 b 472 1 385 -14 425 -10 l 472 158 b 413 153 446 154 433 153 z "},"ŧ":{"ha":514,"x_min":0,"x_max":0,"o":"m 418 153 b 346 236 375 153 346 160 l 346 325 l 469 325 l 469 450 l 346 450 l 346 544 l 469 544 l 469 711 l 346 711 l 346 910 l 124 910 l 124 711 l 25 711 l 25 544 l 124 544 l 124 450 l 25 450 l 25 325 l 124 325 l 124 231 b 346 -14 124 57 190 -14 b 478 1 390 -14 431 -10 l 478 158 b 418 153 451 154 439 153 z "},"ť":{"ha":507,"x_min":0,"x_max":0,"o":"m 390 764 l 521 764 l 621 993 l 419 993 z m 340 544 l 464 544 l 464 711 l 340 711 l 340 910 l 118 910 l 118 711 l 19 711 l 19 544 l 118 544 l 118 231 b 340 -14 118 57 185 -14 b 472 1 385 -14 425 -10 l 472 158 b 413 153 446 154 433 153 b 340 236 369 153 340 160 z "},"ţ":{"ha":507,"x_min":0,"x_max":0,"o":"m 326 -53 l 358 -14 b 472 1 396 -12 432 -8 l 472 158 b 413 153 446 154 433 153 b 340 236 369 153 340 160 l 340 544 l 464 544 l 464 711 l 340 711 l 340 910 l 118 910 l 118 711 l 19 711 l 19 544 l 118 544 l 118 231 b 261 -6 118 90 163 17 l 199 -72 l 232 -119 b 283 -110 247 -114 264 -110 b 331 -147 313 -110 331 -121 b 267 -187 331 -176 300 -187 b 179 -167 233 -187 206 -179 l 138 -215 b 293 -261 176 -242 228 -261 b 475 -149 392 -261 475 -221 b 326 -56 475 -76 401 -47 z "},"ț":{"ha":507,"x_min":0,"x_max":0,"o":"m 413 153 b 340 236 369 153 340 160 l 340 544 l 464 544 l 464 711 l 340 711 l 340 910 l 118 910 l 118 711 l 19 711 l 19 544 l 118 544 l 118 231 b 340 -14 118 57 185 -14 b 472 1 385 -14 425 -10 l 472 158 b 413 153 446 154 433 153 z m 315 -196 b 215 -286 315 -256 274 -279 l 215 -351 b 426 -196 351 -337 426 -279 l 426 -54 l 215 -54 l 215 -196 z "},"u":{"ha":807,"x_min":0,"x_max":0,"o":"m 524 300 b 390 158 524 201 475 158 b 279 301 317 158 279 194 l 279 711 l 57 711 l 57 231 b 288 -22 57 68 150 -22 b 521 103 414 -22 483 38 l 524 103 l 524 0 l 746 0 l 746 711 l 524 711 z "},"ú":{"ha":807,"x_min":0,"x_max":0,"o":"m 388 1007 l 314 796 l 481 796 l 638 1007 z m 524 300 b 390 158 524 201 475 158 b 279 301 317 158 279 194 l 279 711 l 57 711 l 57 231 b 288 -22 57 68 150 -22 b 521 103 414 -22 483 38 l 524 103 l 524 0 l 746 0 l 746 711 l 524 711 z "},"ŭ":{"ha":807,"x_min":0,"x_max":0,"o":"m 397 785 b 619 996 526 785 614 871 l 492 996 b 397 921 488 950 457 921 b 303 996 338 921 307 950 l 175 996 b 397 785 179 867 271 785 z m 524 300 b 390 158 524 201 475 158 b 279 301 317 158 279 194 l 279 711 l 57 711 l 57 231 b 288 -22 57 68 150 -22 b 521 103 414 -22 483 38 l 524 103 l 524 0 l 746 0 l 746 711 l 524 711 z "},"û":{"ha":807,"x_min":0,"x_max":0,"o":"m 399 908 l 461 796 l 654 796 l 506 1007 l 289 1007 l 140 796 l 333 796 l 396 908 z m 524 300 b 390 158 524 201 475 158 b 279 301 317 158 279 194 l 279 711 l 57 711 l 57 231 b 288 -22 57 68 150 -22 b 521 103 414 -22 483 38 l 524 103 l 524 0 l 746 0 l 746 711 l 524 711 z "},"ü":{"ha":807,"x_min":0,"x_max":0,"o":"m 142 993 l 142 796 l 364 796 l 364 993 z m 431 993 l 431 796 l 653 796 l 653 993 z m 524 300 b 390 158 524 201 475 158 b 279 301 317 158 279 194 l 279 711 l 57 711 l 57 231 b 288 -22 57 68 150 -22 b 521 103 414 -22 483 38 l 524 103 l 524 0 l 746 0 l 746 711 l 524 711 z "},"ù":{"ha":807,"x_min":0,"x_max":0,"o":"m 404 1010 l 182 1010 l 311 799 l 478 799 z m 524 300 b 390 158 524 201 475 158 b 279 301 317 158 279 194 l 279 711 l 57 711 l 57 231 b 288 -22 57 68 150 -22 b 521 103 414 -22 483 38 l 524 103 l 524 0 l 746 0 l 746 711 l 524 711 z "},"ű":{"ha":807,"x_min":0,"x_max":0,"o":"m 274 1007 l 189 796 l 349 796 l 489 1007 z m 761 1007 l 546 1007 l 433 796 l 593 796 z m 524 300 b 390 158 524 201 475 158 b 279 301 317 158 279 194 l 279 711 l 57 711 l 57 231 b 288 -22 57 68 150 -22 b 521 103 414 -22 483 38 l 524 103 l 524 0 l 746 0 l 746 711 l 524 711 z "},"ū":{"ha":807,"x_min":0,"x_max":0,"o":"m 199 935 l 199 796 l 596 796 l 596 935 z m 524 300 b 390 158 524 201 475 158 b 279 301 317 158 279 194 l 279 711 l 57 711 l 57 231 b 288 -22 57 68 150 -22 b 521 103 414 -22 483 38 l 524 103 l 524 0 l 746 0 l 746 711 l 524 711 z "},"ų":{"ha":807,"x_min":0,"x_max":0,"o":"m 746 0 l 746 711 l 524 711 l 524 300 b 390 158 524 201 475 158 b 279 301 317 158 279 194 l 279 711 l 57 711 l 57 231 b 288 -22 57 68 150 -22 b 521 103 414 -22 483 38 l 524 103 l 524 0 l 565 0 b 471 -128 521 -21 471 -64 b 629 -244 471 -203 525 -244 b 742 -229 668 -244 710 -237 l 742 -104 b 685 -114 722 -110 703 -114 b 642 -83 657 -114 642 -104 b 707 0 642 -54 671 -31 z "},"ů":{"ha":807,"x_min":0,"x_max":0,"o":"m 397 749 b 550 899 481 749 550 806 b 397 1049 550 990 481 1049 b 244 899 315 1049 244 990 b 397 749 244 806 315 749 z m 397 963 b 457 899 435 963 457 940 b 397 835 457 857 435 835 b 339 899 364 835 339 857 b 397 963 339 940 364 963 z m 524 300 b 390 158 524 201 475 158 b 279 301 317 158 279 194 l 279 711 l 57 711 l 57 231 b 288 -22 57 68 150 -22 b 521 103 414 -22 483 38 l 524 103 l 524 0 l 746 0 l 746 711 l 524 711 z "},"ũ":{"ha":807,"x_min":0,"x_max":0,"o":"m 317 829 b 506 775 371 829 431 775 b 629 979 585 775 629 835 l 510 979 b 461 924 510 951 500 924 b 272 979 406 924 347 979 b 149 775 193 979 149 918 l 269 775 b 317 829 269 801 278 829 z m 524 300 b 390 158 524 201 475 158 b 279 301 317 158 279 194 l 279 711 l 57 711 l 57 231 b 288 -22 57 68 150 -22 b 521 103 414 -22 483 38 l 524 103 l 524 0 l 746 0 l 746 711 l 524 711 z "},"v":{"ha":742,"x_min":0,"x_max":0,"o":"m 493 0 l 739 711 l 519 711 l 375 242 l 372 242 l 228 711 l 3 711 l 249 0 z "},"w":{"ha":1097,"x_min":0,"x_max":0,"o":"m 410 0 l 547 450 l 550 450 l 688 0 l 896 0 l 1094 711 l 879 711 l 772 278 l 768 278 l 649 711 l 454 711 l 335 278 l 332 278 l 225 711 l 3 711 l 201 0 z "},"ẃ":{"ha":1097,"x_min":0,"x_max":0,"o":"m 632 796 l 789 1007 l 539 1007 l 465 796 z m 410 0 l 547 450 l 550 450 l 688 0 l 896 0 l 1094 711 l 879 711 l 772 278 l 768 278 l 649 711 l 454 711 l 335 278 l 332 278 l 225 711 l 3 711 l 201 0 z "},"ŵ":{"ha":1097,"x_min":0,"x_max":0,"o":"m 485 796 l 547 908 l 550 908 l 613 796 l 806 796 l 657 1007 l 440 1007 l 292 796 z m 410 0 l 547 450 l 550 450 l 688 0 l 896 0 l 1094 711 l 879 711 l 772 278 l 768 278 l 649 711 l 454 711 l 335 278 l 332 278 l 225 711 l 3 711 l 201 0 z "},"ẅ":{"ha":1097,"x_min":0,"x_max":0,"o":"m 515 796 l 515 993 l 293 993 l 293 796 z m 804 796 l 804 993 l 582 993 l 582 796 z m 410 0 l 547 450 l 550 450 l 688 0 l 896 0 l 1094 711 l 879 711 l 772 278 l 768 278 l 649 711 l 454 711 l 335 278 l 332 278 l 225 711 l 3 711 l 201 0 z "},"ẁ":{"ha":1097,"x_min":0,"x_max":0,"o":"m 629 799 l 556 1010 l 333 1010 l 463 799 z m 410 0 l 547 450 l 550 450 l 688 0 l 896 0 l 1094 711 l 879 711 l 772 278 l 768 278 l 649 711 l 454 711 l 335 278 l 332 278 l 225 711 l 3 711 l 201 0 z "},"x":{"ha":722,"x_min":0,"x_max":0,"o":"m 232 0 l 360 219 l 363 219 l 490 0 l 740 0 l 496 363 l 713 711 l 476 711 l 363 506 l 360 506 l 246 711 l 10 711 l 226 363 l -18 0 z "},"y":{"ha":763,"x_min":0,"x_max":0,"o":"m 214 -246 b 500 -1 371 -246 440 -164 l 760 711 l 540 711 l 388 243 l 385 243 l 218 711 l -11 711 l 272 10 b 147 -67 253 -65 190 -67 b 81 -62 122 -67 104 -65 l 81 -232 b 214 -246 128 -242 165 -246 z "},"ý":{"ha":763,"x_min":0,"x_max":0,"o":"m 458 796 l 615 1007 l 365 1007 l 292 796 z m 214 -246 b 500 -1 371 -246 440 -164 l 760 711 l 540 711 l 388 243 l 385 243 l 218 711 l -11 711 l 272 10 b 147 -67 253 -65 190 -67 b 81 -62 122 -67 104 -65 l 81 -232 b 214 -246 128 -242 165 -246 z "},"ŷ":{"ha":763,"x_min":0,"x_max":0,"o":"m 311 796 l 374 908 l 376 908 l 439 796 l 632 796 l 483 1007 l 267 1007 l 118 796 z m 214 -246 b 500 -1 371 -246 440 -164 l 760 711 l 540 711 l 388 243 l 385 243 l 218 711 l -11 711 l 272 10 b 147 -67 253 -65 190 -67 b 81 -62 122 -67 104 -65 l 81 -232 b 214 -246 128 -242 165 -246 z "},"ÿ":{"ha":763,"x_min":0,"x_max":0,"o":"m 342 796 l 342 993 l 119 993 l 119 796 z m 631 796 l 631 993 l 408 993 l 408 796 z m 214 -246 b 500 -1 371 -246 440 -164 l 760 711 l 540 711 l 388 243 l 385 243 l 218 711 l -11 711 l 272 10 b 147 -67 253 -65 190 -67 b 81 -62 122 -67 104 -65 l 81 -232 b 214 -246 128 -242 165 -246 z "},"ỳ":{"ha":763,"x_min":0,"x_max":0,"o":"m 456 799 l 382 1010 l 160 1010 l 289 799 z m 214 -246 b 500 -1 371 -246 440 -164 l 760 711 l 540 711 l 388 243 l 385 243 l 218 711 l -11 711 l 272 10 b 147 -67 253 -65 190 -67 b 81 -62 122 -67 104 -65 l 81 -232 b 214 -246 128 -242 165 -246 z "},"z":{"ha":696,"x_min":0,"x_max":0,"o":"m 664 0 l 664 167 l 304 167 l 304 169 l 650 551 l 650 711 l 54 711 l 54 544 l 372 544 l 372 542 l 26 160 l 26 0 z "},"ź":{"ha":696,"x_min":0,"x_max":0,"o":"m 428 796 l 585 1007 l 335 1007 l 261 796 z m 664 0 l 664 167 l 304 167 l 304 169 l 650 551 l 650 711 l 54 711 l 54 544 l 372 544 l 372 542 l 26 160 l 26 0 z "},"ž":{"ha":696,"x_min":0,"x_max":0,"o":"m 453 796 l 601 1007 l 408 1007 l 346 894 l 343 894 l 281 1007 l 88 1007 l 236 796 z m 664 0 l 664 167 l 304 167 l 304 169 l 650 551 l 650 711 l 54 711 l 54 544 l 372 544 l 372 542 l 26 160 l 26 0 z "},"ż":{"ha":696,"x_min":0,"x_max":0,"o":"m 456 796 l 456 993 l 233 993 l 233 796 z m 664 0 l 664 167 l 304 167 l 304 169 l 650 551 l 650 711 l 54 711 l 54 544 l 372 544 l 372 542 l 26 160 l 26 0 z "},"ﬁ":{"ha":828,"x_min":0,"x_max":0,"o":"m 124 711 l 28 711 l 28 544 l 124 544 l 124 0 l 346 0 l 346 544 l 469 544 l 469 711 l 346 711 l 346 756 b 414 839 346 832 375 839 b 469 835 432 839 443 838 l 469 992 b 343 1006 422 1001 385 1006 b 124 761 190 1006 124 935 z m 544 796 l 767 796 l 767 993 l 544 993 z m 767 0 l 767 711 l 544 711 l 544 0 z "},"ﬂ":{"ha":828,"x_min":0,"x_max":0,"o":"m 124 711 l 28 711 l 28 544 l 124 544 l 124 0 l 346 0 l 346 544 l 469 544 l 469 711 l 346 711 l 346 756 b 414 839 346 832 375 839 b 469 835 432 839 443 838 l 469 992 b 343 1006 422 1001 385 1006 b 124 761 190 1006 124 935 z m 544 0 l 767 0 l 767 993 l 544 993 z "},"ª":{"ha":679,"x_min":0,"x_max":0,"o":"m 222 389 b 419 474 310 389 381 428 l 421 474 b 543 392 432 422 463 392 b 643 404 569 392 606 396 l 643 501 l 632 500 b 604 540 604 500 604 515 l 604 754 b 350 1003 604 938 515 1003 b 54 794 146 1003 61 906 l 238 794 b 343 875 243 846 275 875 b 418 828 394 875 418 858 b 260 750 418 775 342 767 b 31 558 135 725 31 679 b 222 389 31 456 106 389 z m 301 522 b 229 578 260 522 229 539 b 318 653 229 615 258 640 b 418 685 369 664 392 672 l 418 642 b 301 522 418 581 379 522 z "},"º":{"ha":697,"x_min":0,"x_max":0,"o":"m 347 389 b 671 699 549 389 671 517 b 350 1003 671 878 549 1003 b 26 696 149 1003 26 876 b 347 389 26 514 149 389 z m 349 533 b 226 697 271 533 226 589 b 349 858 226 801 271 858 b 471 697 425 858 471 803 b 349 533 471 589 426 533 z "},"А":{"ha":994,"x_min":0,"x_max":0,"o":"m 261 0 l 325 207 l 665 207 l 729 0 l 1003 0 l 622 993 l 371 993 l -7 0 z m 494 764 l 497 764 l 610 397 l 382 397 z "},"Б":{"ha":885,"x_min":0,"x_max":0,"o":"m 485 0 b 861 329 729 0 861 122 b 499 644 861 518 735 644 l 333 644 l 333 789 l 758 789 l 758 993 l 83 993 l 83 0 z m 333 440 l 490 440 b 606 329 567 440 606 392 b 478 204 606 247 561 204 l 333 204 z "},"В":{"ha":958,"x_min":0,"x_max":0,"o":"m 579 0 b 919 293 785 0 919 82 b 726 529 919 442 831 511 l 726 532 b 881 743 808 560 881 621 b 565 993 881 913 772 993 l 83 993 l 83 0 z m 333 592 l 333 789 l 500 789 b 625 690 569 789 625 772 b 500 592 625 608 569 592 z m 333 204 l 333 439 l 507 439 b 664 322 611 439 664 415 b 507 204 664 229 611 204 z "},"Г":{"ha":751,"x_min":0,"x_max":0,"o":"m 333 0 l 333 789 l 731 789 l 731 993 l 83 993 l 83 0 z "},"Ѓ":{"ha":751,"x_min":0,"x_max":0,"o":"m 526 1078 l 683 1289 l 433 1289 l 360 1078 z m 333 0 l 333 789 l 731 789 l 731 993 l 83 993 l 83 0 z "},"Ґ":{"ha":772,"x_min":0,"x_max":0,"o":"m 333 0 l 333 789 l 751 789 l 751 1131 l 529 1131 l 529 993 l 83 993 l 83 0 z "},"Ғ":{"ha":836,"x_min":0,"x_max":0,"o":"m 813 993 l 165 993 l 165 561 l 26 561 l 26 394 l 165 394 l 165 0 l 415 0 l 415 394 l 671 394 l 671 561 l 415 561 l 415 789 l 813 789 z "},"Д":{"ha":1068,"x_min":0,"x_max":0,"o":"m 231 -181 l 231 -1 l 808 -1 l 808 -181 l 1031 -181 l 1031 203 l 926 203 l 926 993 l 218 993 l 190 453 b 81 203 181 274 160 203 l 8 203 l 8 -181 z m 356 206 b 413 396 388 244 406 299 l 440 789 l 676 789 l 676 203 l 356 203 z "},"Е":{"ha":892,"x_min":0,"x_max":0,"o":"m 844 0 l 844 204 l 333 204 l 333 408 l 767 408 l 767 613 l 333 613 l 333 789 l 836 789 l 836 993 l 83 993 l 83 0 z "},"Ѐ":{"ha":892,"x_min":0,"x_max":0,"o":"m 544 1081 l 471 1292 l 249 1292 l 378 1081 z m 844 0 l 844 204 l 333 204 l 333 408 l 767 408 l 767 613 l 333 613 l 333 789 l 836 789 l 836 993 l 83 993 l 83 0 z "},"Ё":{"ha":892,"x_min":0,"x_max":0,"o":"m 431 1078 l 431 1275 l 208 1275 l 208 1078 z m 719 1078 l 719 1275 l 497 1275 l 497 1078 z m 844 0 l 844 204 l 333 204 l 333 408 l 767 408 l 767 613 l 333 613 l 333 789 l 836 789 l 836 993 l 83 993 l 83 0 z "},"Ж":{"ha":1389,"x_min":0,"x_max":0,"o":"m 1381 993 l 1121 993 l 890 581 l 819 581 l 819 993 l 569 993 l 569 581 l 499 581 l 268 993 l 8 993 l 306 497 l -8 0 l 274 0 l 499 376 l 569 376 l 569 0 l 819 0 l 819 376 l 890 376 l 1115 0 l 1397 0 l 1083 497 z "},"З":{"ha":882,"x_min":0,"x_max":0,"o":"m 440 -24 b 844 267 657 -24 844 83 b 629 493 844 414 731 476 l 629 496 b 803 732 717 535 803 607 b 424 1015 803 910 649 1015 b 38 700 194 1015 51 883 l 293 700 b 424 811 293 763 351 811 b 547 692 496 811 547 751 b 436 576 547 629 513 576 l 324 576 l 324 410 l 442 410 b 589 293 531 410 589 374 b 447 181 589 231 528 181 b 282 297 335 181 296 228 l 26 297 b 440 -24 26 103 179 -24 z "},"И":{"ha":1049,"x_min":0,"x_max":0,"o":"m 333 0 l 713 617 l 715 617 l 715 0 l 965 0 l 965 993 l 715 993 l 336 376 l 333 376 l 333 993 l 83 993 l 83 0 z "},"Й":{"ha":1049,"x_min":0,"x_max":0,"o":"m 519 1067 b 742 1278 649 1067 736 1153 l 614 1278 b 519 1203 610 1232 579 1203 b 425 1278 460 1203 429 1232 l 297 1278 b 519 1067 301 1149 393 1067 z m 333 0 l 713 617 l 715 617 l 715 0 l 965 0 l 965 993 l 715 993 l 336 376 l 333 376 l 333 993 l 83 993 l 83 0 z "},"Ѝ":{"ha":1049,"x_min":0,"x_max":0,"o":"m 600 1081 l 526 1292 l 304 1292 l 433 1081 z m 333 0 l 713 617 l 715 617 l 715 0 l 965 0 l 965 993 l 715 993 l 336 376 l 333 376 l 333 993 l 83 993 l 83 0 z "},"К":{"ha":1000,"x_min":0,"x_max":0,"o":"m 1001 993 l 732 993 l 404 581 l 333 581 l 333 993 l 83 993 l 83 0 l 333 0 l 333 376 l 404 376 l 713 0 l 1026 0 l 606 503 z "},"Ќ":{"ha":1000,"x_min":0,"x_max":0,"o":"m 492 1289 l 418 1078 l 585 1078 l 742 1289 z m 1001 993 l 732 993 l 404 581 l 333 581 l 333 993 l 83 993 l 83 0 l 333 0 l 333 376 l 404 376 l 713 0 l 1026 0 l 606 503 z "},"Л":{"ha":992,"x_min":0,"x_max":0,"o":"m 153 -21 b 404 276 279 -21 390 44 l 436 789 l 658 789 l 658 0 l 908 0 l 908 993 l 219 993 l 176 306 b 97 196 172 229 147 196 b 10 210 60 196 29 203 l 10 -4 b 153 -21 31 -15 99 -21 z "},"М":{"ha":1189,"x_min":0,"x_max":0,"o":"m 319 0 l 319 618 l 322 618 l 507 0 l 682 0 l 867 618 l 869 618 l 869 0 l 1106 0 l 1106 993 l 800 993 l 596 360 l 593 360 l 389 993 l 83 993 l 83 0 z "},"Н":{"ha":1007,"x_min":0,"x_max":0,"o":"m 333 0 l 333 400 l 674 400 l 674 0 l 924 0 l 924 993 l 674 993 l 674 604 l 333 604 l 333 993 l 83 993 l 83 0 z "},"О":{"ha":1067,"x_min":0,"x_max":0,"o":"m 533 -22 b 1025 497 846 -22 1025 197 b 533 1015 1025 796 846 1015 b 42 497 218 1015 42 796 b 533 -22 42 197 218 -22 z m 533 182 b 297 497 351 182 297 324 b 533 811 297 669 351 811 b 769 497 714 811 769 669 b 533 182 769 324 714 182 z "},"П":{"ha":993,"x_min":0,"x_max":0,"o":"m 333 0 l 333 789 l 660 789 l 660 0 l 910 0 l 910 993 l 83 993 l 83 0 z "},"Р":{"ha":924,"x_min":0,"x_max":0,"o":"m 333 0 l 333 360 l 565 360 b 901 676 772 360 901 468 b 565 993 901 885 772 993 l 83 993 l 83 0 z m 333 564 l 333 789 l 507 789 b 646 676 593 789 646 760 b 507 564 646 593 593 564 z "},"С":{"ha":993,"x_min":0,"x_max":0,"o":"m 517 -22 b 963 372 790 -22 940 144 l 707 372 b 513 182 690 261 646 182 b 297 497 347 182 297 310 b 513 811 297 683 347 811 b 707 624 644 811 689 732 l 963 624 b 524 1015 939 854 794 1015 b 42 493 210 1015 42 797 b 517 -22 42 197 201 -22 z "},"Т":{"ha":868,"x_min":0,"x_max":0,"o":"m 560 0 l 560 789 l 847 789 l 847 993 l 21 993 l 21 789 l 310 789 l 310 0 z "},"У":{"ha":931,"x_min":0,"x_max":0,"o":"m 418 0 l 919 993 l 681 993 l 463 558 l 460 558 l 261 993 l 11 993 l 329 297 l 176 0 z "},"Ў":{"ha":931,"x_min":0,"x_max":0,"o":"m 464 1067 b 686 1278 593 1067 681 1153 l 558 1278 b 464 1203 554 1232 524 1203 b 369 1278 404 1203 374 1232 l 242 1278 b 464 1067 246 1149 338 1067 z m 418 0 l 919 993 l 681 993 l 463 558 l 460 558 l 261 993 l 11 993 l 329 297 l 176 0 z "},"Ф":{"ha":1128,"x_min":0,"x_max":0,"o":"m 1092 490 b 682 881 1092 704 936 847 l 682 993 l 446 993 l 446 881 b 36 490 192 847 36 704 b 446 99 36 276 192 132 l 446 0 l 682 0 l 682 99 b 1092 490 936 132 1092 276 z m 292 490 b 446 690 292 589 349 660 l 446 289 b 292 490 349 321 292 392 z m 682 690 b 836 490 779 660 836 589 b 682 289 836 392 779 321 z "},"Х":{"ha":926,"x_min":0,"x_max":0,"o":"m 265 0 l 461 322 l 464 322 l 661 0 l 939 0 l 610 510 l 911 993 l 647 993 l 464 690 l 461 690 l 279 993 l 15 993 l 317 507 l -12 0 z "},"Ч":{"ha":931,"x_min":0,"x_max":0,"o":"m 847 0 l 847 993 l 597 993 l 597 585 b 446 496 563 535 514 496 b 306 638 360 496 306 550 l 306 993 l 56 993 l 56 596 b 335 288 56 407 167 288 b 594 429 438 288 538 343 l 597 429 l 597 0 z "},"Ц":{"ha":1057,"x_min":0,"x_max":0,"o":"m 1021 -182 l 1021 204 l 910 204 l 910 993 l 660 993 l 660 204 l 333 204 l 333 993 l 83 993 l 83 0 l 799 0 l 799 -182 z "},"Ш":{"ha":1347,"x_min":0,"x_max":0,"o":"m 1264 0 l 1264 993 l 1014 993 l 1014 204 l 799 204 l 799 993 l 549 993 l 549 204 l 333 204 l 333 993 l 83 993 l 83 0 z "},"Щ":{"ha":1411,"x_min":0,"x_max":0,"o":"m 1375 -182 l 1375 204 l 1264 204 l 1264 993 l 1014 993 l 1014 204 l 799 204 l 799 993 l 549 993 l 549 204 l 333 204 l 333 993 l 83 993 l 83 0 l 1153 0 l 1153 -182 z "},"Џ":{"ha":993,"x_min":0,"x_max":0,"o":"m 608 -182 l 608 0 l 910 0 l 910 993 l 660 993 l 660 204 l 333 204 l 333 993 l 83 993 l 83 0 l 386 0 l 386 -182 z "},"Ь":{"ha":897,"x_min":0,"x_max":0,"o":"m 499 0 b 875 347 729 0 875 129 b 513 686 875 551 735 686 l 333 686 l 333 993 l 83 993 l 83 0 z m 333 482 l 504 482 b 619 347 575 482 619 425 b 492 204 619 254 571 204 l 333 204 z "},"Ы":{"ha":1264,"x_min":0,"x_max":0,"o":"m 471 0 b 847 347 701 0 847 129 b 485 686 847 551 707 686 l 333 686 l 333 993 l 83 993 l 83 0 z m 1181 0 l 1181 993 l 931 993 l 931 0 z m 333 482 l 476 482 b 592 347 547 482 592 425 b 464 204 592 254 543 204 l 333 204 z "},"Ъ":{"ha":1026,"x_min":0,"x_max":0,"o":"m 628 0 b 1004 347 858 0 1004 129 b 642 686 1004 551 864 686 l 463 686 l 463 993 l 18 993 l 18 789 l 213 789 l 213 0 z m 463 482 l 633 482 b 749 347 704 482 749 425 b 621 204 749 254 700 204 l 463 204 z "},"Љ":{"ha":1421,"x_min":0,"x_max":0,"o":"m 153 -21 b 404 276 279 -21 390 44 l 436 789 l 635 789 l 635 0 l 1022 0 b 1399 347 1253 0 1399 129 b 1036 686 1399 551 1258 686 l 885 686 l 885 993 l 219 993 l 176 306 b 97 196 172 229 147 196 b 10 210 60 196 29 203 l 10 -4 b 153 -21 31 -15 99 -21 z m 885 482 l 1028 482 b 1143 347 1099 482 1143 425 b 1015 204 1143 254 1094 204 l 885 204 z "},"Њ":{"ha":1488,"x_min":0,"x_max":0,"o":"m 333 0 l 333 440 l 674 440 l 674 0 l 1089 0 b 1465 326 1319 0 1465 108 b 1103 644 1465 531 1325 644 l 924 644 l 924 993 l 674 993 l 674 644 l 333 644 l 333 993 l 83 993 l 83 0 z m 924 440 l 1094 440 b 1210 326 1165 440 1210 404 b 1082 204 1210 233 1161 204 l 924 204 z "},"Ѕ":{"ha":913,"x_min":0,"x_max":0,"o":"m 483 -22 b 876 292 732 -22 876 101 b 496 606 876 497 683 550 b 314 732 369 643 314 665 b 442 814 314 789 367 814 b 610 692 538 814 599 768 l 863 692 b 442 1015 856 893 674 1015 b 58 714 228 1015 58 931 b 385 417 58 536 213 469 b 621 268 522 375 621 353 b 481 179 621 217 574 179 b 281 338 368 179 281 222 l 28 338 b 483 -22 28 110 224 -22 z "},"Є":{"ha":1010,"x_min":0,"x_max":0,"o":"m 526 185 b 301 428 392 185 318 272 l 597 428 l 597 594 l 306 594 b 539 808 332 731 418 808 b 728 665 646 808 713 742 l 981 665 b 543 1013 956 861 782 1013 b 42 500 257 1013 42 814 b 539 -19 42 181 261 -19 b 981 350 804 -19 972 136 l 728 350 b 526 185 721 256 644 185 z "},"Э":{"ha":1010,"x_min":0,"x_max":0,"o":"m 489 1013 b 29 665 238 1013 54 861 l 282 665 b 485 808 297 742 367 808 b 706 594 608 808 683 732 l 413 594 l 413 428 l 708 428 b 488 185 693 274 622 185 b 282 350 369 185 289 256 l 29 350 b 488 -19 38 136 222 -19 b 968 501 765 -19 968 182 b 489 1013 968 815 774 1013 z "},"І":{"ha":417,"x_min":0,"x_max":0,"o":"m 333 0 l 333 993 l 83 993 l 83 0 z "},"Ї":{"ha":417,"x_min":0,"x_max":0,"o":"m 175 1078 l 175 1275 l -47 1275 l -47 1078 z m 464 1078 l 464 1275 l 242 1275 l 242 1078 z m 333 0 l 333 993 l 83 993 l 83 0 z "},"Ј":{"ha":779,"x_min":0,"x_max":0,"o":"m 363 -22 b 703 331 635 -22 703 139 l 703 993 l 453 993 l 453 331 b 349 182 453 236 431 182 b 244 331 267 182 244 236 l 244 414 l 22 414 l 22 331 b 363 -22 22 139 90 -22 z "},"Ћ":{"ha":1071,"x_min":0,"x_max":0,"o":"m 461 0 l 461 300 b 619 456 461 396 526 456 b 767 314 718 456 767 401 l 767 0 l 1017 0 l 1017 356 b 731 664 1017 557 911 664 b 464 522 628 664 521 608 l 461 522 l 461 789 l 765 789 l 765 993 l 24 993 l 24 789 l 211 789 l 211 0 z "},"Ю":{"ha":1389,"x_min":0,"x_max":0,"o":"m 908 1015 b 479 608 663 1015 511 871 l 333 608 l 333 993 l 83 993 l 83 0 l 333 0 l 333 404 l 476 404 b 908 -22 504 129 657 -22 b 1344 497 1188 -22 1344 164 b 908 1015 1344 829 1188 1015 z m 908 182 b 728 497 797 182 728 290 b 908 811 728 704 797 811 b 1089 497 1019 811 1089 704 b 908 182 1089 290 1019 182 z "},"Я":{"ha":957,"x_min":0,"x_max":0,"o":"m 292 0 b 506 346 321 79 296 346 l 624 346 l 624 0 l 874 0 l 874 993 l 419 993 b 74 708 207 993 74 871 b 283 444 74 571 139 479 l 283 442 b 18 8 60 399 71 104 l 18 0 z m 449 536 b 329 671 369 536 329 589 b 431 789 329 736 368 789 l 624 789 l 624 536 z "},"Ђ":{"ha":1071,"x_min":0,"x_max":0,"o":"m 754 -254 b 1017 10 915 -254 1017 -164 l 1017 356 b 731 664 1017 557 911 664 b 464 522 628 664 519 608 l 461 522 l 461 789 l 765 789 l 765 993 l 24 993 l 24 789 l 211 789 l 211 0 l 461 0 l 461 300 b 619 456 461 396 526 456 b 767 314 718 456 767 401 l 767 38 b 690 -43 767 -39 733 -43 b 589 -22 672 -43 619 -33 l 589 -233 b 754 -254 633 -246 699 -254 z "},"Җ":{"ha":1389,"x_min":0,"x_max":0,"o":"m 1083 497 l 1381 993 l 1121 993 l 890 581 l 819 581 l 819 993 l 569 993 l 569 581 l 499 581 l 268 993 l 8 993 l 306 497 l -8 0 l 274 0 l 499 376 l 569 376 l 569 0 l 819 0 l 819 376 l 890 376 l 1115 0 l 1200 0 l 1200 -181 l 1422 -181 l 1422 75 l 1350 75 z "},"Қ":{"ha":1000,"x_min":0,"x_max":0,"o":"m 606 503 l 1001 993 l 732 993 l 404 581 l 333 581 l 333 993 l 83 993 l 83 0 l 333 0 l 333 376 l 404 376 l 713 0 l 833 0 l 833 -181 l 1056 -181 l 1056 75 l 964 75 z "},"Ң":{"ha":1007,"x_min":0,"x_max":0,"o":"m 924 993 l 674 993 l 674 604 l 333 604 l 333 993 l 83 993 l 83 0 l 333 0 l 333 400 l 674 400 l 674 0 l 779 0 l 779 -181 l 1001 -181 l 1001 75 l 924 75 z "},"Ү":{"ha":926,"x_min":0,"x_max":0,"o":"m 589 0 l 589 367 l 924 993 l 660 993 l 465 571 l 463 571 l 269 993 l 0 993 l 339 367 l 339 0 z "},"Ұ":{"ha":918,"x_min":0,"x_max":0,"o":"m 919 993 l 656 993 l 461 571 l 458 571 l 265 993 l -4 993 l 335 367 l 335 322 l 154 322 l 154 156 l 335 156 l 335 0 l 585 0 l 585 156 l 765 156 l 765 322 l 585 322 l 585 367 z "},"Ҳ":{"ha":926,"x_min":0,"x_max":0,"o":"m 610 510 l 911 993 l 647 993 l 464 690 l 461 690 l 279 993 l 15 993 l 317 507 l -12 0 l 265 0 l 461 322 l 464 322 l 661 0 l 749 0 l 749 -181 l 971 -181 l 971 75 l 890 75 z "},"Ҷ":{"ha":931,"x_min":0,"x_max":0,"o":"m 847 993 l 597 993 l 597 585 b 446 496 563 535 514 496 b 306 638 360 496 306 550 l 306 993 l 56 993 l 56 596 b 335 288 56 407 167 288 b 594 429 438 288 538 343 l 597 429 l 597 0 l 724 0 l 724 -181 l 946 -181 l 946 75 l 847 75 z "},"Һ":{"ha":946,"x_min":0,"x_max":0,"o":"m 333 0 l 333 342 b 492 497 333 438 399 497 b 639 356 590 497 639 443 l 639 0 l 889 0 l 889 397 b 603 706 889 599 783 706 b 336 564 500 706 379 664 l 333 564 l 333 993 l 83 993 l 83 0 z "},"Ә":{"ha":1035,"x_min":0,"x_max":0,"o":"m 524 1013 b 54 685 288 1013 88 883 l 310 685 b 504 808 322 753 393 808 b 739 576 607 808 713 739 l 47 576 b 44 460 43 538 44 517 b 511 -21 44 211 232 -21 b 993 499 789 -21 993 193 b 524 1013 993 806 797 1013 z m 503 183 b 289 372 394 183 289 268 l 731 372 b 503 183 697 238 607 183 z "},"Ӣ":{"ha":1049,"x_min":0,"x_max":0,"o":"m 718 1078 l 718 1217 l 321 1217 l 321 1078 z m 333 0 l 713 617 l 715 617 l 715 0 l 965 0 l 965 993 l 715 993 l 336 376 l 333 376 l 333 993 l 83 993 l 83 0 z "},"Ө":{"ha":1067,"x_min":0,"x_max":0,"o":"m 533 1015 b 42 497 218 1015 42 796 b 533 -22 42 197 218 -22 b 1025 497 846 -22 1025 197 b 533 1015 1025 796 846 1015 z m 533 811 b 764 581 683 811 747 713 l 303 581 b 533 811 319 713 382 811 z m 533 182 b 301 414 382 182 318 281 l 764 414 b 533 182 747 281 683 182 z "},"Ӯ":{"ha":931,"x_min":0,"x_max":0,"o":"m 663 1078 l 663 1217 l 265 1217 l 265 1078 z m 418 0 l 919 993 l 681 993 l 463 558 l 460 558 l 261 993 l 11 993 l 329 297 l 176 0 z "},"а":{"ha":783,"x_min":0,"x_max":0,"o":"m 258 -22 b 493 86 361 -22 443 24 l 496 86 b 629 -7 507 26 540 -7 b 751 6 661 -7 707 -3 l 751 111 b 733 110 743 110 739 110 b 707 164 711 110 707 126 l 707 439 b 407 735 707 657 600 735 b 60 482 167 735 67 618 l 271 482 b 397 585 278 551 315 585 b 492 521 461 585 492 560 b 304 422 492 450 382 439 b 32 186 153 390 32 333 b 258 -22 32 60 119 -22 z m 351 131 b 260 210 294 131 260 156 b 371 314 260 260 289 294 b 492 347 429 328 463 336 l 492 288 b 351 131 492 206 440 131 z "},"б":{"ha":822,"x_min":0,"x_max":0,"o":"m 422 -24 b 789 356 649 -24 789 117 b 508 735 789 597 675 735 b 217 526 388 735 261 661 l 214 526 b 424 768 228 681 311 754 l 596 790 b 785 993 699 804 785 850 l 618 993 b 521 954 618 979 592 963 l 382 938 b 40 438 171 913 40 739 b 422 -24 40 133 186 -24 z m 422 143 b 265 354 335 143 265 226 b 422 568 265 482 335 568 b 564 356 501 568 564 485 b 422 143 564 229 501 143 z "},"в":{"ha":760,"x_min":0,"x_max":0,"o":"m 444 0 b 733 215 622 0 733 63 b 547 368 733 322 631 361 l 547 371 b 689 525 631 376 689 436 b 428 711 689 626 588 711 l 61 711 l 61 0 z m 283 544 l 422 544 b 478 488 460 544 478 525 b 422 428 478 447 460 428 l 283 428 z m 283 289 l 444 289 b 508 231 488 289 508 269 b 432 167 508 188 483 167 l 283 167 z "},"г":{"ha":581,"x_min":0,"x_max":0,"o":"m 283 0 l 283 544 l 567 544 l 567 711 l 61 711 l 61 0 z "},"ѓ":{"ha":581,"x_min":0,"x_max":0,"o":"m 406 793 l 563 1004 l 313 1004 l 239 793 z m 283 0 l 283 544 l 567 544 l 567 711 l 61 711 l 61 0 z "},"ґ":{"ha":644,"x_min":0,"x_max":0,"o":"m 283 0 l 283 544 l 631 544 l 631 861 l 422 861 l 422 711 l 61 711 l 61 0 z "},"ғ":{"ha":650,"x_min":0,"x_max":0,"o":"m 635 711 l 129 711 l 129 407 l 18 407 l 18 268 l 129 268 l 129 0 l 351 0 l 351 268 l 546 268 l 546 407 l 351 407 l 351 544 l 635 544 z "},"д":{"ha":881,"x_min":0,"x_max":0,"o":"m 756 711 l 186 711 l 157 261 b 67 167 153 193 124 167 l 11 167 l 11 -181 l 219 -181 l 219 0 l 644 0 l 644 -181 l 853 -181 l 853 167 l 756 167 z m 350 169 b 372 267 364 196 369 224 l 390 544 l 533 544 l 533 167 l 350 167 z "},"е":{"ha":796,"x_min":0,"x_max":0,"o":"m 764 329 b 400 735 764 592 642 735 b 31 356 161 735 31 564 b 400 -24 31 133 169 -24 b 758 215 600 -24 718 71 l 532 215 b 406 143 518 179 485 143 b 253 296 322 143 253 197 l 764 296 z m 254 433 b 400 574 260 525 315 574 b 540 433 486 574 540 525 z "},"ѐ":{"ha":796,"x_min":0,"x_max":0,"o":"m 404 1010 l 182 1010 l 311 799 l 478 799 z m 764 329 b 400 735 764 592 642 735 b 31 356 161 735 31 564 b 400 -24 31 133 169 -24 b 758 215 600 -24 718 71 l 532 215 b 406 143 518 179 485 143 b 253 296 322 143 253 197 l 764 296 z m 254 433 b 400 574 260 525 315 574 b 540 433 486 574 540 525 z "},"ё":{"ha":796,"x_min":0,"x_max":0,"o":"m 142 993 l 142 796 l 364 796 l 364 993 z m 431 993 l 431 796 l 653 796 l 653 993 z m 764 329 b 400 735 764 592 642 735 b 31 356 161 735 31 564 b 400 -24 31 133 169 -24 b 758 215 600 -24 718 71 l 532 215 b 406 143 518 179 485 143 b 253 296 322 143 253 197 l 764 296 z m 254 433 b 400 574 260 525 315 574 b 540 433 486 574 540 525 z "},"ж":{"ha":1117,"x_min":0,"x_max":0,"o":"m 250 0 l 410 265 l 447 265 l 447 0 l 669 0 l 669 265 l 707 265 l 867 0 l 1126 0 l 894 357 l 1118 711 l 879 711 l 711 432 l 669 432 l 669 711 l 447 711 l 447 432 l 406 432 l 238 711 l -1 711 l 222 357 l -10 0 z "},"з":{"ha":719,"x_min":0,"x_max":0,"o":"m 360 -24 b 686 200 546 -24 686 63 b 485 360 686 290 625 346 l 485 361 b 676 525 603 372 676 450 b 358 735 676 665 515 735 b 24 496 154 735 24 635 l 246 496 b 350 568 246 540 289 568 b 451 499 397 568 451 542 b 369 428 451 456 428 428 l 274 428 l 274 289 l 374 289 b 461 214 439 289 461 254 b 360 143 461 165 410 143 b 246 219 290 143 246 172 l 24 219 b 360 -24 24 69 164 -24 z "},"и":{"ha":853,"x_min":0,"x_max":0,"o":"m 283 0 l 569 417 l 569 0 l 792 0 l 792 708 l 569 708 l 283 292 l 283 708 l 61 708 l 61 0 z "},"й":{"ha":853,"x_min":0,"x_max":0,"o":"m 438 782 b 660 993 567 782 654 868 l 532 993 b 438 918 528 947 497 918 b 343 993 378 918 347 947 l 215 993 b 438 782 219 864 311 782 z m 283 0 l 569 417 l 569 0 l 792 0 l 792 708 l 569 708 l 283 292 l 283 708 l 61 708 l 61 0 z "},"ѝ":{"ha":853,"x_min":0,"x_max":0,"o":"m 518 796 l 444 1007 l 222 1007 l 351 796 z m 283 0 l 569 417 l 569 0 l 792 0 l 792 708 l 569 708 l 283 292 l 283 708 l 61 708 l 61 0 z "},"к":{"ha":788,"x_min":0,"x_max":0,"o":"m 803 711 l 539 711 l 353 432 l 283 432 l 283 711 l 61 711 l 61 0 l 283 0 l 283 265 l 349 265 l 538 0 l 806 0 l 543 363 z "},"ќ":{"ha":788,"x_min":0,"x_max":0,"o":"m 383 1004 l 310 793 l 476 793 l 633 1004 z m 803 711 l 539 711 l 353 432 l 283 432 l 283 711 l 61 711 l 61 0 l 283 0 l 283 265 l 349 265 l 538 0 l 806 0 l 543 363 z "},"л":{"ha":807,"x_min":0,"x_max":0,"o":"m 119 -21 b 342 229 265 -21 332 75 l 361 542 l 524 542 l 524 0 l 746 0 l 746 708 l 163 708 l 135 254 b 74 146 131 188 111 146 b 18 156 56 146 35 150 l 18 -8 b 119 -21 39 -17 78 -21 z "},"м":{"ha":978,"x_min":0,"x_max":0,"o":"m 283 0 l 283 289 l 286 289 l 413 0 l 551 0 l 692 289 l 694 289 l 694 0 l 917 0 l 917 711 l 731 711 l 493 253 l 490 253 l 267 711 l 61 711 l 61 0 z "},"н":{"ha":825,"x_min":0,"x_max":0,"o":"m 542 440 l 283 440 l 283 711 l 61 711 l 61 0 l 283 0 l 283 274 l 542 274 l 542 0 l 764 0 l 764 711 l 542 711 z "},"о":{"ha":821,"x_min":0,"x_max":0,"o":"m 408 -24 b 790 358 647 -24 790 133 b 413 735 790 582 647 735 b 31 354 174 735 31 578 b 408 -24 31 129 174 -24 z m 411 143 b 256 356 311 143 256 218 b 411 568 256 493 311 568 b 565 356 510 568 565 493 b 411 143 565 218 510 143 z "},"п":{"ha":811,"x_min":0,"x_max":0,"o":"m 283 0 l 283 544 l 528 544 l 528 0 l 750 0 l 750 711 l 61 711 l 61 0 z "},"р":{"ha":835,"x_min":0,"x_max":0,"o":"m 492 733 b 286 640 389 733 314 678 l 283 640 l 283 711 l 61 711 l 61 -246 l 283 -246 l 283 71 l 286 71 b 492 -22 314 33 389 -22 b 801 356 681 -22 801 122 b 492 733 801 589 681 733 z m 431 144 b 288 356 340 144 288 217 b 431 567 288 494 340 567 b 574 356 521 567 574 494 b 431 144 574 217 521 144 z "},"с":{"ha":763,"x_min":0,"x_max":0,"o":"m 397 -24 b 740 268 601 -24 729 99 l 517 268 b 396 143 510 203 483 143 b 258 356 303 143 258 222 b 396 568 258 489 304 568 b 517 446 485 568 510 504 l 740 446 b 392 735 722 613 597 735 b 31 356 172 735 31 576 b 397 -24 31 133 172 -24 z "},"т":{"ha":703,"x_min":0,"x_max":0,"o":"m 463 0 l 463 544 l 689 544 l 689 711 l 14 711 l 14 544 l 240 544 l 240 0 z "},"у":{"ha":763,"x_min":0,"x_max":0,"o":"m 214 -246 b 500 -1 371 -246 440 -164 l 760 711 l 540 711 l 388 243 l 385 243 l 218 711 l -11 711 l 272 10 b 147 -67 253 -65 190 -67 b 81 -62 122 -67 104 -65 l 81 -232 b 214 -246 128 -242 165 -246 z "},"ў":{"ha":763,"x_min":0,"x_max":0,"o":"m 375 785 b 597 996 504 785 592 871 l 469 996 b 375 921 465 950 435 921 b 281 996 315 921 285 950 l 153 996 b 375 785 157 867 249 785 z m 214 -246 b 500 -1 371 -246 440 -164 l 760 711 l 540 711 l 388 243 l 385 243 l 218 711 l -11 711 l 272 10 b 147 -67 253 -65 190 -67 b 81 -62 122 -67 104 -65 l 81 -232 b 214 -246 128 -242 165 -246 z "},"ф":{"ha":1000,"x_min":0,"x_max":0,"o":"m 969 356 b 608 728 969 558 833 694 l 608 993 l 393 993 l 393 728 b 31 356 167 696 31 558 b 393 -14 31 156 167 18 l 393 -246 l 608 -246 l 608 -14 b 969 356 833 19 969 156 z m 249 356 b 393 558 249 456 303 528 l 393 156 b 249 356 301 185 249 257 z m 608 558 b 751 356 699 528 751 456 b 608 156 751 257 699 185 z "},"х":{"ha":722,"x_min":0,"x_max":0,"o":"m 232 0 l 360 219 l 363 219 l 490 0 l 740 0 l 496 363 l 713 711 l 476 711 l 363 506 l 360 506 l 246 711 l 10 711 l 226 363 l -18 0 z "},"ч":{"ha":764,"x_min":0,"x_max":0,"o":"m 703 0 l 703 708 l 481 708 l 481 431 b 371 368 446 389 415 368 b 264 490 306 368 264 415 l 264 708 l 42 708 l 42 407 b 272 188 42 272 131 188 b 478 282 356 188 435 224 l 481 282 l 481 0 z "},"ц":{"ha":875,"x_min":0,"x_max":0,"o":"m 847 -181 l 847 167 l 750 167 l 750 711 l 528 711 l 528 167 l 283 167 l 283 711 l 61 711 l 61 0 l 639 0 l 639 -181 z "},"ш":{"ha":1064,"x_min":0,"x_max":0,"o":"m 1003 0 l 1003 711 l 794 711 l 794 167 l 636 167 l 636 711 l 428 711 l 428 167 l 269 167 l 269 711 l 61 711 l 61 0 z "},"щ":{"ha":1128,"x_min":0,"x_max":0,"o":"m 1100 -181 l 1100 167 l 1003 167 l 1003 711 l 794 711 l 794 167 l 636 167 l 636 711 l 428 711 l 428 167 l 269 167 l 269 711 l 61 711 l 61 0 l 892 0 l 892 -181 z "},"џ":{"ha":811,"x_min":0,"x_max":0,"o":"m 510 -181 l 510 0 l 750 0 l 750 711 l 528 711 l 528 167 l 283 167 l 283 711 l 61 711 l 61 0 l 301 0 l 301 -181 z "},"ь":{"ha":721,"x_min":0,"x_max":0,"o":"m 417 0 b 706 250 594 0 706 96 b 422 497 706 401 596 497 l 283 497 l 283 711 l 61 711 l 61 0 z m 283 331 l 390 331 b 481 246 446 331 481 297 b 390 167 481 197 446 167 l 283 167 z "},"ы":{"ha":1031,"x_min":0,"x_max":0,"o":"m 389 0 b 678 250 567 0 678 96 b 394 497 678 401 568 497 l 283 497 l 283 711 l 61 711 l 61 0 z m 969 0 l 969 711 l 747 711 l 747 0 z m 283 331 l 363 331 b 453 246 418 331 453 297 b 363 167 453 197 418 167 l 283 167 z "},"ъ":{"ha":797,"x_min":0,"x_max":0,"o":"m 493 0 b 782 250 671 0 782 96 b 499 497 782 401 672 497 l 360 497 l 360 711 l 14 711 l 14 544 l 138 544 l 138 0 z m 360 331 l 467 331 b 557 246 522 331 557 297 b 467 167 557 197 522 167 l 360 167 z "},"љ":{"ha":1121,"x_min":0,"x_max":0,"o":"m 119 -18 b 342 232 265 -18 332 78 l 361 544 l 489 544 l 489 0 l 817 0 b 1106 250 994 0 1106 96 b 822 497 1106 401 996 497 l 711 497 l 711 711 l 163 711 l 135 257 b 74 149 131 190 111 149 b 18 158 56 149 35 153 l 18 -6 b 119 -18 39 -14 78 -18 z m 711 331 l 790 331 b 881 246 846 331 881 297 b 790 167 881 197 846 167 l 711 167 z "},"њ":{"ha":1115,"x_min":0,"x_max":0,"o":"m 706 469 l 706 711 l 483 711 l 483 469 l 283 469 l 283 711 l 61 711 l 61 0 l 283 0 l 283 303 l 483 303 l 483 0 l 811 0 b 1100 239 989 0 1100 85 b 817 469 1100 390 990 469 z m 706 167 l 706 303 l 785 303 b 875 235 840 303 875 286 b 785 167 875 186 840 167 z "},"ѕ":{"ha":722,"x_min":0,"x_max":0,"o":"m 376 -22 b 694 208 582 -22 694 60 b 415 449 694 374 556 415 b 267 524 308 474 267 476 b 354 581 267 558 293 581 b 465 493 428 581 458 550 l 674 493 b 350 733 667 618 578 733 b 39 510 150 733 39 643 b 293 286 39 365 168 315 b 467 192 396 263 467 256 b 372 131 467 151 438 131 b 233 236 288 131 240 165 l 25 236 b 376 -22 31 97 128 -22 z "},"є":{"ha":769,"x_min":0,"x_max":0,"o":"m 399 143 b 253 288 310 143 265 190 l 469 288 l 469 426 l 253 426 b 399 568 267 521 311 568 b 529 467 481 568 519 525 l 751 467 b 403 735 717 614 611 735 b 31 354 176 735 31 582 b 406 -24 31 131 140 -24 b 751 247 611 -24 728 83 l 529 247 b 399 143 519 189 481 143 z "},"э":{"ha":768,"x_min":0,"x_max":0,"o":"m 367 735 b 18 467 158 735 53 614 l 240 467 b 371 568 250 525 289 568 b 517 426 458 568 503 521 l 300 426 l 300 288 l 517 288 b 371 143 504 190 460 143 b 240 247 289 143 250 189 l 18 247 b 364 -24 42 83 158 -24 b 739 354 629 -24 739 131 b 367 735 739 582 593 735 z "},"і":{"ha":344,"x_min":0,"x_max":0,"o":"m 283 796 l 283 993 l 61 993 l 61 796 z m 283 0 l 283 711 l 61 711 l 61 0 z "},"ї":{"ha":344,"x_min":0,"x_max":0,"o":"m 153 808 l 153 981 l -14 981 l -14 808 z m 358 808 l 358 981 l 192 981 l 192 808 z m 283 0 l 283 711 l 61 711 l 61 0 z "},"ј":{"ha":344,"x_min":0,"x_max":0,"o":"m 283 796 l 283 993 l 61 993 l 61 796 z m 61 -254 b 283 21 224 -254 283 -153 l 283 711 l 61 711 l 61 10 b -11 -75 61 -67 32 -75 b -62 -71 -29 -75 -40 -74 l -62 -240 b 61 -254 -18 -250 19 -254 z "},"ћ":{"ha":807,"x_min":0,"x_max":0,"o":"m 519 733 b 286 608 393 733 324 674 l 283 608 l 283 799 l 499 799 l 499 924 l 283 924 l 283 993 l 61 993 l 61 924 l -24 924 l -24 799 l 61 799 l 61 0 l 283 0 l 283 411 b 417 553 283 510 332 553 b 528 410 490 553 528 517 l 528 0 l 750 0 l 750 481 b 519 733 750 643 657 733 z "},"ю":{"ha":1022,"x_min":0,"x_max":0,"o":"m 668 735 b 347 439 500 735 376 625 l 283 439 l 283 711 l 61 711 l 61 0 l 283 0 l 283 272 l 347 272 b 664 -24 375 86 499 -24 b 990 358 856 -24 990 121 b 668 735 990 593 857 735 z m 667 143 b 567 356 603 143 567 206 b 667 568 567 506 603 568 b 765 356 731 568 765 506 b 667 143 765 206 731 143 z "},"я":{"ha":754,"x_min":0,"x_max":0,"o":"m 250 0 b 403 221 268 36 279 221 l 471 221 l 471 0 l 693 0 l 693 711 l 296 711 b 50 492 126 711 50 594 b 242 303 50 376 140 321 l 242 301 b 10 6 53 278 64 117 l 10 0 z m 360 374 b 275 465 307 374 275 411 b 357 544 275 513 308 544 l 471 544 l 471 374 z "},"ђ":{"ha":807,"x_min":0,"x_max":0,"o":"m 501 -254 b 750 21 664 -254 750 -153 l 750 481 b 519 733 750 643 657 733 b 286 608 393 733 324 674 l 283 608 l 283 799 l 499 799 l 499 924 l 283 924 l 283 993 l 61 993 l 61 924 l -24 924 l -24 799 l 61 799 l 61 0 l 283 0 l 283 411 b 417 553 283 510 332 553 b 528 410 490 553 528 517 l 528 10 b 456 -75 528 -53 499 -75 b 381 -71 438 -75 403 -74 l 381 -240 b 501 -254 425 -250 460 -254 z "},"җ":{"ha":1117,"x_min":0,"x_max":0,"o":"m 894 357 l 1118 711 l 879 711 l 711 432 l 669 432 l 669 711 l 447 711 l 447 432 l 406 432 l 238 711 l -1 711 l 222 357 l -10 0 l 250 0 l 410 265 l 447 265 l 447 0 l 669 0 l 669 265 l 707 265 l 867 0 l 954 0 l 954 -181 l 1163 -181 l 1163 139 l 1036 139 z "},"қ":{"ha":788,"x_min":0,"x_max":0,"o":"m 543 363 l 803 711 l 539 711 l 353 432 l 283 432 l 283 711 l 61 711 l 61 0 l 283 0 l 283 265 l 349 265 l 538 0 l 618 0 l 618 -181 l 826 -181 l 826 139 l 704 139 z "},"ң":{"ha":825,"x_min":0,"x_max":0,"o":"m 764 711 l 542 711 l 542 440 l 283 440 l 283 711 l 61 711 l 61 0 l 283 0 l 283 274 l 542 274 l 542 0 l 646 0 l 646 -181 l 854 -181 l 854 139 l 764 139 z "},"ү":{"ha":764,"x_min":0,"x_max":0,"o":"m 493 -246 l 493 71 l 774 711 l 557 711 l 385 304 l 382 304 l 225 711 l -11 711 l 271 71 l 271 -246 z "},"ұ":{"ha":764,"x_min":0,"x_max":0,"o":"m 774 711 l 557 711 l 385 304 l 382 304 l 225 711 l -11 711 l 271 71 l 271 22 l 104 22 l 104 -117 l 271 -117 l 271 -246 l 493 -246 l 493 -117 l 660 -117 l 660 22 l 493 22 l 493 71 z "},"ҳ":{"ha":722,"x_min":0,"x_max":0,"o":"m 496 363 l 713 711 l 476 711 l 363 506 l 360 506 l 246 711 l 10 711 l 226 363 l -18 0 l 232 0 l 360 219 l 363 219 l 490 0 l 571 0 l 571 -181 l 779 -181 l 779 139 l 647 139 z "},"ҷ":{"ha":764,"x_min":0,"x_max":0,"o":"m 703 708 l 481 708 l 481 431 b 371 368 446 389 415 368 b 264 490 306 368 264 415 l 264 708 l 42 708 l 42 407 b 272 188 42 272 131 188 b 478 282 356 188 435 224 l 481 282 l 481 0 l 583 0 l 583 -181 l 792 -181 l 792 139 l 703 139 z "},"һ":{"ha":807,"x_min":0,"x_max":0,"o":"m 519 733 b 286 608 393 733 324 674 l 283 608 l 283 993 l 61 993 l 61 0 l 283 0 l 283 411 b 417 553 283 510 332 553 b 528 410 490 553 528 517 l 528 0 l 750 0 l 750 481 b 519 733 750 643 657 733 z "},"ә":{"ha":785,"x_min":0,"x_max":0,"o":"m 394 735 b 39 492 221 735 72 660 l 261 492 b 389 568 275 538 319 568 b 526 408 461 568 515 511 l 35 408 b 31 351 32 388 31 365 b 388 -24 31 132 169 -24 b 754 354 600 -24 754 139 b 394 735 754 583 624 735 z m 389 143 b 256 269 307 143 256 193 l 518 269 b 389 143 499 189 453 143 z "},"ӣ":{"ha":853,"x_min":0,"x_max":0,"o":"m 636 793 l 636 932 l 239 932 l 239 793 z m 283 0 l 569 417 l 569 0 l 792 0 l 792 708 l 569 708 l 283 292 l 283 708 l 61 708 l 61 0 z "},"ө":{"ha":821,"x_min":0,"x_max":0,"o":"m 413 735 b 31 354 174 735 31 578 b 408 -24 31 129 174 -24 b 790 358 647 -24 790 133 b 413 735 790 582 647 735 z m 411 568 b 560 425 492 568 543 518 l 261 425 b 411 568 278 518 329 568 z m 411 143 b 261 286 329 143 278 193 l 560 286 b 411 143 543 193 492 143 z "},"ӯ":{"ha":763,"x_min":0,"x_max":0,"o":"m 574 796 l 574 935 l 176 935 l 176 796 z m 214 -246 b 500 -1 371 -246 440 -164 l 760 711 l 540 711 l 388 243 l 385 243 l 218 711 l -11 711 l 272 10 b 147 -67 253 -65 190 -67 b 81 -62 122 -67 104 -65 l 81 -232 b 214 -246 128 -242 165 -246 z "},"Δ":{"ha":953,"x_min":0,"x_max":0,"o":"m 340 993 l 29 204 l 29 0 l 924 0 l 924 204 l 613 993 z m 482 764 l 690 197 l 261 197 l 469 764 z "},"Ω":{"ha":1111,"x_min":0,"x_max":0,"o":"m 486 0 l 486 188 b 307 531 386 251 307 356 b 556 813 307 722 401 813 b 804 531 710 813 804 722 b 625 188 804 356 725 251 l 625 0 l 1064 0 l 1064 203 l 851 203 b 1046 567 975 278 1046 401 b 556 1013 1046 833 861 1013 b 65 567 250 1013 65 833 b 260 203 65 401 136 278 l 47 203 l 47 0 z "},"μ":{"ha":811,"x_min":0,"x_max":0,"o":"m 528 300 b 394 158 528 201 479 158 b 283 301 321 158 283 194 l 283 711 l 61 711 l 61 -246 l 283 -246 l 283 0 b 347 -14 303 -10 325 -14 b 525 103 414 -14 486 24 l 528 103 l 528 0 l 750 0 l 750 711 l 528 711 z "},"π":{"ha":857,"x_min":0,"x_max":0,"o":"m 818 711 l 22 711 l 22 544 l 132 544 l 132 0 l 354 0 l 354 544 l 483 544 l 483 231 b 694 -14 483 57 547 -14 b 813 1 735 -14 771 -10 l 813 158 b 767 153 792 154 783 153 b 706 236 731 153 706 160 l 706 544 l 818 544 z "},"⓪":{"ha":1156,"x_min":0,"x_max":0,"o":"m 578 -22 b 1097 496 897 -22 1097 178 b 578 1015 1097 815 897 1015 b 58 496 258 1015 58 815 b 578 -22 58 178 258 -22 z m 578 110 b 211 496 347 110 211 256 b 578 883 211 736 347 883 b 944 496 808 883 944 736 b 578 110 944 256 808 110 z m 579 201 b 839 496 757 201 839 338 b 579 792 839 654 757 792 b 317 496 401 792 317 653 b 579 201 317 339 401 201 z m 579 336 b 490 496 507 336 490 393 b 579 656 490 603 508 656 b 665 496 650 656 665 597 b 579 336 665 394 650 336 z "},"①":{"ha":1156,"x_min":0,"x_max":0,"o":"m 578 -22 b 1097 496 897 -22 1097 178 b 578 1015 1097 815 897 1015 b 58 496 258 1015 58 815 b 578 -22 58 178 258 -22 z m 578 110 b 211 496 347 110 211 256 b 578 883 211 736 347 883 b 944 496 808 883 944 736 b 578 110 944 256 808 110 z m 507 217 l 685 217 l 685 781 l 538 781 b 388 683 539 719 468 683 l 388 556 b 507 568 444 556 489 560 z "},"②":{"ha":1156,"x_min":0,"x_max":0,"o":"m 578 -22 b 1097 496 897 -22 1097 178 b 578 1015 1097 815 897 1015 b 58 496 258 1015 58 815 b 578 -22 58 178 258 -22 z m 578 110 b 211 496 347 110 211 256 b 578 883 211 736 347 883 b 944 496 808 883 944 736 b 578 110 944 256 808 110 z m 806 217 l 806 351 l 613 351 l 613 353 b 664 399 624 367 642 381 b 803 621 722 446 803 510 b 589 796 803 731 719 796 b 357 568 429 796 357 711 l 518 568 b 583 661 518 644 546 661 b 633 608 614 661 633 644 b 503 451 633 539 560 494 b 351 217 375 354 351 333 z "},"③":{"ha":1156,"x_min":0,"x_max":0,"o":"m 578 -22 b 1097 496 897 -22 1097 178 b 578 1015 1097 815 897 1015 b 58 496 258 1015 58 815 b 578 -22 58 178 258 -22 z m 578 110 b 211 496 347 110 211 256 b 578 883 211 736 347 883 b 944 496 808 883 944 736 b 578 110 944 256 808 110 z m 586 200 b 817 378 726 200 817 261 b 722 511 817 443 789 489 l 722 513 b 801 636 760 535 801 572 b 585 793 801 736 704 793 b 356 603 443 793 356 713 l 515 603 b 578 658 515 643 543 658 b 629 613 606 658 629 644 b 550 557 629 574 599 557 l 533 557 l 533 446 l 553 446 b 644 389 619 446 644 428 b 579 333 644 353 624 333 b 500 418 519 333 500 360 l 339 418 b 586 200 339 278 428 200 z "},"④":{"ha":1156,"x_min":0,"x_max":0,"o":"m 578 -22 b 1097 496 897 -22 1097 178 b 578 1015 1097 815 897 1015 b 58 496 258 1015 58 815 b 578 -22 58 178 258 -22 z m 578 110 b 211 496 347 110 211 256 b 578 883 211 736 347 883 b 944 496 808 883 944 736 b 578 110 944 256 808 110 z m 744 214 l 744 326 l 828 326 l 828 460 l 744 460 l 744 778 l 576 778 l 328 493 l 328 326 l 576 326 l 576 214 z m 576 603 l 576 460 l 446 460 z "},"⑤":{"ha":1156,"x_min":0,"x_max":0,"o":"m 578 -22 b 1097 496 897 -22 1097 178 b 578 1015 1097 815 897 1015 b 58 496 258 1015 58 815 b 578 -22 58 178 258 -22 z m 578 110 b 211 496 347 110 211 256 b 578 883 211 736 347 883 b 944 496 808 883 944 736 b 578 110 944 256 808 110 z m 594 200 b 822 407 724 200 822 265 b 632 600 822 532 746 600 b 517 565 585 600 549 586 l 517 567 l 533 644 l 799 644 l 799 778 l 419 778 l 351 454 l 508 454 b 578 488 531 479 556 488 b 651 408 632 488 651 454 b 585 333 651 360 628 333 b 506 394 535 333 510 364 l 335 394 b 594 200 338 276 425 200 z "},"⑥":{"ha":1156,"x_min":0,"x_max":0,"o":"m 578 -22 b 1097 496 897 -22 1097 178 b 578 1015 1097 815 897 1015 b 58 496 258 1015 58 815 b 578 -22 58 178 258 -22 z m 578 110 b 211 496 347 110 211 256 b 578 883 211 736 347 883 b 944 496 808 883 944 736 b 578 110 944 256 808 110 z m 582 200 b 824 407 726 200 824 282 b 621 604 824 524 744 604 b 488 557 557 604 506 576 l 482 558 l 483 575 b 576 672 489 636 518 672 b 642 635 611 672 629 657 l 804 635 b 581 793 783 726 706 793 b 333 485 438 793 333 688 b 582 200 333 346 386 200 z m 581 324 b 500 404 529 324 500 358 b 583 483 500 444 528 483 b 664 404 639 483 664 444 b 581 324 664 358 633 324 z "},"⑦":{"ha":1156,"x_min":0,"x_max":0,"o":"m 578 -22 b 1097 496 897 -22 1097 178 b 578 1015 1097 815 897 1015 b 58 496 258 1015 58 815 b 578 -22 58 178 258 -22 z m 578 110 b 211 496 347 110 211 256 b 578 883 211 736 347 883 b 944 496 808 883 944 736 b 578 110 944 256 808 110 z m 631 199 b 790 639 631 372 672 542 l 790 763 l 365 763 l 365 629 l 614 629 l 614 628 b 454 199 526 551 454 381 z "},"⑧":{"ha":1156,"x_min":0,"x_max":0,"o":"m 578 -22 b 1097 496 897 -22 1097 178 b 578 1015 1097 815 897 1015 b 58 496 258 1015 58 815 b 578 -22 58 178 258 -22 z m 578 110 b 211 496 347 110 211 256 b 578 883 211 736 347 883 b 944 496 808 883 944 736 b 578 110 944 256 808 110 z m 576 200 b 822 376 711 200 822 260 b 715 518 822 449 771 493 l 715 519 b 797 639 771 550 797 589 b 576 793 797 736 699 793 b 357 639 458 793 357 738 b 439 519 357 574 401 540 l 439 518 b 333 376 376 490 333 444 b 576 200 333 260 440 200 z m 576 561 b 506 622 524 561 506 593 b 576 681 506 649 525 681 b 647 622 628 681 647 649 b 576 561 647 593 628 561 z m 576 322 b 504 394 525 322 504 361 b 576 463 504 428 526 463 b 649 394 626 463 649 428 b 576 322 649 360 626 322 z "},"⑨":{"ha":1156,"x_min":0,"x_max":0,"o":"m 578 -22 b 1097 496 897 -22 1097 178 b 578 1015 1097 815 897 1015 b 58 496 258 1015 58 815 b 578 -22 58 178 258 -22 z m 578 110 b 211 496 347 110 211 256 b 578 883 211 736 347 883 b 944 496 808 883 944 736 b 578 110 944 256 808 110 z m 575 200 b 825 494 719 200 825 301 b 574 793 825 640 772 793 b 332 586 429 793 332 711 b 533 386 332 468 411 386 b 657 424 593 386 639 407 l 658 422 l 658 415 b 579 322 658 353 626 322 b 518 358 547 322 529 338 l 347 358 b 575 200 368 267 457 200 z m 576 510 b 492 589 521 510 492 549 b 575 669 492 635 522 669 b 656 589 626 669 656 635 b 576 510 656 549 632 510 z "},"⁄":{"ha":333,"x_min":0,"x_max":0,"o":"m -54 0 l 575 993 l 381 993 l -249 0 z "},"½":{"ha":1214,"x_min":0,"x_max":0,"o":"m 136 429 l 314 429 l 314 993 l 167 993 b 17 896 168 932 97 896 l 17 768 b 136 781 74 768 118 772 z m 331 0 l 960 993 l 765 993 l 136 0 z m 1178 0 l 1178 135 l 985 135 l 985 136 b 1036 182 996 150 1014 164 b 1175 404 1094 229 1175 293 b 961 579 1175 514 1092 579 b 729 351 801 579 729 494 l 890 351 b 956 444 890 428 918 444 b 1006 392 986 444 1006 428 b 875 235 1006 322 932 278 b 724 0 747 138 724 117 z "},"¼":{"ha":1143,"x_min":0,"x_max":0,"o":"m 138 429 l 315 429 l 315 993 l 168 993 b 18 896 169 932 99 896 l 18 768 b 138 781 75 768 119 772 z m 321 0 l 950 993 l 756 993 l 126 0 z m 1040 0 l 1040 113 l 1124 113 l 1124 246 l 1040 246 l 1040 564 l 872 564 l 624 279 l 624 113 l 872 113 l 872 0 z m 872 389 l 872 246 l 742 246 z "},"¾":{"ha":1278,"x_min":0,"x_max":0,"o":"m 285 415 b 515 593 425 415 515 476 b 421 726 515 658 488 704 l 421 728 b 500 851 458 750 500 788 b 283 1008 500 951 403 1008 b 54 818 142 1008 54 928 l 214 818 b 276 874 214 858 242 874 b 328 828 304 874 328 860 b 249 772 328 789 297 772 l 232 772 l 232 661 l 251 661 b 343 604 318 661 343 643 b 278 549 343 568 322 549 b 199 633 218 549 199 575 l 38 633 b 285 415 38 493 126 415 z m 451 0 l 1081 993 l 886 993 l 257 0 z m 1168 0 l 1168 113 l 1251 113 l 1251 246 l 1168 246 l 1168 564 l 1000 564 l 751 279 l 751 113 l 1000 113 l 1000 0 z m 1000 389 l 1000 246 l 869 246 z "},"⅛":{"ha":1194,"x_min":0,"x_max":0,"o":"m 138 429 l 315 429 l 315 993 l 168 993 b 18 896 169 932 99 896 l 18 768 b 138 781 75 768 119 772 z m 332 0 l 961 993 l 767 993 l 138 0 z m 924 -14 b 1169 163 1058 -14 1169 46 b 1063 304 1169 235 1118 279 l 1063 306 b 1144 425 1118 336 1144 375 b 924 579 1144 522 1046 579 b 704 425 806 579 704 524 b 786 306 704 360 749 326 l 786 304 b 681 163 724 276 681 231 b 924 -14 681 46 788 -14 z m 924 347 b 853 408 871 347 853 379 b 924 467 853 435 872 467 b 994 408 975 467 994 435 b 924 347 994 379 975 347 z m 924 108 b 851 181 872 108 851 147 b 924 249 851 214 874 249 b 996 181 974 249 996 214 b 924 108 996 146 974 108 z "},"⅜":{"ha":1376,"x_min":0,"x_max":0,"o":"m 285 415 b 515 593 425 415 515 476 b 421 726 515 658 488 704 l 421 728 b 500 851 458 750 500 788 b 283 1008 500 951 403 1008 b 54 818 142 1008 54 928 l 214 818 b 276 874 214 858 242 874 b 328 828 304 874 328 860 b 249 772 328 789 297 772 l 232 772 l 232 661 l 251 661 b 343 604 318 661 343 643 b 278 549 343 568 322 549 b 199 633 218 549 199 575 l 38 633 b 285 415 38 493 126 415 z m 479 0 l 1108 993 l 914 993 l 285 0 z m 1099 -14 b 1344 163 1233 -14 1344 46 b 1238 304 1344 235 1293 279 l 1238 306 b 1319 425 1293 336 1319 375 b 1099 579 1319 522 1221 579 b 879 425 981 579 879 524 b 961 306 879 360 924 326 l 961 304 b 856 163 899 276 856 231 b 1099 -14 856 46 963 -14 z m 1099 347 b 1028 408 1046 347 1028 379 b 1099 467 1028 435 1047 467 b 1169 408 1150 467 1169 435 b 1099 347 1169 379 1150 347 z m 1099 108 b 1026 181 1047 108 1026 147 b 1099 249 1026 214 1049 249 b 1171 181 1149 249 1171 214 b 1099 108 1171 146 1149 108 z "},"⅝":{"ha":1371,"x_min":0,"x_max":0,"o":"m 289 415 b 517 622 418 415 517 481 b 326 815 517 747 440 815 b 211 781 279 815 243 801 l 211 782 l 228 860 l 493 860 l 493 993 l 114 993 l 46 669 l 203 669 b 272 703 225 694 250 703 b 346 624 326 703 346 669 b 279 549 346 575 322 549 b 200 610 229 549 204 579 l 29 610 b 289 415 32 492 119 415 z m 475 0 l 1104 993 l 910 993 l 281 0 z m 1094 -14 b 1340 163 1229 -14 1340 46 b 1233 304 1340 235 1289 279 l 1233 306 b 1315 425 1289 336 1315 375 b 1094 579 1315 522 1217 579 b 875 425 976 579 875 524 b 957 306 875 360 919 326 l 957 304 b 851 163 894 276 851 231 b 1094 -14 851 46 958 -14 z m 1094 347 b 1024 408 1042 347 1024 379 b 1094 467 1024 435 1043 467 b 1165 408 1146 467 1165 435 b 1094 347 1165 379 1146 347 z m 1094 108 b 1022 181 1043 108 1022 147 b 1094 249 1022 214 1044 249 b 1167 181 1144 249 1167 214 b 1094 108 1167 146 1144 108 z "},"⅞":{"ha":1236,"x_min":0,"x_max":0,"o":"m 283 429 b 443 869 283 603 325 772 l 443 993 l 18 993 l 18 860 l 267 860 l 267 858 b 107 429 179 782 107 611 z m 346 0 l 975 993 l 781 993 l 151 0 z m 965 -14 b 1211 163 1100 -14 1211 46 b 1104 304 1211 235 1160 279 l 1104 306 b 1186 425 1160 336 1186 375 b 965 579 1186 522 1088 579 b 746 425 847 579 746 524 b 828 306 746 360 790 326 l 828 304 b 722 163 765 276 722 231 b 965 -14 722 46 829 -14 z m 965 347 b 894 408 913 347 894 379 b 965 467 894 435 914 467 b 1036 408 1017 467 1036 435 b 965 347 1036 379 1017 347 z m 965 108 b 893 181 914 108 893 147 b 965 249 893 214 915 249 b 1038 181 1015 249 1038 214 b 965 108 1038 146 1015 108 z "},"₀":{"ha":586,"x_min":0,"x_max":0,"o":"m 294 -151 b 554 143 472 -151 554 -15 b 294 439 554 301 472 439 b 32 143 117 439 32 300 b 294 -151 32 -14 117 -151 z m 294 -17 b 206 143 222 -17 206 40 b 294 303 206 250 224 303 b 381 143 365 303 381 244 b 294 -17 381 42 365 -17 z "},"₁":{"ha":371,"x_min":0,"x_max":0,"o":"m 138 -139 l 315 -139 l 315 425 l 168 425 b 18 328 169 364 99 328 l 18 200 b 138 213 75 200 119 204 z "},"₂":{"ha":521,"x_min":0,"x_max":0,"o":"m 482 -139 l 482 -4 l 289 -4 l 289 -3 b 340 43 300 11 318 25 b 479 265 399 90 479 154 b 265 440 479 375 396 440 b 33 213 106 440 33 356 l 194 213 b 260 306 194 289 222 306 b 310 253 290 306 310 289 b 179 96 310 183 236 139 b 28 -139 51 -1 28 -22 z "},"₃":{"ha":533,"x_min":0,"x_max":0,"o":"m 271 -153 b 501 25 411 -153 501 -92 b 407 158 501 90 474 136 l 407 160 b 486 283 444 182 486 219 b 269 440 486 383 389 440 b 40 250 128 440 40 360 l 200 250 b 263 306 200 290 228 306 b 314 260 290 306 314 292 b 235 204 314 221 283 204 l 218 204 l 218 93 l 238 93 b 329 36 304 93 329 75 b 264 -19 329 0 308 -19 b 185 65 204 -19 185 7 l 24 65 b 271 -153 24 -75 113 -153 z "},"₄":{"ha":563,"x_min":0,"x_max":0,"o":"m 449 -139 l 449 -26 l 532 -26 l 532 107 l 449 107 l 449 425 l 281 425 l 32 140 l 32 -26 l 281 -26 l 281 -139 z m 281 250 l 281 107 l 150 107 z "},"₅":{"ha":544,"x_min":0,"x_max":0,"o":"m 283 -153 b 511 54 413 -153 511 -87 b 321 247 511 179 435 247 b 206 213 274 247 238 233 l 206 214 l 222 292 l 488 292 l 488 425 l 108 425 l 40 101 l 197 101 b 267 135 219 126 244 135 b 340 56 321 135 340 101 b 274 -19 340 7 317 -19 b 194 42 224 -19 199 11 l 24 42 b 283 -153 26 -76 114 -153 z "},"₆":{"ha":554,"x_min":0,"x_max":0,"o":"m 282 -153 b 524 54 426 -153 524 -71 b 321 251 524 171 444 251 b 188 204 257 251 206 224 l 182 206 l 183 222 b 276 319 189 283 218 319 b 342 282 311 319 329 304 l 504 282 b 281 440 483 374 406 440 b 33 132 138 440 33 335 b 282 -153 33 -7 86 -153 z m 281 -29 b 200 51 229 -29 200 6 b 283 131 200 92 228 131 b 364 51 339 131 364 92 b 281 -29 364 6 333 -29 z "},"₇":{"ha":463,"x_min":0,"x_max":0,"o":"m 281 -139 b 440 301 281 35 322 204 l 440 425 l 15 425 l 15 292 l 264 292 l 264 290 b 104 -139 176 214 104 43 z "},"₈":{"ha":549,"x_min":0,"x_max":0,"o":"m 274 -153 b 519 24 408 -153 519 -93 b 413 165 519 96 468 140 l 413 167 b 494 286 468 197 494 236 b 274 440 494 383 396 440 b 54 286 156 440 54 385 b 136 167 54 221 99 188 l 136 165 b 31 24 74 138 31 92 b 274 -153 31 -93 138 -153 z m 274 208 b 203 269 221 208 203 240 b 274 328 203 296 222 328 b 344 269 325 328 344 296 b 274 208 344 240 325 208 z m 274 -31 b 201 42 222 -31 201 8 b 274 110 201 75 224 110 b 346 42 324 110 346 75 b 274 -31 346 7 324 -31 z "},"₉":{"ha":557,"x_min":0,"x_max":0,"o":"m 274 -153 b 524 142 418 -153 524 -51 b 272 440 524 288 471 440 b 31 233 128 440 31 358 b 232 33 31 115 110 33 b 356 71 292 33 338 54 l 357 69 l 357 63 b 278 -31 357 0 325 -31 b 217 6 246 -31 228 -15 l 46 6 b 274 -153 67 -86 156 -153 z m 275 157 b 190 236 219 157 190 196 b 274 317 190 282 221 317 b 354 236 325 317 354 282 b 275 157 354 196 331 157 z "},"⁰":{"ha":586,"x_min":0,"x_max":0,"o":"m 294 500 b 554 794 472 500 554 636 b 294 1090 554 953 472 1090 b 32 794 117 1090 32 951 b 294 500 32 638 117 500 z m 294 635 b 206 794 222 635 206 692 b 294 954 206 901 224 954 b 381 794 365 954 381 896 b 294 635 381 693 365 635 z "},"¹":{"ha":371,"x_min":0,"x_max":0,"o":"m 138 506 l 315 506 l 315 1069 l 168 1069 b 18 972 169 1008 99 972 l 18 844 b 138 857 75 844 119 849 z "},"²":{"ha":521,"x_min":0,"x_max":0,"o":"m 482 506 l 482 640 l 289 640 l 289 642 b 340 688 300 656 318 669 b 479 910 399 735 479 799 b 265 1085 479 1019 396 1085 b 33 857 106 1085 33 1000 l 194 857 b 260 950 194 933 222 950 b 310 897 290 950 310 933 b 179 740 310 828 236 783 b 28 506 51 643 28 622 z "},"³":{"ha":533,"x_min":0,"x_max":0,"o":"m 271 500 b 501 678 411 500 501 561 b 407 811 501 743 474 789 l 407 813 b 486 936 444 835 486 872 b 269 1093 486 1036 389 1093 b 40 903 128 1093 40 1013 l 200 903 b 263 958 200 943 228 958 b 314 913 290 958 314 944 b 235 857 314 874 283 857 l 218 857 l 218 746 l 238 746 b 329 689 304 746 329 728 b 264 633 329 653 308 633 b 185 718 204 633 185 660 l 24 718 b 271 500 24 578 113 500 z "},"⁴":{"ha":563,"x_min":0,"x_max":0,"o":"m 449 506 l 449 618 l 532 618 l 532 751 l 449 751 l 449 1069 l 281 1069 l 32 785 l 32 618 l 281 618 l 281 506 z m 281 894 l 281 751 l 150 751 z "},"⁵":{"ha":544,"x_min":0,"x_max":0,"o":"m 283 492 b 511 699 413 492 511 557 b 321 892 511 824 435 892 b 206 857 274 892 238 878 l 206 858 l 222 936 l 488 936 l 488 1069 l 108 1069 l 40 746 l 197 746 b 267 779 219 771 244 779 b 340 700 321 779 340 746 b 274 625 340 651 317 625 b 194 686 224 625 199 656 l 24 686 b 283 492 26 568 114 492 z "},"⁶":{"ha":554,"x_min":0,"x_max":0,"o":"m 282 499 b 524 706 426 499 524 581 b 321 903 524 822 444 903 b 188 856 257 903 206 875 l 182 857 l 183 874 b 276 971 189 935 218 971 b 342 933 311 971 329 956 l 504 933 b 281 1092 483 1025 406 1092 b 33 783 138 1092 33 986 b 282 499 33 644 86 499 z m 281 622 b 200 703 229 622 200 657 b 283 782 200 743 228 782 b 364 703 339 782 364 743 b 281 622 364 657 333 622 z "},"⁷":{"ha":463,"x_min":0,"x_max":0,"o":"m 281 506 b 440 946 281 679 322 849 l 440 1069 l 15 1069 l 15 936 l 264 936 l 264 935 b 104 506 176 858 104 688 z "},"⁸":{"ha":549,"x_min":0,"x_max":0,"o":"m 274 499 b 519 675 408 499 519 558 b 413 817 519 747 468 792 l 413 818 b 494 938 468 849 494 888 b 274 1092 494 1035 396 1092 b 54 938 156 1092 54 1036 b 136 818 54 872 99 839 l 136 817 b 31 675 74 789 31 743 b 274 499 31 558 138 499 z m 274 860 b 203 921 221 860 203 892 b 274 979 203 947 222 979 b 344 921 325 979 344 947 b 274 860 344 892 325 860 z m 274 621 b 201 693 222 621 201 660 b 274 761 201 726 224 761 b 346 693 324 761 346 726 b 274 621 346 658 324 621 z "},"⁹":{"ha":557,"x_min":0,"x_max":0,"o":"m 274 499 b 524 793 418 499 524 600 b 272 1092 524 939 471 1092 b 31 885 128 1092 31 1010 b 232 685 31 767 110 685 b 356 722 292 685 338 706 l 357 721 l 357 714 b 278 621 357 651 325 621 b 217 657 246 621 228 636 l 46 657 b 274 499 67 565 156 499 z m 275 808 b 190 888 219 808 190 847 b 274 968 190 933 221 968 b 354 888 325 968 354 933 b 275 808 354 847 331 808 z "},"﻿":{"ha":0,"x_min":0,"x_max":0,"o":""}," ":{"ha":1389,"x_min":0,"x_max":0,"o":""}," ":{"ha":1389,"x_min":0,"x_max":0,"o":""}," ":{"ha":694,"x_min":0,"x_max":0,"o":""}," ":{"ha":694,"x_min":0,"x_max":0,"o":""}," ":{"ha":1111,"x_min":0,"x_max":0,"o":""}," ":{"ha":347,"x_min":0,"x_max":0,"o":""}," ":{"ha":58,"x_min":0,"x_max":0,"o":""}," ":{"ha":317,"x_min":0,"x_max":0,"o":""}," ":{"ha":232,"x_min":0,"x_max":0,"o":""}," ":{"ha":264,"x_min":0,"x_max":0,"o":""}," ":{"ha":174,"x_min":0,"x_max":0,"o":""}," ":{"ha":463,"x_min":0,"x_max":0,"o":""},"​":{"ha":0,"x_min":0,"x_max":0,"o":""},".":{"ha":317,"x_min":0,"x_max":0,"o":"m 264 0 l 264 211 l 53 211 l 53 0 z "},",":{"ha":322,"x_min":0,"x_max":0,"o":"m 56 -232 b 267 0 192 -212 267 -125 l 267 211 l 56 211 l 56 0 l 156 0 b 56 -135 156 -89 114 -125 z "},":":{"ha":333,"x_min":0,"x_max":0,"o":"m 272 431 l 272 642 l 61 642 l 61 431 z m 272 0 l 272 211 l 61 211 l 61 0 z "},";":{"ha":333,"x_min":0,"x_max":0,"o":"m 272 431 l 272 642 l 61 642 l 61 431 z m 61 -232 b 272 0 197 -212 272 -125 l 272 211 l 61 211 l 61 0 l 161 0 b 61 -135 161 -89 119 -125 z "},"…":{"ha":906,"x_min":0,"x_max":0,"o":"m 264 0 l 264 211 l 53 211 l 53 0 z m 558 0 l 558 211 l 347 211 l 347 0 z m 853 0 l 853 211 l 642 211 l 642 0 z "},"!":{"ha":350,"x_min":0,"x_max":0,"o":"m 231 325 l 293 776 l 293 993 l 57 993 l 57 776 l 119 325 z m 282 0 l 282 211 l 71 211 l 71 0 z "},"¡":{"ha":353,"x_min":0,"x_max":0,"o":"m 281 601 l 281 813 l 69 813 l 69 601 z m 294 -181 l 294 36 l 232 488 l 121 488 l 58 36 l 58 -181 z "},"?":{"ha":747,"x_min":0,"x_max":0,"o":"m 439 325 b 572 513 439 426 475 458 b 724 746 669 567 724 635 b 392 1015 724 907 585 1015 b 18 664 142 1015 18 858 l 254 664 b 385 825 254 768 297 825 b 488 740 463 825 488 783 b 386 603 488 682 463 658 b 256 325 268 517 256 497 z m 454 0 l 454 211 l 243 211 l 243 0 z "},"¿":{"ha":750,"x_min":0,"x_max":0,"o":"m 504 604 l 504 815 l 293 815 l 293 604 z m 356 -200 b 729 151 606 -200 729 -43 l 493 151 b 363 -10 493 47 450 -10 b 260 75 285 -10 260 32 b 361 213 260 133 285 157 b 492 490 479 299 492 318 l 308 490 b 175 303 308 389 272 357 b 24 69 78 249 24 181 b 356 -200 24 -92 163 -200 z "},"·":{"ha":336,"x_min":0,"x_max":0,"o":"m 274 242 l 274 453 l 63 453 l 63 242 z "},"•":{"ha":578,"x_min":0,"x_max":0,"o":"m 483 217 l 483 606 l 94 606 l 94 217 z "},"*":{"ha":611,"x_min":0,"x_max":0,"o":"m 306 638 l 397 497 l 510 579 l 411 713 l 567 753 l 524 885 l 376 824 l 376 993 l 238 993 l 238 824 l 89 885 l 46 753 l 200 713 l 101 579 l 214 497 z "},"#":{"ha":818,"x_min":0,"x_max":0,"o":"m 793 711 l 692 711 l 744 960 l 578 960 l 525 711 l 400 711 l 453 960 l 286 960 l 233 711 l 128 711 l 92 544 l 197 544 l 161 374 l 56 374 l 21 207 l 125 207 l 81 0 l 247 0 l 292 207 l 417 207 l 372 0 l 539 0 l 583 207 l 686 207 l 721 374 l 619 374 l 656 544 l 757 544 z m 328 374 l 364 544 l 489 544 l 453 374 z "},"/":{"ha":597,"x_min":0,"x_max":0,"o":"m 196 0 l 581 993 l 400 993 l 15 0 z "},"\\":{"ha":597,"x_min":0,"x_max":0,"o":"m 582 0 l 197 993 l 17 993 l 401 0 z "},"-":{"ha":489,"x_min":0,"x_max":0,"o":"m 433 256 l 433 446 l 56 446 l 56 256 z "},"­":{"ha":489,"x_min":0,"x_max":0,"o":"m 433 256 l 433 446 l 56 446 l 56 256 z "},"–":{"ha":806,"x_min":0,"x_max":0,"o":"m 750 256 l 750 446 l 56 446 l 56 256 z "},"—":{"ha":1500,"x_min":0,"x_max":0,"o":"m 1444 256 l 1444 446 l 56 446 l 56 256 z "},"_":{"ha":797,"x_min":0,"x_max":0,"o":"m 760 -239 l 760 -49 l 38 -49 l 38 -239 z "},"(":{"ha":429,"x_min":0,"x_max":0,"o":"m 410 -190 b 275 440 336 -22 275 189 b 410 1069 275 697 336 901 l 215 1069 b 39 440 128 929 39 700 b 215 -190 39 189 128 -50 z "},")":{"ha":429,"x_min":0,"x_max":0,"o":"m 214 -190 b 390 439 301 -50 390 179 b 214 1069 390 690 301 929 l 19 1069 b 154 439 93 901 154 690 b 19 -190 154 182 93 -22 z "},"{":{"ha":535,"x_min":0,"x_max":0,"o":"m 503 -190 l 503 0 l 465 0 b 361 135 411 0 361 28 l 361 288 b 264 438 361 368 332 410 l 264 440 b 361 589 332 468 361 510 l 361 750 b 465 879 361 851 411 879 l 503 879 l 503 1069 l 465 1069 b 125 800 246 1069 125 1033 l 125 625 b 31 535 125 554 107 533 l 31 343 b 125 254 107 343 125 322 l 125 85 b 465 -190 125 -149 246 -190 z "},"}":{"ha":535,"x_min":0,"x_max":0,"o":"m 69 -190 b 410 79 289 -190 410 -154 l 410 254 b 504 344 410 325 428 346 l 504 536 b 410 625 428 536 410 557 l 410 794 b 69 1069 410 1028 289 1069 l 32 1069 l 32 879 l 69 879 b 174 744 124 879 174 851 l 174 592 b 271 442 174 511 203 469 l 271 439 b 174 290 203 411 174 369 l 174 129 b 69 0 174 28 124 0 l 32 0 l 32 -190 z "},"[":{"ha":528,"x_min":0,"x_max":0,"o":"m 503 -190 l 503 0 l 313 0 l 313 879 l 503 879 l 503 1069 l 76 1069 l 76 -190 z "},"]":{"ha":528,"x_min":0,"x_max":0,"o":"m 451 -190 l 451 1069 l 25 1069 l 25 879 l 215 879 l 215 0 l 25 0 l 25 -190 z "},"‚":{"ha":322,"x_min":0,"x_max":0,"o":"m 56 -232 b 267 0 192 -212 267 -125 l 267 211 l 56 211 l 56 0 l 156 0 b 56 -135 156 -89 114 -125 z "},"„":{"ha":600,"x_min":0,"x_max":0,"o":"m 56 -232 b 267 0 192 -212 267 -125 l 267 211 l 56 211 l 56 0 l 156 0 b 56 -135 156 -89 114 -125 z m 333 -232 b 544 0 469 -212 544 -125 l 544 211 l 333 211 l 333 0 l 433 0 b 333 -135 433 -89 392 -125 z "},"“":{"ha":594,"x_min":0,"x_max":0,"o":"m 49 554 l 260 554 l 260 765 l 160 765 b 260 900 160 854 201 890 l 260 997 b 49 765 124 978 49 890 z m 538 997 b 326 765 401 978 326 890 l 326 554 l 538 554 l 538 765 l 438 765 b 538 900 438 854 479 890 z "},"”":{"ha":586,"x_min":0,"x_max":0,"o":"m 57 550 b 268 782 193 569 268 657 l 268 993 l 57 993 l 57 782 l 157 782 b 57 647 157 693 115 657 z m 335 550 b 546 782 471 569 546 657 l 546 993 l 335 993 l 335 782 l 435 782 b 335 647 435 693 393 657 z "},"‘":{"ha":317,"x_min":0,"x_max":0,"o":"m 260 993 b 49 761 124 974 49 886 l 49 550 l 260 550 l 260 761 l 160 761 b 260 896 160 850 201 886 z "},"’":{"ha":308,"x_min":0,"x_max":0,"o":"m 57 550 b 268 782 193 569 268 657 l 268 993 l 57 993 l 57 782 l 157 782 b 57 647 157 693 115 657 z "},"«":{"ha":668,"x_min":0,"x_max":0,"o":"m 314 246 l 158 358 l 158 361 l 314 471 l 314 685 l 53 469 l 53 251 l 314 38 z m 606 246 l 450 358 l 450 361 l 606 471 l 606 685 l 344 469 l 344 251 l 606 38 z "},"»":{"ha":668,"x_min":0,"x_max":0,"o":"m 324 253 l 324 471 l 63 685 l 63 476 l 218 364 l 218 361 l 63 251 l 63 38 z m 615 253 l 615 471 l 354 685 l 354 476 l 510 364 l 510 361 l 354 251 l 354 38 z "},"‹":{"ha":392,"x_min":0,"x_max":0,"o":"m 329 254 l 175 358 l 175 363 l 329 467 l 329 683 l 53 469 l 53 251 l 329 38 z "},"›":{"ha":392,"x_min":0,"x_max":0,"o":"m 339 251 l 339 469 l 63 683 l 63 467 l 217 363 l 217 358 l 63 254 l 63 38 z "},"\"":{"ha":556,"x_min":0,"x_max":0,"o":"m 208 619 l 236 993 l 42 993 l 69 619 z m 486 619 l 514 993 l 319 993 l 347 619 z "},"'":{"ha":278,"x_min":0,"x_max":0,"o":"m 208 619 l 236 993 l 42 993 l 69 619 z "},"ƒ":{"ha":736,"x_min":0,"x_max":0,"o":"m 635 839 b 681 832 647 839 663 838 l 724 990 b 593 1006 674 1001 631 1006 b 322 761 436 1006 356 935 l 299 639 l 181 639 l 175 472 l 265 472 l 190 85 b 88 -28 175 7 160 -28 b 19 -21 74 -28 49 -26 l 29 -179 b 150 -194 75 -190 114 -194 b 406 50 296 -194 372 -124 l 488 472 l 631 472 l 636 639 l 521 639 l 538 726 b 635 839 553 804 569 839 z "},"@":{"ha":1236,"x_min":0,"x_max":0,"o":"m 633 -150 b 913 -90 742 -150 836 -132 l 868 19 b 631 -25 783 -14 703 -25 b 183 406 344 -25 183 150 b 654 868 183 679 368 868 b 1067 469 910 868 1067 715 b 942 240 1067 324 1017 240 b 876 360 890 240 865 269 l 921 708 l 740 708 l 731 625 l 728 625 b 576 718 703 676 660 718 b 321 399 435 718 321 600 b 549 115 321 211 421 115 b 722 242 639 115 703 171 l 725 242 b 910 115 749 160 818 115 b 1206 468 1072 115 1206 231 b 646 993 1206 749 1010 993 b 33 406 282 993 33 747 b 633 -150 33 100 232 -150 z m 596 268 b 508 394 526 268 508 322 b 621 565 508 501 553 565 b 703 435 679 565 703 521 b 596 268 703 347 672 268 z "},"&":{"ha":949,"x_min":0,"x_max":0,"o":"m 790 197 b 904 497 853 288 890 396 l 710 497 b 657 346 700 450 683 396 l 513 506 b 735 765 656 581 735 650 b 436 1015 735 907 618 1017 b 138 761 243 1014 138 889 b 256 524 138 674 186 608 b 32 247 139 465 32 396 b 367 -22 32 93 149 -22 b 643 56 476 -22 568 7 l 689 0 l 967 0 z m 436 833 b 526 753 500 833 526 796 b 418 613 526 701 483 654 b 346 750 372 667 346 708 b 436 833 346 796 375 833 z m 407 168 b 268 290 310 168 268 224 b 344 417 268 328 281 371 l 525 199 b 407 168 490 179 451 168 z "},"¶":{"ha":838,"x_min":0,"x_max":0,"o":"m 510 0 l 510 868 l 608 868 l 608 0 l 747 0 l 747 993 l 313 993 b 22 725 125 993 22 892 b 313 465 22 558 125 465 l 371 465 l 371 0 z "},"§":{"ha":910,"x_min":0,"x_max":0,"o":"m 858 346 b 615 601 858 483 750 535 l 525 646 b 357 786 438 689 357 717 b 447 857 357 829 388 857 b 554 731 525 857 549 807 l 776 731 b 450 1010 769 890 665 1010 b 135 767 243 1010 135 911 b 196 608 135 699 160 649 b 51 418 103 574 51 506 b 294 163 51 281 160 229 l 385 118 b 553 -22 472 75 553 47 b 463 -93 553 -65 522 -93 b 356 33 385 -93 361 -43 l 133 33 b 460 -246 140 -126 244 -246 b 775 -3 667 -246 775 -147 b 714 156 775 65 750 115 b 858 346 807 190 858 258 z m 414 325 b 272 442 313 374 272 396 b 349 510 272 481 300 506 b 403 483 367 500 385 492 l 496 439 b 638 322 597 390 638 368 b 561 254 638 283 610 258 b 507 281 543 264 525 272 z "},"©":{"ha":1156,"x_min":0,"x_max":0,"o":"m 578 -22 b 1097 496 897 -22 1097 178 b 578 1015 1097 815 897 1015 b 58 496 258 1015 58 815 b 578 -22 58 178 258 -22 z m 578 78 b 181 496 328 78 181 236 b 578 915 181 756 328 915 b 975 496 828 915 975 756 b 578 78 975 236 828 78 z m 586 185 b 857 424 754 185 849 286 l 678 424 b 579 322 672 371 653 322 b 467 496 503 322 467 386 b 579 671 467 607 503 671 b 678 571 653 671 672 618 l 857 571 b 575 808 843 707 746 808 b 283 496 394 808 283 678 b 586 185 283 313 400 185 z "},"®":{"ha":782,"x_min":0,"x_max":0,"o":"m 392 343 b 724 679 578 343 724 486 b 392 1015 724 872 578 1015 b 58 679 206 1015 58 872 b 392 343 58 486 206 343 z m 392 408 b 138 681 235 408 138 515 b 392 951 138 844 235 951 b 644 681 549 951 644 844 b 392 408 644 515 549 408 z m 351 500 l 351 629 l 382 629 b 446 500 461 629 426 515 l 556 500 l 556 506 b 476 669 535 511 568 654 l 476 671 b 550 761 521 681 550 713 b 419 868 550 831 500 868 l 246 868 l 246 500 z m 351 707 l 351 793 l 388 793 b 444 750 424 793 444 782 b 388 707 444 721 424 707 z "},"™":{"ha":976,"x_min":0,"x_max":0,"o":"m 268 610 l 268 871 l 369 871 l 369 993 l 28 993 l 28 871 l 129 871 l 129 610 z m 546 610 l 546 844 l 549 844 l 618 610 l 708 610 l 779 844 l 782 844 l 782 610 l 910 610 l 910 993 l 735 993 l 665 776 l 663 776 l 594 993 l 421 993 l 421 610 z "},"°":{"ha":542,"x_min":0,"x_max":0,"o":"m 271 589 b 488 803 404 589 488 689 b 271 1015 488 917 404 1015 b 54 803 136 1015 54 917 b 271 589 54 689 136 589 z m 271 700 b 179 803 228 700 179 729 b 271 904 179 876 228 904 b 363 803 314 904 363 876 b 271 700 363 729 314 700 z "},"|":{"ha":319,"x_min":0,"x_max":0,"o":"m 236 -192 l 236 1047 l 83 1047 l 83 -192 z "},"¦":{"ha":319,"x_min":0,"x_max":0,"o":"m 236 533 l 236 1047 l 83 1047 l 83 533 z m 236 -192 l 236 340 l 83 340 l 83 -192 z "},"†":{"ha":767,"x_min":0,"x_max":0,"o":"m 501 -246 l 501 521 l 744 521 l 744 711 l 501 711 l 501 993 l 265 993 l 265 711 l 22 711 l 22 521 l 265 521 l 265 -246 z "},"‡":{"ha":828,"x_min":0,"x_max":0,"o":"m 532 -246 l 532 76 l 775 76 l 775 267 l 532 267 l 532 521 l 775 521 l 775 711 l 532 711 l 532 993 l 296 993 l 296 711 l 53 711 l 53 521 l 296 521 l 296 267 l 53 267 l 53 76 l 296 76 l 296 -246 z "},"⮠":{"ha":856,"x_min":0,"x_max":0,"o":"m 632 433 l 329 433 l 551 671 l 444 781 l 46 350 l 444 -81 l 551 29 l 329 267 l 785 267 l 785 836 l 632 836 z "},"⮡":{"ha":856,"x_min":0,"x_max":0,"o":"m 304 671 l 526 433 l 224 433 l 224 836 l 71 836 l 71 267 l 526 267 l 304 29 l 411 -81 l 810 350 l 411 781 z "},"⮦":{"ha":986,"x_min":0,"x_max":0,"o":"m 957 706 l 388 706 l 388 250 l 150 472 l 40 365 l 471 -33 l 901 365 l 792 472 l 554 250 l 554 553 l 957 553 z "},"⮤":{"ha":986,"x_min":0,"x_max":0,"o":"m 556 453 l 793 231 l 903 338 l 472 736 l 42 338 l 151 231 l 389 453 l 389 -3 l 958 -3 l 958 150 l 556 150 z "},"⮧":{"ha":986,"x_min":0,"x_max":0,"o":"m 597 256 l 597 711 l 28 711 l 28 558 l 431 558 l 431 256 l 193 478 l 83 371 l 514 -28 l 944 371 l 835 478 z "},"⮥":{"ha":989,"x_min":0,"x_max":0,"o":"m 83 340 l 193 233 l 431 456 l 431 153 l 28 153 l 28 0 l 597 0 l 597 456 l 835 233 l 944 340 l 514 739 z "},"⮢":{"ha":850,"x_min":0,"x_max":0,"o":"m 550 692 l 443 801 l 44 371 l 443 -60 l 550 50 l 328 288 l 631 288 l 631 -115 l 783 -115 l 783 454 l 328 454 z "},"⮣":{"ha":850,"x_min":0,"x_max":0,"o":"m 300 692 l 522 454 l 67 454 l 67 -115 l 219 -115 l 219 288 l 522 288 l 300 50 l 407 -60 l 806 371 l 407 801 z "},"¢":{"ha":814,"x_min":0,"x_max":0,"o":"m 474 708 b 542 596 521 689 536 640 l 765 596 b 474 882 749 746 646 861 l 474 981 l 376 981 l 376 883 b 56 506 181 865 56 713 b 376 129 56 299 178 149 l 376 7 l 474 7 l 474 129 b 765 418 647 149 756 264 l 542 418 b 474 303 536 368 519 322 z m 283 506 b 376 711 283 615 314 689 l 376 300 b 283 506 314 322 283 396 z "},"¤":{"ha":764,"x_min":0,"x_max":0,"o":"m 665 485 b 636 621 665 535 656 581 l 718 703 l 600 821 l 518 739 b 383 768 479 758 433 768 b 247 738 332 768 286 757 l 164 821 l 46 703 l 129 619 b 100 485 111 579 100 535 b 129 350 100 435 111 390 l 46 267 l 164 149 l 247 232 b 383 201 286 213 332 201 b 518 231 433 201 478 213 l 600 149 l 718 267 l 635 350 b 665 485 654 389 665 435 z m 383 326 b 267 485 299 326 267 396 b 383 643 267 574 299 643 b 499 485 467 643 499 574 b 383 326 499 396 467 326 z "},"$":{"ha":878,"x_min":0,"x_max":0,"o":"m 838 272 b 486 581 838 469 672 526 l 486 788 b 601 663 554 772 592 731 l 824 663 b 486 972 815 835 696 954 l 486 1069 l 393 1069 l 393 972 b 63 685 190 960 63 853 b 365 399 63 517 192 450 l 393 390 l 393 165 b 256 314 319 178 258 218 l 33 314 b 393 -17 33 118 176 1 l 393 -139 l 486 -139 l 486 -19 b 838 272 713 -10 838 103 z m 286 703 b 393 792 286 758 331 785 l 393 610 b 286 703 318 633 286 654 z m 486 364 b 614 251 560 340 614 311 b 486 161 614 200 575 165 z "},"€":{"ha":974,"x_min":0,"x_max":0,"o":"m 538 168 b 368 339 436 168 388 232 l 586 339 l 586 432 l 360 432 b 358 476 358 446 358 461 l 358 500 l 586 500 l 586 593 l 365 593 b 538 783 382 711 431 783 b 692 603 647 783 685 711 l 928 603 b 543 974 918 819 800 974 b 129 593 275 974 158 810 l 58 593 l 58 500 l 122 500 l 122 476 b 124 432 122 461 122 447 l 58 432 l 58 339 l 132 339 b 543 -22 165 132 283 -22 b 928 351 801 -22 919 132 l 692 351 b 538 168 686 240 649 168 z "},"£":{"ha":874,"x_min":0,"x_max":0,"o":"m 760 238 b 624 186 725 208 688 186 b 418 232 533 186 510 232 b 310 204 374 232 342 219 l 308 207 b 397 365 356 256 388 307 l 569 365 l 569 513 l 371 513 b 313 668 344 563 313 607 b 440 783 313 732 347 783 b 575 622 533 783 575 726 l 811 622 b 436 974 811 832 704 974 b 76 694 153 974 76 818 b 133 513 76 614 108 567 l 63 513 l 63 365 l 163 365 b 49 172 158 286 125 219 l 154 0 b 328 58 219 40 274 58 b 628 -22 440 58 474 -22 b 847 64 724 -22 781 8 z "},"¥":{"ha":933,"x_min":0,"x_max":0,"o":"m 647 953 l 468 576 l 465 576 l 286 953 l 22 953 l 317 425 l 119 425 l 119 332 l 349 332 l 349 251 l 119 251 l 119 158 l 349 158 l 349 0 l 585 0 l 585 158 l 814 158 l 814 251 l 585 251 l 585 332 l 814 332 l 814 425 l 617 425 l 911 953 z "},"∙":{"ha":475,"x_min":0,"x_max":0,"o":"m 343 375 l 343 586 l 132 586 l 132 375 z "},"≧":{"ha":775,"x_min":0,"x_max":0,"o":"m 71 972 l 71 796 l 499 665 l 499 663 l 71 532 l 71 226 l 713 226 l 713 389 l 171 389 l 713 571 l 713 758 z m 713 0 l 713 163 l 71 163 l 71 0 z "},"≦":{"ha":775,"x_min":0,"x_max":0,"o":"m 704 972 l 63 758 l 63 571 l 604 389 l 63 389 l 63 226 l 704 226 l 704 532 l 276 663 l 276 665 l 704 796 z m 704 0 l 704 163 l 63 163 l 63 0 z "},"+":{"ha":797,"x_min":0,"x_max":0,"o":"m 494 110 l 494 361 l 736 361 l 736 553 l 494 553 l 494 804 l 303 804 l 303 553 l 61 553 l 61 361 l 303 361 l 303 110 z "},"−":{"ha":797,"x_min":0,"x_max":0,"o":"m 736 361 l 736 553 l 61 553 l 61 361 z "},"×":{"ha":797,"x_min":0,"x_max":0,"o":"m 399 322 l 599 122 l 733 257 l 533 457 l 733 656 l 599 790 l 399 590 l 199 790 l 64 656 l 264 457 l 64 257 l 199 122 z "},"÷":{"ha":797,"x_min":0,"x_max":0,"o":"m 504 628 l 504 839 l 293 839 l 293 628 z m 736 361 l 736 553 l 61 553 l 61 361 z m 504 74 l 504 285 l 293 285 l 293 74 z "},"=":{"ha":776,"x_min":0,"x_max":0,"o":"m 715 508 l 715 700 l 61 700 l 61 508 z m 715 214 l 715 406 l 61 406 l 61 214 z "},"≠":{"ha":776,"x_min":0,"x_max":0,"o":"m 715 700 l 571 700 l 622 808 l 483 808 l 432 700 l 61 700 l 61 508 l 342 508 l 293 406 l 61 406 l 61 214 l 201 214 l 151 107 l 290 107 l 340 214 l 715 214 l 715 406 l 432 406 l 481 508 l 715 508 z "},">":{"ha":693,"x_min":0,"x_max":0,"o":"m 638 325 l 638 533 l 65 772 l 65 582 l 450 431 l 450 428 l 65 276 l 65 86 z "},"<":{"ha":693,"x_min":0,"x_max":0,"o":"m 628 276 l 243 428 l 243 431 l 628 582 l 628 772 l 56 533 l 56 325 l 628 86 z "},"≥":{"ha":686,"x_min":0,"x_max":0,"o":"m 635 372 l 635 581 l 63 772 l 63 582 l 447 478 l 447 475 l 63 371 l 63 181 z m 635 0 l 635 167 l 63 167 l 63 0 z "},"≤":{"ha":686,"x_min":0,"x_max":0,"o":"m 624 371 l 239 475 l 239 478 l 624 582 l 624 772 l 51 581 l 51 372 l 624 181 z m 624 0 l 624 167 l 51 167 l 51 0 z "},"±":{"ha":797,"x_min":0,"x_max":0,"o":"m 736 592 l 494 592 l 494 843 l 303 843 l 303 592 l 61 592 l 61 400 l 303 400 l 303 194 l 61 194 l 61 3 l 736 3 l 736 194 l 494 194 l 494 400 l 736 400 z "},"≈":{"ha":796,"x_min":0,"x_max":0,"o":"m 203 454 b 260 517 203 485 214 517 b 574 454 324 517 479 454 b 739 697 686 454 739 533 l 600 697 b 543 635 600 667 589 635 b 229 697 479 635 324 697 b 64 454 117 697 64 618 z m 203 156 b 260 218 203 186 214 218 b 574 156 324 218 479 156 b 739 399 686 156 739 235 l 600 399 b 543 336 600 368 589 336 b 229 399 479 336 324 399 b 64 156 117 399 64 319 z "},"~":{"ha":679,"x_min":0,"x_max":0,"o":"m 201 332 b 258 394 201 363 213 394 b 456 332 322 394 361 332 b 621 575 568 332 621 411 l 482 575 b 425 513 482 544 471 513 b 228 575 361 513 322 575 b 63 332 115 575 63 496 z "},"¬":{"ha":711,"x_min":0,"x_max":0,"o":"m 640 186 l 640 597 l 44 597 l 44 407 l 418 407 l 418 186 z "},"^":{"ha":667,"x_min":0,"x_max":0,"o":"m 226 611 l 332 799 l 333 799 l 440 611 l 649 611 l 417 993 l 250 993 l 18 611 z "},"∅":{"ha":1139,"x_min":0,"x_max":0,"o":"m 1054 896 l 985 965 l 894 875 b 569 982 807 943 694 982 b 57 479 283 982 57 776 b 172 153 57 350 100 238 l 83 64 l 153 -6 l 243 85 b 569 -22 332 17 444 -22 b 1081 479 856 -22 1081 182 b 965 807 1081 610 1038 721 z m 154 479 b 569 885 154 721 339 885 b 824 804 665 885 754 856 l 242 222 b 154 479 188 290 154 378 z m 569 75 b 314 156 472 75 383 104 l 896 738 b 983 479 950 669 983 581 b 569 75 983 239 799 75 z "},"∞":{"ha":1060,"x_min":0,"x_max":0,"o":"m 294 165 b 529 300 397 165 474 233 l 532 300 b 765 165 588 233 663 165 b 1003 424 886 165 1003 249 b 765 682 1003 601 886 682 b 532 564 663 682 588 631 l 529 564 b 294 682 474 631 397 682 b 57 424 174 682 57 601 b 294 165 57 249 174 165 z m 304 318 b 210 424 238 318 210 371 b 304 529 210 476 238 529 b 454 424 371 529 413 476 b 304 318 413 371 371 318 z m 756 318 b 606 424 689 318 647 371 b 756 529 647 476 689 529 b 850 424 822 529 850 476 b 756 318 850 371 822 318 z "},"∫":{"ha":561,"x_min":0,"x_max":0,"o":"m 176 -246 b 399 0 339 -246 399 -160 l 399 738 b 489 857 399 824 432 857 b 543 849 504 857 524 854 l 543 1015 b 385 1029 503 1024 447 1029 b 163 783 222 1029 163 943 l 163 46 b 72 -74 163 -40 129 -74 b 18 -65 57 -74 38 -71 l 18 -232 b 176 -246 58 -240 114 -246 z "},"Ω":{"ha":1111,"x_min":0,"x_max":0,"o":"m 486 0 l 486 188 b 307 531 386 251 307 356 b 556 813 307 722 401 813 b 804 531 710 813 804 722 b 625 188 804 356 725 251 l 625 0 l 1064 0 l 1064 203 l 851 203 b 1046 567 975 278 1046 401 b 556 1013 1046 833 861 1013 b 65 567 250 1013 65 833 b 260 203 65 401 136 278 l 47 203 l 47 0 z "},"∆":{"ha":953,"x_min":0,"x_max":0,"o":"m 340 993 l 29 204 l 29 0 l 924 0 l 924 204 l 613 993 z m 482 764 l 690 197 l 261 197 l 469 764 z "},"∏":{"ha":1018,"x_min":0,"x_max":0,"o":"m 319 -139 l 319 803 l 699 803 l 699 -139 l 935 -139 l 935 993 l 83 993 l 83 -139 z "},"∑":{"ha":842,"x_min":0,"x_max":0,"o":"m 806 -139 l 806 51 l 308 51 l 308 54 l 628 394 l 628 492 l 318 800 l 318 803 l 792 803 l 792 993 l 42 993 l 42 800 l 392 440 l 392 438 l 42 56 l 42 -139 z "},"√":{"ha":950,"x_min":0,"x_max":0,"o":"m 560 -139 l 931 993 l 694 993 l 450 142 l 447 142 l 314 506 l 54 506 l 54 315 l 161 315 l 338 -139 z "},"µ":{"ha":842,"x_min":0,"x_max":0,"o":"m 543 300 b 410 158 543 201 494 158 b 299 301 336 158 299 194 l 299 711 l 76 711 l 76 -246 l 299 -246 l 299 0 b 363 -14 318 -10 340 -14 b 540 103 429 -14 501 24 l 543 103 l 543 0 l 765 0 l 765 711 l 543 711 z "},"∂":{"ha":811,"x_min":0,"x_max":0,"o":"m 369 -22 b 768 439 665 -22 768 217 b 218 993 768 744 610 993 l 218 803 b 532 567 383 803 497 724 b 331 654 494 615 440 654 b 24 301 160 654 24 485 b 369 -22 24 103 160 -22 z m 375 154 b 246 303 286 154 246 224 b 403 478 246 394 300 478 b 532 331 493 478 532 408 b 375 154 532 238 479 154 z "},"%":{"ha":1258,"x_min":0,"x_max":0,"o":"m 304 425 b 582 703 475 425 582 532 b 304 982 582 874 475 982 b 25 703 133 982 25 874 b 304 425 25 532 133 425 z m 438 0 l 969 960 l 821 960 l 289 0 z m 304 564 b 233 703 254 564 233 606 b 304 843 233 801 254 843 b 374 703 353 843 374 801 b 304 564 374 606 353 564 z m 954 -22 b 1233 257 1125 -22 1233 86 b 954 535 1233 428 1125 535 b 676 257 783 535 676 428 b 954 -22 676 86 783 -22 z m 954 117 b 885 257 906 117 885 158 b 954 396 885 354 906 396 b 1025 257 1004 396 1025 354 b 954 117 1025 158 1004 117 z "},"‰":{"ha":1840,"x_min":0,"x_max":0,"o":"m 304 425 b 582 703 475 425 582 532 b 304 982 582 874 475 982 b 25 703 133 982 25 874 b 304 425 25 532 133 425 z m 438 0 l 969 960 l 821 960 l 289 0 z m 304 564 b 233 703 254 564 233 606 b 304 843 233 801 254 843 b 374 703 353 843 374 801 b 304 564 374 606 353 564 z m 954 -22 b 1233 257 1125 -22 1233 86 b 954 535 1233 428 1125 535 b 676 257 783 535 676 428 b 954 -22 676 86 783 -22 z m 1535 -22 b 1814 257 1706 -22 1814 86 b 1535 535 1814 428 1706 535 b 1257 257 1364 535 1257 428 b 1535 -22 1257 86 1364 -22 z m 954 117 b 885 257 906 117 885 158 b 954 396 885 354 906 396 b 1025 257 1004 396 1025 354 b 954 117 1025 158 1004 117 z m 1535 117 b 1465 257 1486 117 1465 158 b 1535 396 1465 354 1486 396 b 1606 257 1585 396 1606 354 b 1535 117 1606 158 1585 117 z "},"↑":{"ha":925,"x_min":0,"x_max":0,"o":"m 546 0 l 546 676 l 783 454 l 893 561 l 463 960 l 32 561 l 142 454 l 379 676 l 379 0 z "},"↗":{"ha":846,"x_min":0,"x_max":0,"o":"m 625 575 l 625 250 l 772 249 l 772 835 l 186 835 l 189 693 l 521 693 l 35 215 l 153 97 z "},"→":{"ha":1071,"x_min":0,"x_max":0,"o":"m 1019 444 l 621 875 l 514 765 l 736 528 l 60 528 l 60 361 l 736 361 l 514 124 l 621 14 z "},"↘":{"ha":839,"x_min":0,"x_max":0,"o":"m 769 60 l 769 646 l 622 644 l 622 319 l 150 797 l 32 679 l 518 201 l 186 201 l 183 60 z "},"↓":{"ha":925,"x_min":0,"x_max":0,"o":"m 893 343 l 783 450 l 546 228 l 546 904 l 379 904 l 379 228 l 142 450 l 32 343 l 463 -56 z "},"↙":{"ha":839,"x_min":0,"x_max":0,"o":"m 656 60 l 653 201 l 321 201 l 807 679 l 689 797 l 217 319 l 217 644 l 69 646 l 69 60 z "},"←":{"ha":1071,"x_min":0,"x_max":0,"o":"m 557 124 l 335 361 l 1011 361 l 1011 528 l 335 528 l 557 765 l 450 875 l 51 444 l 450 14 z "},"↖":{"ha":846,"x_min":0,"x_max":0,"o":"m 811 215 l 325 693 l 657 693 l 660 835 l 74 835 l 74 249 l 221 250 l 221 575 l 693 97 z "},"↔":{"ha":1593,"x_min":0,"x_max":0,"o":"m 551 124 l 329 361 l 1264 361 l 1042 124 l 1149 14 l 1546 444 l 1147 875 l 1042 765 l 1263 528 l 329 528 l 551 765 l 444 875 l 46 443 l 444 13 z "},"↕":{"ha":917,"x_min":0,"x_max":0,"o":"m 889 153 l 779 260 l 542 38 l 542 808 l 779 586 l 889 693 l 458 1092 l 28 693 l 138 586 l 375 808 l 375 38 l 138 260 l 28 153 l 458 -246 z "},"⬎":{"ha":986,"x_min":0,"x_max":0,"o":"m 597 256 l 597 711 l 28 711 l 28 558 l 431 558 l 431 256 l 193 478 l 83 371 l 514 -28 l 944 371 l 835 478 z "},"⬏":{"ha":989,"x_min":0,"x_max":0,"o":"m 83 340 l 193 233 l 431 456 l 431 153 l 28 153 l 28 0 l 597 0 l 597 456 l 835 233 l 944 340 l 514 739 z "},"⬐":{"ha":986,"x_min":0,"x_max":0,"o":"m 957 706 l 388 706 l 388 250 l 150 472 l 40 365 l 471 -33 l 901 365 l 792 472 l 554 250 l 554 553 l 957 553 z "},"⬑":{"ha":989,"x_min":0,"x_max":0,"o":"m 558 456 l 796 233 l 906 340 l 475 739 l 44 340 l 154 233 l 392 456 l 392 0 l 961 0 l 961 153 l 558 153 z "},"▄":{"ha":1138,"x_min":0,"x_max":0,"o":"m 1065 0 l 1065 497 l 72 497 l 72 0 z "},"█":{"ha":1160,"x_min":0,"x_max":0,"o":"m 1076 0 l 1076 993 l 83 993 l 83 0 z "},"▀":{"ha":1135,"x_min":0,"x_max":0,"o":"m 1064 496 l 1064 993 l 71 993 l 71 496 z "},"●":{"ha":1151,"x_min":0,"x_max":0,"o":"m 576 -22 b 1094 496 863 -22 1094 210 b 576 1015 1094 782 863 1015 b 57 496 289 1015 57 782 b 576 -22 57 210 289 -22 z "},"○":{"ha":1156,"x_min":0,"x_max":0,"o":"m 578 -22 b 1097 496 897 -22 1097 178 b 578 1015 1097 815 897 1015 b 58 496 258 1015 58 815 b 578 -22 58 178 258 -22 z m 578 110 b 211 496 347 110 211 256 b 578 883 211 736 347 883 b 944 496 808 883 944 736 b 578 110 944 256 808 110 z "},"◊":{"ha":875,"x_min":0,"x_max":0,"o":"m 550 0 l 829 496 l 549 993 l 325 993 l 46 496 l 326 0 z m 282 496 l 435 803 l 438 803 l 593 496 l 440 190 l 438 190 z "},"■":{"ha":1160,"x_min":0,"x_max":0,"o":"m 1076 0 l 1076 993 l 83 993 l 83 0 z "},"□":{"ha":1160,"x_min":0,"x_max":0,"o":"m 1076 0 l 1076 993 l 83 993 l 83 0 z m 250 826 l 910 826 l 910 167 l 250 167 z "},"▪":{"ha":525,"x_min":0,"x_max":0,"o":"m 457 250 l 457 639 l 68 639 l 68 250 z "},"▫":{"ha":581,"x_min":0,"x_max":0,"o":"m 513 222 l 513 667 l 68 667 l 68 222 z m 235 500 l 346 500 l 346 389 l 235 389 z "},"▲":{"ha":1144,"x_min":0,"x_max":0,"o":"m 1128 0 l 572 993 l 17 0 z "},"▼":{"ha":1144,"x_min":0,"x_max":0,"o":"m 1128 993 l 17 993 l 572 0 z "},"►":{"ha":1132,"x_min":0,"x_max":0,"o":"m 1092 496 l 99 1051 l 99 -60 z "},"◄":{"ha":1132,"x_min":0,"x_max":0,"o":"m 1033 1051 l 40 496 l 1033 -60 z "},"̈":{"ha":0,"x_min":0,"x_max":0,"o":"m 288 796 l 288 993 l 65 993 l 65 796 z m 576 796 l 576 993 l 354 993 l 354 796 z "},"̇":{"ha":0,"x_min":0,"x_max":0,"o":"m 278 796 l 278 993 l 56 993 l 56 796 z "},"̀":{"ha":0,"x_min":0,"x_max":0,"o":"m 365 796 l 292 1007 l 69 1007 l 199 796 z "},"́":{"ha":0,"x_min":0,"x_max":0,"o":"m 222 796 l 379 1007 l 129 1007 l 56 796 z "},"̋":{"ha":0,"x_min":0,"x_max":0,"o":"m 250 796 l 390 1007 l 175 1007 l 90 796 z m 494 796 l 663 1007 l 447 1007 l 335 796 z "},"̂":{"ha":0,"x_min":0,"x_max":0,"o":"m 249 796 l 311 908 l 314 908 l 376 796 l 569 796 l 421 1007 l 204 1007 l 56 796 z "},"̌":{"ha":0,"x_min":0,"x_max":0,"o":"m 421 796 l 569 1007 l 376 1007 l 314 894 l 311 894 l 249 1007 l 56 1007 l 204 796 z "},"̆":{"ha":0,"x_min":0,"x_max":0,"o":"m 278 782 b 500 993 407 782 494 868 l 372 993 b 278 918 368 947 338 918 b 183 993 218 918 188 947 l 56 993 b 278 782 60 864 151 782 z "},"̊":{"ha":0,"x_min":0,"x_max":0,"o":"m 197 746 b 350 896 281 746 350 803 b 197 1046 350 988 281 1046 b 44 896 115 1046 44 988 b 197 746 44 803 115 746 z m 197 832 b 139 896 164 832 139 854 b 197 960 139 938 164 960 b 257 896 235 960 257 938 b 197 832 257 854 235 832 z "},"̃":{"ha":0,"x_min":0,"x_max":0,"o":"m 176 775 b 224 829 176 801 185 829 b 413 775 278 829 338 775 b 536 979 492 775 536 835 l 417 979 b 368 924 417 951 407 924 b 179 979 313 924 254 979 b 56 775 100 979 56 918 z "},"̄":{"ha":0,"x_min":0,"x_max":0,"o":"m 453 796 l 453 935 l 56 935 l 56 796 z "},"̒":{"ha":0,"x_min":0,"x_max":0,"o":"m 267 1096 b 56 939 131 1083 56 1024 l 56 796 l 267 796 l 267 939 l 167 939 b 267 1031 167 999 208 1024 z "},"̦":{"ha":0,"x_min":0,"x_max":0,"o":"m 56 -210 l 156 -210 b 56 -300 156 -269 114 -293 l 56 -365 b 267 -210 192 -351 267 -293 l 267 -68 l 56 -68 z "},"̧":{"ha":0,"x_min":0,"x_max":0,"o":"m 226 -275 b 408 -162 325 -275 408 -235 b 260 -69 408 -90 335 -61 l 260 -67 l 314 0 l 214 0 l 132 -86 l 165 -133 b 217 -124 181 -128 197 -124 b 264 -161 246 -124 264 -135 b 200 -201 264 -190 233 -201 b 113 -181 167 -201 139 -193 l 71 -229 b 226 -275 110 -256 161 -275 z "},"̨":{"ha":0,"x_min":0,"x_max":0,"o":"m 214 -246 b 326 -231 253 -246 294 -239 l 326 -106 b 269 -115 307 -111 288 -115 b 226 -85 242 -115 226 -106 b 293 0 226 -56 257 -31 l 153 0 b 56 -129 108 -21 56 -64 b 214 -246 56 -204 110 -246 z "},"̵":{"ha":0,"x_min":0,"x_max":0,"o":"m 678 451 l 678 576 l 56 576 l 56 451 z "},"̶":{"ha":0,"x_min":0,"x_max":0,"o":"m 806 397 l 806 601 l 56 601 l 56 397 z "},"̷":{"ha":0,"x_min":0,"x_max":0,"o":"m 800 669 l 740 728 l 56 42 l 114 -18 z "},"̸":{"ha":0,"x_min":0,"x_max":0,"o":"m 800 669 l 740 728 l 56 42 l 114 -18 z "},"¨":{"ha":642,"x_min":0,"x_max":0,"o":"m 288 796 l 288 993 l 65 993 l 65 796 z m 576 796 l 576 993 l 354 993 l 354 796 z "},"˙":{"ha":333,"x_min":0,"x_max":0,"o":"m 278 796 l 278 993 l 56 993 l 56 796 z "},"`":{"ha":421,"x_min":0,"x_max":0,"o":"m 365 796 l 292 1007 l 69 1007 l 199 796 z "},"´":{"ha":421,"x_min":0,"x_max":0,"o":"m 222 796 l 379 1007 l 129 1007 l 56 796 z "},"˝":{"ha":726,"x_min":0,"x_max":0,"o":"m 250 796 l 390 1007 l 175 1007 l 90 796 z m 494 796 l 663 1007 l 447 1007 l 335 796 z "},"ˆ":{"ha":625,"x_min":0,"x_max":0,"o":"m 249 796 l 311 908 l 314 908 l 376 796 l 569 796 l 421 1007 l 204 1007 l 56 796 z "},"ˇ":{"ha":625,"x_min":0,"x_max":0,"o":"m 421 796 l 569 1007 l 376 1007 l 314 894 l 311 894 l 249 1007 l 56 1007 l 204 796 z "},"˘":{"ha":556,"x_min":0,"x_max":0,"o":"m 278 782 b 500 993 407 782 494 868 l 372 993 b 278 918 368 947 338 918 b 183 993 218 918 188 947 l 56 993 b 278 782 60 864 151 782 z "},"˚":{"ha":394,"x_min":0,"x_max":0,"o":"m 197 718 b 350 868 281 718 350 775 b 197 1018 350 960 281 1018 b 44 868 115 1018 44 960 b 197 718 44 775 115 718 z m 197 804 b 139 868 164 804 139 826 b 197 932 139 910 164 932 b 257 868 235 932 257 910 b 197 804 257 826 235 804 z "},"˜":{"ha":592,"x_min":0,"x_max":0,"o":"m 176 775 b 224 829 176 801 185 829 b 413 775 278 829 338 775 b 536 979 492 775 536 835 l 417 979 b 368 924 417 951 407 924 b 179 979 313 924 254 979 b 56 775 100 979 56 918 z "},"¯":{"ha":508,"x_min":0,"x_max":0,"o":"m 453 796 l 453 935 l 56 935 l 56 796 z "},"¸":{"ha":449,"x_min":0,"x_max":0,"o":"m 226 -275 b 408 -162 325 -275 408 -235 b 260 -69 408 -90 335 -61 l 260 -67 l 314 0 l 214 0 l 132 -86 l 165 -133 b 217 -124 181 -128 197 -124 b 264 -161 246 -124 264 -135 b 200 -201 264 -190 233 -201 b 113 -181 167 -201 139 -193 l 71 -229 b 226 -275 110 -256 161 -275 z "},"˛":{"ha":382,"x_min":0,"x_max":0,"o":"m 214 -246 b 326 -231 253 -246 294 -239 l 326 -106 b 269 -115 307 -111 288 -115 b 226 -85 242 -115 226 -106 b 293 0 226 -56 257 -31 l 153 0 b 56 -129 108 -21 56 -64 b 214 -246 56 -204 110 -246 z "},"᎚":{"ha":903,"x_min":0,"x_max":0,"o":""}}}
